<?xml version="1.0" encoding="utf-8"?>
<!-- Generator: Adobe Illustrator 20.1.0, SVG Export Plug-In . SVG Version: 6.00 Build 0)  -->
<svg version="1.1" id="Layer_1" xmlns="http://www.w3.org/2000/svg" xmlns:xlink="http://www.w3.org/1999/xlink" x="0px" y="0px"
	 viewBox="0 0 474.6 155.6" style="enable-background:new 0 0 474.6 155.6;" xml:space="preserve">
<style type="text/css">
	.st0{fill-rule:evenodd;clip-rule:evenodd;fill:#93181a;}
</style>
<g>
	<path class="st0" d="M468.1,135.6v-26.7v-0.1v-1h-0.4v0.3c-0.3-0.3-0.7-0.5-1.2-0.5v-0.6h-0.7v0.6c-0.9,0-1.8,0-2.6,0v-0.8h-0.7
		v0.8c-1,0-2,0-3.1,0v-0.8h-0.7v0.8c-0.5,0-1,0-1.5,0v-2.3h-2v1.2h-15.1v-6H440v-0.2v-0.7h-0.5v0.7h-0.5v0.2h-1.1v-8.3
		c0.8-0.5,1.6,1,2.5,1.1v-2.1c-1,0.4-1.3-1-2.5-1v-0.4h-0.2v10.6h-1.1v-0.2h-0.5v-0.7h-0.5v0.7v0.2h-0.2v6h-15.1v-1.2h-2v2.3
		c-0.5,0-1,0-1.5,0v-0.8H416v0.8c-1,0-2,0-3.1,0v-0.8h-0.7v0.8c-0.9,0-1.8,0-2.6,0v-0.6h-0.7v0.6c-0.5,0-0.9,0.2-1.2,0.5v-0.3h-0.4
		v1v0.1v26.7h-5.6v-1.4h-0.2v-0.2h0.2v-0.6h-0.2h-7.7v-0.2h-0.6l-1-3.9l-0.3-10.6h0.6V118h-0.6l-0.5-15.4h0.4v-0.8h-0.4l0-1.2h0.5
		v-0.8h-0.5l0-0.9h1.1v-0.4h0.7v-1.1h-0.8v-2.3h0.5v-1.7H391l-0.3-11.7h0.1v-1.3h0.2v-1.6h-0.3l0-1.4h0.3v-1.6h-0.4l-0.3-10.4h0.7
		v-0.8h0.4v-0.5h0.5v-3.4h-0.5V60h-0.4v-3h0.3v-1.4h-0.5v-0.6h-0.5V52h0.3v-1.4h-0.3v-3.3h0.3v-1.4h-0.3v-3.6h1.2v-2.6h0.2h0.2v-2.9
		h-0.2v-4.4h-0.7v-0.7h-0.3v-0.3h-0.8v-3.2h0.4v-0.5h-0.4h-0.4v-6.9h0.4v-0.5H389v-6.6h0.5v-0.5h-0.7V9h0.2V8.5h-0.4V4.2h0.3V3.7
		h-0.4V0.5h0.2V0h-0.6v0.5h0.2v3.1H388v0.5h0.3v4.3h-0.4V9h0.2v4.3h-0.7v0.5h0.5v6.6h-0.8v0.5h0.4v6.9h-0.4h-0.4v0.5h0.4v3.2h-0.8
		v0.3H386v0.7h-0.7v4.4h-0.2v2.9h0.2h0.2v2.6h1.2v3.6h-0.3v1.4h0.3v3.3h-0.3V52h0.3v3.1h-0.5v0.6h-0.5v1.4h0.3v3h-0.4v0.7h-0.5v3.4
		h0.5v0.5h0.4v0.8h0.7l-0.3,10.4H386v1.6h0.3l0,1.4H386v1.6h0.2v1.3h0.1l-0.3,11.7h-1.5v1.7h0.5v2.3H384v1.1h0.7v0.4h1.1l0,0.9h-0.5
		v0.8h0.5l0,1.2h-0.4v0.8h0.4l-0.5,15.4h-0.6v0.8h0.5l-0.3,10.6l-1,3.9h-0.6v0.8h0.4l-0.9,3.5l-1.4-1.1h-0.7v-9.9h0
		c-0.1-1.1-0.4-1.9-0.8-1.9c0,0-0.1,0-0.1,0v-0.2h-1.1l-5.4-26.8h-0.3v-0.5h0.3v-0.6h-0.3v-1.8h0.3v-0.6h-0.3v-0.3
		c0.4-0.2,0.7-0.5,0.7-1c0-0.7-1.3-1.5-1.4-2.7c0,0,0,0,0,0l0-0.8c0.1,0,0.2-0.1,0.2-0.3c0-0.2-0.1-0.3-0.3-0.3v-3h0.5v-0.1h-0.5
		v-0.5H372v0.5h-0.5v0.1h0.5v3c-0.1,0-0.3,0.1-0.3,0.3c0,0.1,0.1,0.2,0.2,0.3l0,0.8c0,0,0,0,0,0c-0.1,1.2-1.4,2-1.4,2.7
		c0,0.5,0.3,0.8,0.7,1v0.3H371v0.6h0.3v1.8H371v0.6h0.3v0.5H371l-5.4,26.8h-1.3v0.2c0,0-0.1,0-0.1,0c-0.4,0-0.7,0.8-0.8,1.9h0v9.9
		h-0.7l-1.6,1.3h0.5v4.2l-5.9,2v5.2h-1v-7.9h-0.5v-1.8h1.1v-2.8h0.4l-4.4-1.7v-2.6h0.1l0.6-0.9h0.9v-0.8h-1.8l-0.9-10.5h0.2v-1.4
		h0.4v-1.3h0.1l0.6-0.9h0.2v-0.5h-1c0-0.2,0-0.4,0-0.6c0-1.5-0.7-2.7-1.6-2.7c0,0,0,0,0,0l-1.1-3.2v-3.9h0.1l0.8-1.6v-1.7h0.3v-0.6
		h0.5v-1.6h-0.3c1.8-0.7,2.9-2.1,3-4.6c0.1-4.6-8.3-8-9-15.8c0,0-0.1,0-0.1,0l-0.2-3.1c0.3-0.2,0.5-0.5,0.5-0.9c0-0.5-0.4-0.9-0.9-1
		v-4.6h0.8V70h-0.8v-0.8h-0.2V70h-0.8v0.2h0.8v4.6c-0.5,0.1-0.9,0.5-0.9,1c0,0.3,0.2,0.6,0.4,0.8l-0.3,3.2c0,0-0.1,0-0.1,0
		c-0.5,6.1-5.8,9.5-8,12.9c-0.8-4.2-8.3-7.6-8.9-15c0,0-0.1,0-0.1,0l-0.2-3.1c0.3-0.2,0.5-0.5,0.5-0.9c0-0.5-0.4-0.9-0.9-1v-4.6h0.8
		V68H324v-0.8h-0.2V68H323v0.2h0.8v4.6c-0.5,0.1-0.9,0.5-0.9,1c0,0.3,0.2,0.6,0.4,0.8l-0.3,3.2c0,0-0.1,0-0.1,0
		c-0.2,2-0.8,3.6-1.7,5.1c-0.1-0.4-0.3-0.7-0.6-1v-2.5h-0.9v-2.6h0.5V76h0.4v-0.8h0.4v-0.5h0.6v-0.4l-1.7-0.5h-0.4l-6.7-20.9h-0.4
		v-1.2h0.5v-0.5h0.3v-1.4H313v-0.6h-0.3v-2.3h0.3V46h-0.3v-0.7h0.5v-0.5h-0.5v-0.4h1.1V44h-1.1c1.1-0.5,1.8-1.5,1.8-2.6
		c0-3-4-3.2-3.5-8c0,0,0,0,0,0c0.1-0.1,0.1-0.2,0.1-0.4c0-0.3-0.2-0.5-0.5-0.6v-5h0.8v-0.2h-0.8v-0.8h-0.2v0.8h-0.8v0.2h0.8v5
		c-0.3,0.1-0.5,0.3-0.5,0.6c0,0.1,0.1,0.3,0.1,0.4c0,0,0,0,0,0c0.6,4.8-3.5,5.1-3.5,8c0,1.1,0.7,2,1.8,2.6h-1.1v0.5h1.1v0.4H308v0.5
		h0.5V46h-0.3v0.9h0.3v2.3h-0.3v0.6h-0.3v1.4h0.3v0.5h0.5v1.2h-0.4l-6.7,20.9h-0.4l-1.7,0.5v0.4h0.6v0.5h0.4V76h0.4v0.8h0.5v2.6
		h-0.9V82c-0.5,0.5-0.8,1.4-0.8,2.4c0,0.5,0.1,1,0.3,1.4c-0.4,0.5-0.7,1.3-0.7,2.2c0,0.5,0.1,1,0.3,1.4c-0.4,0.5-0.7,1.3-0.7,2.2
		c0,0.6,0.1,1.2,0.4,1.6l-2.5,1.4v0.6h1v0.8l0.9,0.5v0.6h-1.4v1.5h0.6v1.3h-0.6v1.5h0.6v0.2c-1.8,2.4-3.7,4.5-3.7,6.4
		c0,0.3,0,0.6,0.1,0.8h-0.9v-2.4h0.5V106l-0.5-0.8h-2.2v-4.5h0.2v-0.7h-0.2v-1.4h0.2v-0.9h0.2V97h0.4v-1.1h-1.4
		c1.5-0.9,2.4-2.3,2.5-4.3c0.1-3.6-6.4-7.5-6.9-13.5c0,0-0.1,0-0.1,0l-0.1-2.5c0.4-0.1,0.7-0.5,0.7-0.9c0-0.5-0.4-0.9-0.9-1V69h0.8
		v-0.2h-0.8V68h-0.2v0.8h-0.8V69h0.8v4.6c-0.5,0.1-0.9,0.5-0.9,1c0,0.4,0.2,0.7,0.5,0.8l-0.2,2.6c0,0-0.1,0-0.1,0
		c-0.5,6-7,9.9-6.9,13.5c0.1,2,1,3.5,2.5,4.3h-1.4V97h0.4v0.7h0.2v0.9h0.2v1.4h-0.2v0.7h0.2v4.5h-2.2l-0.5,0.8v0.2h0.5v1.2
		c-0.1,0-0.3-0.1-0.4-0.1c-1.1,0-2.1,1.9-2.1,4.2c0,0.2,0,0.4,0,0.6h-0.5h-0.5v0.5h0.5v0.4l0.7,3.9h0.4v11.6h-0.4l-0.7,0.4v0.1h0.5
		v5.2h-2.4l-1.8-4.1l-3.9,8.7l-2.5,1.6v-4.9h-4.2v-7.3h0.5v-0.4h-0.5v-4.5h0.5v-0.4h-2.7l-1.5-1.5l-1.5,1.5h-4.7l-1.9-1.5l-1.9,1.5
		h-3.7v0.4h0.5v4.5h-0.5v0.4h0.5v7.3h-8.3v-22.1h0.4V113h-0.4V99.5h0.4V99h-0.5v-1.5h-0.4l-0.2-2.6l-0.1-1.8
		c0.2-0.1,0.3-0.2,0.3-0.4c0-0.3-0.2-0.5-0.5-0.5c-0.3,0-0.5,0.2-0.5,0.5c0,0.2,0.1,0.4,0.3,0.4l-0.1,1.8l-0.2,2.6h-0.4v0.7h-1.7
		v-0.8l-1.8-1h-0.5l-1.8,1v0.8h-1.7v-0.7h-0.4l-0.2-2.6l-0.1-1.8c0.2-0.1,0.3-0.2,0.3-0.4c0-0.3-0.2-0.5-0.5-0.5s-0.5,0.2-0.5,0.5
		c0,0.2,0.1,0.4,0.3,0.4l-0.1,1.8l-0.2,2.6h-0.4V99h-0.5v0.5h0.4v8.2h-2.6V86.9h0.1v-2.8h-0.5l-0.3-3.4l-0.2-2.4
		c0.2-0.1,0.4-0.3,0.4-0.6c0-0.4-0.3-0.6-0.6-0.6c-0.4,0-0.6,0.3-0.6,0.6c0,0.3,0.2,0.5,0.4,0.6l-0.2,2.4l-0.3,3.4h-0.5v2h-2.5v-1.8
		h-1.6V69h-0.1v-0.7h-0.2l-0.1-1.1l-0.1-0.8c0.1,0,0.1-0.1,0.1-0.2c0-0.1-0.1-0.2-0.2-0.2c-0.1,0-0.2,0.1-0.2,0.2
		c0,0.1,0.1,0.1,0.1,0.2l-0.1,0.8l-0.1,1.1h-0.2V69h-0.5v-0.8h-0.8v-0.4h-1.1c0.1-0.2,0.1-0.5,0.1-0.8c0-1-0.5-1.8-1.2-2.3v-0.9
		h-0.4l-0.5-10l-0.2-5.3l0.6,0.3l-0.4-0.4c0.6-0.2,1-0.8,1-1.4c0-0.6-0.3-1.1-0.8-1.3c0.4,0.3,0.6,0.7,0.6,1.2
		c0,0.8-0.6,1.4-1.3,1.4c-0.7,0-1.3-0.6-1.3-1.4c0-0.5,0.3-1,0.6-1.2c-0.5,0.2-0.8,0.8-0.8,1.3c0,0.7,0.4,1.2,1.1,1.4l-0.4,0.4
		l0.6-0.3l-0.2,5.3l-0.5,10h-0.4v0.9c-0.7,0.5-1.2,1.3-1.2,2.3c0,0.3,0,0.5,0.1,0.8h-1.1v0.4h-0.8V69h-0.5v-0.7H204l-0.1-1.1
		l-0.1-0.8c0.1,0,0.1-0.1,0.1-0.2c0-0.1-0.1-0.2-0.2-0.2c-0.1,0-0.2,0.1-0.2,0.2c0,0.1,0.1,0.1,0.1,0.2l-0.1,0.8l-0.1,1.1h-0.2V69
		h-0.1v15.3h-1.6v1.8h-2.5v-2h-0.5l-0.3-3.4l-0.2-2.4c0.2-0.1,0.4-0.3,0.4-0.6c0-0.4-0.3-0.6-0.6-0.6s-0.6,0.3-0.6,0.6
		c0,0.3,0.2,0.5,0.4,0.6l-0.2,2.4l-0.3,3.4h-0.5v2.8h0.1v20.8h-5.5v-8.2h0.4V99h-0.5v-1.5h-0.4l-0.2-2.6l-0.1-1.8
		c0.2-0.1,0.3-0.2,0.3-0.4c0-0.3-0.2-0.5-0.5-0.5c-0.3,0-0.5,0.2-0.5,0.5c0,0.2,0.1,0.4,0.3,0.4l-0.1,1.8l-0.2,2.6h-0.4v0.7h-1.7
		v-0.8l-1.8-1h-0.5l-1.8,1v0.8h-1.7v-0.7h-0.4l-0.2-2.6l-0.1-1.8c0.2-0.1,0.3-0.2,0.3-0.4c0-0.3-0.2-0.5-0.5-0.5
		c-0.3,0-0.5,0.2-0.5,0.5c0,0.2,0.1,0.4,0.3,0.4l-0.1,1.8l-0.2,2.6h-0.4V99h-0.5v0.5h0.4V113h-0.4v0.5h0.4v22.1h-6.3v3.4h-5.7v-32
		h-10.2l-2-38.7h-1.1v-0.5H153v-1.9h-4c-0.7-5.1-1.5-8.2-2.4-8.2c-0.3,0-0.5,0.3-0.8,0.8h-13.3v-0.6h-0.3v0.6h-1.5v-1.3h-0.3v1.3
		h-3.1c-0.3-0.5-0.5-0.8-0.8-0.8c-2.2,0-3.9,17.8-3.9,39.7c0,0.9,0,1.7,0,2.5h-0.2V73.5h-0.9V53.6h0.9V28.8h-5.2V26h-8.5v2.7h-1.6
		v4.1h-3.4v-3.1H94v3.1h-2.2V64h-1.3v19.5c-4.5,0.3-8.8,2.3-12.7,5.8c-2,16.9-3.5,33.8-2.6,50h-0.3v-6.8h-2.3v-9.6H61.4V36.7h-1.5
		v-2.3h-0.7v-2c-0.9-0.4-1.7-0.7-2.6-1v-0.7c0.1,0,0.2,0.1,0.3,0.1v-0.4c-9.7-4-18.7-4.3-27,0l0.1,0.5c0.1-0.1,0.2-0.1,0.3-0.2v0.5
		c-0.8,0.3-1.7,0.7-2.5,1.1v4.3v3v65.8h-1.7V79.6c-0.8,0.1-1.5,0.1-2.2,0.2v-0.7c-6.9,0.6-12.5,1.9-13.6,5.7c-0.7,0.9-1.2,2-1.2,3.3
		v42.6H2.6v9H0v17.6h2.6v0.2H9v1.2h17.1v-6h1.7v6h33.5v0.4h11.3v-0.4h5.1H87h1.7h3.1h16.9v-0.7h15.6v0.7H160l-0.2-4h5.9v2.8h9v-1.9
		h1.7v1.9h10h7.9h8.3v-1.9h60.9v0.1h88.5h2.8h1h5.9h1.5h19.2v-5.7h4.4v5.3h14h0.9h73v-19.6H468.1z M56.3,31.3
		c-0.2-0.1-0.4-0.1-0.5-0.2v-0.7c0.2,0.1,0.4,0.1,0.5,0.2V31.3z M43.1,27.8c0.2,0,0.4,0,0.5,0v1c-0.2,0-0.4,0-0.5,0V27.8z M44,27.8
		c0.2,0,0.5,0,0.7,0h-0.2v1c-0.2,0-0.4,0-0.5,0V27.8z M44.8,27.9c0.2,0,0.4,0,0.5,0v1c-0.2,0-0.4,0-0.5,0V27.9z M45.7,27.9
		c0.2,0,0.4,0,0.5,0v1c-0.2,0-0.4,0-0.5,0V27.9z M46.5,28c0.2,0,0.4,0.1,0.5,0.1v1c-0.2,0-0.4,0-0.5-0.1V28z M47.3,28.1
		c0.2,0,0.4,0,0.5,0.1v1c-0.2,0-0.4-0.1-0.5-0.1V28.1z M48.2,28.3c0.2,0,0.4,0.1,0.5,0.1v0.9c-0.2,0-0.4-0.1-0.5-0.1V28.3z M49,28.4
		c0.2,0,0.4,0.1,0.5,0.1v0.9c-0.2,0-0.4-0.1-0.5-0.1V28.4z M49.9,28.6c0.2,0,0.4,0.1,0.7,0.2h-0.1v0.9c-0.2,0-0.4-0.1-0.5-0.1V28.6z
		 M50.7,28.8c0.2,0.1,0.4,0.1,0.6,0.1h-0.1v0.9c-0.2,0-0.4-0.1-0.5-0.1V28.8z M51.5,29c0.2,0,0.4,0.1,0.5,0.2V30
		c-0.2,0-0.4-0.1-0.5-0.1V29z M52.4,29.3c0.2,0.1,0.4,0.1,0.5,0.2v0.8c-0.2,0-0.4-0.1-0.5-0.1V29.3z M53.2,29.5
		c0.2,0.1,0.4,0.1,0.5,0.2v0.8c-0.2-0.1-0.4-0.1-0.5-0.2V29.5z M54,29.8c0.2,0.1,0.4,0.1,0.5,0.2v0.7c-0.2-0.1-0.4-0.1-0.5-0.2V29.8
		z M54.9,30.1c0.2,0.1,0.4,0.1,0.5,0.2V31c-0.2-0.1-0.4-0.1-0.5-0.2V30.1z M42.8,27.8v1c-0.2,0-0.4,0-0.5,0v-1
		C42.5,27.8,42.7,27.8,42.8,27.8z M32.2,30.5v-0.7c0.2-0.1,0.4-0.1,0.5-0.2v0.7C32.6,30.4,32.4,30.4,32.2,30.5z M33.1,29.5
		c0.2-0.1,0.4-0.1,0.5-0.2v0.7c-0.2,0.1-0.4,0.1-0.5,0.2V29.5z M33.9,29.2c0.2-0.1,0.4-0.1,0.5-0.2v0.8c-0.2,0-0.4,0.1-0.5,0.1V29.2
		z M34.8,28.9c0.2-0.1,0.4-0.1,0.5-0.1v0.8c-0.2,0-0.4,0.1-0.5,0.1V28.9z M35.6,28.7c0.2,0,0.4-0.1,0.5-0.1v0.9
		c-0.2,0-0.4,0.1-0.5,0.1V28.7z M36.4,28.5c0.2,0,0.4-0.1,0.5-0.1v0.9c-0.2,0-0.4,0.1-0.5,0.1V28.5z M37.3,28.3
		c0.2,0,0.4-0.1,0.5-0.1v0.9c-0.2,0-0.4,0-0.5,0.1V28.3z M38.1,28.1c0.2,0,0.4-0.1,0.5-0.1V29c-0.2,0-0.4,0.1-0.5,0.1V28.1z M39,28
		c0.2,0,0.4-0.1,0.5-0.1v1c-0.2,0-0.4,0-0.5,0V28z M39.8,27.9c0.2,0,0.4,0,0.5,0v1c-0.2,0-0.4,0-0.5,0V27.9z M40.6,27.9
		c0.2,0,0.4,0,0.5,0v1c-0.2,0-0.4,0-0.5,0V27.9z M41.5,27.8c0.2,0,0.4,0,0.5,0v1c-0.2,0-0.4,0-0.5,0V27.8z M30.6,30.6
		c0.5-0.2,0.9-0.4,1.4-0.6v0.6c-0.5,0.2-0.9,0.3-1.4,0.5V30.6z M382.6,137.9l-0.3,0.7v-0.8L382.6,137.9L382.6,137.9z M332.7,96.7
		c0.3,1.9,1.4,3,2.9,3.6h-0.3v1.6h0.5v0.6h0.1c-1.4,2.3-3.8,3.8-4.1,5.6l-0.8-2.2v-5.5h0.5v-0.8h0.5V98h-0.7
		C331.8,97.6,332.3,97.2,332.7,96.7z"/>
	<polygon class="st0" points="207.7,46.6 208.6,47.1 208.2,48 209,47.3 209.7,48 209.3,47.1 210.2,46.6 209.2,46.7 209,46 209,44.9
		208.9,46 208.8,46.7 	"/>
	<path class="st0" d="M260.7,122.2h-0.1l-0.1-1l-0.1-0.7c0.1,0,0.1-0.1,0.1-0.2c0-0.1-0.1-0.2-0.2-0.2c-0.1,0-0.2,0.1-0.2,0.2
		c0,0.1,0,0.1,0.1,0.2l-0.1,0.7l-0.1,1h-0.1v0.8h0.7V122.2z"/>
	<path class="st0" d="M259.4,122.2h-0.1l-0.1-1l-0.1-0.7c0.1,0,0.1-0.1,0.1-0.2c0-0.1-0.1-0.2-0.2-0.2c-0.1,0-0.2,0.1-0.2,0.2
		c0,0.1,0,0.1,0.1,0.2l-0.1,0.7l-0.1,1h-0.1v0.8h0.7V122.2z"/>
	<path class="st0" d="M254,122.2h-0.1l-0.1-1l-0.1-0.7c0.1,0,0.1-0.1,0.1-0.2c0-0.1-0.1-0.2-0.2-0.2c-0.1,0-0.2,0.1-0.2,0.2
		c0,0.1,0,0.1,0.1,0.2l-0.1,0.7l-0.1,1h-0.1v0.8h0.7V122.2z"/>
	<path class="st0" d="M252.6,122.2h-0.1l-0.1-1l-0.1-0.7c0.1,0,0.1-0.1,0.1-0.2c0-0.1-0.1-0.2-0.2-0.2c-0.1,0-0.2,0.1-0.2,0.2
		c0,0.1,0,0.1,0.1,0.2l-0.1,0.7l-0.1,1h-0.1v0.8h0.7V122.2z"/>
	<path class="st0" d="M245.7,122.2h-0.1l-0.1-1l-0.1-0.7c0.1,0,0.1-0.1,0.1-0.2c0-0.1-0.1-0.2-0.2-0.2c-0.1,0-0.2,0.1-0.2,0.2
		c0,0.1,0,0.1,0.1,0.2l-0.1,0.7l-0.1,1H245v0.8h0.7V122.2z"/>
	<path class="st0" d="M244.4,122.2h-0.1l-0.1-1l-0.1-0.7c0.1,0,0.1-0.1,0.1-0.2c0-0.1-0.1-0.2-0.2-0.2c-0.1,0-0.2,0.1-0.2,0.2
		c0,0.1,0,0.1,0.1,0.2l-0.1,0.7l-0.1,1h-0.1v0.8h0.7V122.2z"/>
</g>
</svg>
