<svg id="Layer_1" xmlns="http://www.w3.org/2000/svg" viewBox="0 0 566.9 152"><style>.st0{fill-rule:evenodd;clip-rule:evenodd;fill:#800}</style><path class="st0" d="M498.7 29.4l-.6 1.2 1.1-.9 1 .9-.6-1.2 1.2-.7-1.4.1-.2-1v-1.4l-.1 1.4-.2 1-1.4-.1z"/><path class="st0" d="M550.7 129.8v-26.5h.4l-.4-.6h-.1v-1.5h-.1v-.4h.1v-.5h-.1v-.5h.1l-.2-1.2h-.4l-.2 1.2h.1v.5h.1v.5h.1v.4h-.1v.2h-.5V100h-.3v-.2h-.1V92h.1v-.4h.2v-.5h-.2v-.4h-.2v-.3h.1v-.3h-.1V90l-.1-1.9h.1V88h-.3l-.2-1.3-.2 1.3h-.3v.2h.1l-.1 1.9v.1h-.1v.3h.1v.3h-.2v.4h-.3v.3-.7h-.4v-.3h-.2v-3.3h-.1V87h.3v-.4h-.9v-.4l.3-1h.1v-.7h-.3v.5h-.5v-.5h-.3v.5h-.5v-.5h-.3v.5h-.5v-.5h-.3v.6h.1l.3 1v.4h-.9v.5h.3v.2h-.1v3.3h-.2v.3h-.4v.4h-.2v-.4h-.2v-.3h.1v-.3h-.1v-.1l-.1-1.9h.1V88h-.3l-.2-1.3-.1 1.3h-.3v.2h.1l-.1 1.9v.1h-.1v.3h.1v.3h-.2v.4h-.2v.5h.1v.3h.2v7.6h-.2v.2h-.4v1.4h-.4v-.2h-.1v-.4h.1v-.5h-.1v-.5h.1l-.2-1.2h-.4l-.2 1.2h.1v.5h-.1v.5h.1v.4h-.1v1.5h-2.7l-.4.4h-16.3v-.9h-.2v-2h.3v-.2h.1v-.3h-.5v-.3h-.6v-.4h-.3v-.4c.1-.1.1-.2.1-.3 0-.3-.2-.5-.5-.5s-.5.2-.5.5c0 .1 0 .2.1.3v.4h-.3v.4h-.6v.3h-.5v.3h.1v.2h.3v2.2h-.2v.9H514V84.6h.4v-1h-.6V81h-.2v-.7l-.3.7h-.3v1.6h-.2v1h-2v-.9h-.3v-.6h-.4v-1.2h-.1c0-.1-.1-.4-.1-.7 0-.4.1-.9 0-1.1-.1-.2 0-.4 0-.5 0-.1.1-.7.1-.9 0-.2.1-.6-.1-.7-.1-.1-.6-.1-.5.1.1.3.1.6.1.7 0 .1-.1.4-.1.5s-.2 0-.2 0-.1-.3 0-.2.2-.3 0-.5c-.2-.1-.6-.1-.4.2.1.3.2.5.1.5s-.3 0-.3.3-.1.5-.3.8c-.1.3-.2.4-.1.5.1.1.3.4.3.4s.1.2.1.3v.2h-.1V82h-.4v.6h-.3v.9h-.5V67.3h.2V67h.3v-.5h-.6v-.6h-.1v-.7h-.1V65c.1 0 .1 0 .1-.1v-.1l-.1-.1v-.9c.1 0 .1 0 .1-.1v-.1c0-.1-.1-.1-.1-.1h-.1l.1-.1c0-.1-.1-.2-.2-.2s-.2.1-.2.2 0 .1.1.1h-.1c-.1 0-.1 0-.1.1v.1l.1.1v.9c-.1 0-.1 0-.1.1v.1l.1.1v.2h-.6v.7h-.7v-.7h-.1V65c.1 0 .1 0 .1-.1v-.1l-.1-.1v-.9c.1 0 .1 0 .1-.1v-.1c0-.1-.1-.1-.1-.1h-.2l.1-.1c0-.1-.1-.2-.1-.2V63h-.4v-.5h-.6v-.6h-.5v-6h.3v-1.4h-.3v-.6s.1 0 .1-.1v-.1l-.1-.1v-.5s.1 0 .1-.1v-.1s0-.1-.1-.1h-.1v-.1c0-.1-.1-.1-.1-.1l-.1.1v.1h-.1s-.1 0-.1.1v.1h.1v.5h-.1v.1h.1V54.4h-.4v-.5s.1 0 .1-.1v-.1l-.1-.1v-.5s.1 0 .1-.1v-.1s0-.1-.1-.1h-.1v-.1c0-.1-.1-.1-.1-.1-.1 0-.1.1-.1.1v.1h-.1s-.1 0-.1.1v.1l.1.1v.5s-.1 0-.1.1v.1l.1.1v.5h-.3v-1h-.2v-2.1h.2v-.4h.3v-.6h-.5v-.6h-.3l-1.5-1.5v-.4h.5v-1.5l.7-.5v-.6h-1.3v-.6h.3V43h.2v-.4h.2v-.2H500.3v-.2h-.4l-.5-10.9.9.4-.5-.5c.8-.3 1.4-1 1.4-2 0-.8-.5-1.5-1.1-1.8.5.3.9 1 .9 1.7 0 1.1-.8 2-1.8 2s-1.8-.9-1.8-2c0-.7.4-1.3.9-1.7-.7.3-1.1 1-1.1 1.8 0 .9.6 1.7 1.4 2l-.5.5.8-.4-.5 10.9h-.4v.2H497.7v.2h.2v.4h.2v1.6h.3v.6H497v.6l.7.5v1.5h.5v.4l-1.5 1.5h-.3v.6h-.4v.6h.3v.4h.2v2.1h-.2v1h-.2v-.5s.1 0 .1-.1v-.1l-.1-.1v-.5s.1 0 .1-.1v-.1s0-.1-.1-.1h-.1v-.1c0-.1-.1-.1-.1-.1-.1 0-.1.1-.1.1v.1h-.1s-.1 0-.1.1v.1h.1v.5h-.1v.1h.1V54.4h-.4v-.5s.1 0 .1-.1v-.1l-.1-.1v-.5s.1 0 .1-.1v-.1s0-.1-.1-.1h-.1v-.1c0-.1-.1-.1-.1-.1l-.1.1v.1h-.1s-.1 0-.1.1v.1l.1.1v.5s-.1 0-.1.1v.1l.1.1v.5h-.3v1.4h.3v6h-.5v.6h-.5v.5h-.4v.2c-.1 0-.1.1-.1.2s0 .1.1.1h-.1c-.1 0-.1 0-.1.1v.1l.1.1v.9c-.1 0-.1 0-.1.1v.1l.1.1v.2h-.1v.7h-.7v-.7h-.1V65c.1 0 .1 0 .1-.1v-.1l-.1-.1v-.9c.1 0 .1 0 .1-.1v-.1c0-.1-.1-.1-.1-.1h-.1l.1-.1c0-.1-.1-.2-.2-.2s-.2.1-.2.2 0 .1.1.1h-.1c-.1 0-.1 0-.1.1v.1l.1.1v.9c-.1 0-.1 0-.1.1v.1l.1.1v.2h-.1v.7h-.1v.6h-.6v.5h.3v.3h.2v16.3h-.5v-.9h-.3v-.6h-.4v-1.2h-.6v-.3c0-.2-.1-.5-.1-.5l.4-1s-.2-.3-.4-.5c-.1-.2-.4-.2-.5-.2-.1 0 0-.1 0-.4 0-.2-.2-.4-.4-.2s0 .5 0 .5-.1.1-.2.1-.4-.1-.6.4c-.2.4.3.8.3.8s.1.1.1.2c.1.2.3.3.3.3s-.1.2-.3.4c-.2.1 0 .2 0 .2v.1h-.3V82h-.4v.4h-.1v.2h-.2v.9h-2v-1h-.2v-.7h-.1v-.9h-.3l-.3-.7v.7h-.2v2.6h-.6v1h.4v18.4H481v-.9h-.2v-2h.3v-.2h.1v-.3h-.5v-.3h-.6v-.4h-.3v-.4c.1-.1.1-.2.1-.3 0-.3-.2-.5-.5-.5s-.5.2-.5.5c0 .1 0 .2.1.3v.4h-.3v.4h-.6v.3h-.5v.3h.1v.2h.3v2.2h-.2v.9h-16.3l-.4-.4h-2.7v-1.5h-.1v-.4h.1v-.5h-.1v-.5h.1l-.2-1.2h-.4l-.2 1.2h.1v.5h-.1v.5h.1v.4h-.1v.2h-.4V100h-.2v-.2h-.2V92h.2v-.4h.1v-.5h-.3v-.4h-.2v-.3h.1v-.3h-.1V90l-.1-1.9h.1V88h-.3l-.2-1.3-.2 1.3h-.3v.2h.1l-.1 1.9v.1h-.1v.3h.1v.3h-.2v.4h-.2v-.4h-.4v-.3h-.2v-3.3h-.1V87h.3v-.4h-.8v-.4l.3-1h.1v-.7h-.3v.5h-.5v-.5h-.3v.5h-.5v-.5h-.3v.5h-.5v-.5h-.3v.6h.1l.3 1v.4h-.9v.5h.3v.2h-.1v3.3h-.2v.3h-.4v.7-.3h-.2v-.4h-.2v-.3h.1v-.3h-.1v-.1l-.1-1.9h.1V88h-.4l-.2-1.3-.2 1.3h-.3v.2h.1l-.1 1.9v.1h-.1v.3h.1v.3h-.2v.4h-.3v.5h.2v.3h.1v7.6h-.1v.2h-.3v1.4h-.5v-.2h-.1v-.4h.1v-.5h-.1v-.5h.1l-.2-1.2h-.4l-.2 1.2h.1v.5h-.1v.5h.1v.4h-.1v1.5h-.1l-.4.6h.4V122h-5.7v6.7h-2.8v-8.5h-6.6v4H414v1.9h-4v-8h-15.9v8h-2.3v3.6h-6.9v-3.6h.2v-.8h-.1v-.6h-4.4v-.7h-.4v-1.9h-2.3v-.3h-2.6v-2.3h-.8v-.5H373v-.5h-1.3v-2.4h-6.6v2.4h-1.3v.5h-1.5v.6h-.8v2.3h-2.6v.3h-2.3v1.9h-.4v.8h-4.4v.6h-.5v.8h.2v3.6h-2.1V108h-.8v-2.2h.2v-1.1h-.4v-.7l-1.3-5h.2v-.6h-.3v-4h.3v-.6H346l-1.5-4.3-1.5 4.3h-1.3v.6h.3v4h-.3v.6h.2l-1.3 5v.7h-.4v1.1h.2v2.2h-.8v2.8h-4V109h.1l.2-1c-.4 0-.7.1-1.1.3-.4-.1-.7-.2-1.1-.3l.2 1h.1v1.6h-1V109h.1l.2-1c-.4 0-.7.1-1.1.3-.4-.1-.7-.2-1.1-.3l.2 1h.1v1.6h-1V109h.1l.2-1c-.4 0-.7.1-1.1.3-.4-.1-.7-.2-1.1-.3l.2 1h.1v1.6h-1V109h.1l.2-1c-.4 0-.7.1-1.1.3-.4-.1-.7-.2-1.1-.3l.2 1h.1v1.6h-1V109h.1l.2-1c-.4 0-.7.1-1.1.3-.4-.1-.7-.2-1.1-.3l.2 1h.1v1.6h-1V109h.1l.2-1c-.4 0-.7.1-1.1.3-.4-.1-.7-.2-1.1-.3l.2 1h.1v1.6h-1V109h.1l.2-1c-.4 0-.7.1-1.1.3-.4-.1-.7-.2-1.1-.3l.2 1h.1v1.6h-1V109h.1l.2-1c-.4 0-.7.1-1.1.3-.4-.1-.7-.2-1.1-.3l.2 1h.1v1.6h-1V109h.1l.2-1c-.4 0-.7.1-1.1.3-.4-.1-.7-.2-1.1-.3l.2 1h.1v1.6h-.6v-5.8h.2v-1.7h-.3l-.2-1.8-.2 1.8H311v.1h-.4l-1.4-6.1-1.4 6.1h-.3v-.1h-.1l-.2-1.8-.2 1.8h-.3v1.7h.2v5.8h-.6V109h.1l.2-1c-.4 0-.7.1-1.1.3-.4-.1-.7-.2-1.1-.3l.2 1h.1v1.6h-1V109h.1l.2-1c-.4 0-.7.1-1.1.3-.4-.1-.7-.2-1.1-.3l.2 1h.1v1.6h-1V109h.1l.2-1c-.4 0-.7.1-1.1.3-.4-.1-.7-.2-1.1-.3l.2 1h.1v1.6h-1V109h.1l.2-1c-.4 0-.7.1-1.1.3-.4-.1-.7-.2-1.1-.3l.2 1h.1v1.6h-1V109h.1l.2-1c-.4 0-.7.1-1.1.3-.4-.1-.7-.2-1.1-.3l.2 1h.1v1.6h-1V109h.1l.2-1c-.4 0-.7.1-1.1.3-.4-.1-.7-.2-1.1-.3l.2 1h.1v1.6h-1V109h.1l.2-1c-.2 0-.4.1-.6.1V78.3h.5v-.8h.3v-.4H290V76h-.6v-.5h.6V74h-.6v-.5h.6v-1.2h.4v-3.1h-.4l-.4-3.3-.2 1.4-.9-6.6-.9 6.6-.2-1.4-.4 3.3h-.5v.7l-1.3-.6h-.8v-5.4h-1v-8.8h-.2l-.5-5.8-.2 3.1h-.5V48h.3v-2.1h.4v-2.7h-.4V37h.3l-.4-5.6-.3 3.2-1-3h-.4l-.2-2.8-.2 2.8h-1.8l-4.1-26.9 2.1 1.7-1-2.5 2.2-1.5-2.7.1-.7-2.5-.7 2.6-2.7-.1 2.2 1.5-1 2.5 2.1-1.7-4.1 26.9h-1.8l-.2-2.8-.2 2.8h-.4l-1 3-.3-3.2-.4 5.6h.3v6.2h-.4V46h.4v2h.3v4.3h-.5l-.2-3.1-.5 5.8h-.2v8.8h-1v5.4h-.8l-1.3.6v-.7h-.5l-.4-3.3-.2 1.4-.9-6.6-.9 6.6-.2-1.4-.4 3.3h-.5v3.1h.4v1.2h.6v.6h-.6v1.4h.6v.6h-.6v1.2h-.5v.4h.3v.8h.5v32.3h-.4V109h.1l.2-1c-.4 0-.7.1-1.1.3-.4-.1-.7-.2-1.1-.3l.2 1h.1v1.6h-1V109h.1l.2-1c-.4 0-.7.1-1.1.3-.4-.1-.7-.2-1.1-.3l.2 1h.1v1.6h-1V109h.1l.2-1c-.4 0-.7.1-1.1.3-.4-.1-.7-.2-1.1-.3l.2 1h.1v1.6h-1V109h.1l.2-1c-.4 0-.7.1-1.1.3-.4-.1-.7-.2-1.1-.3l.2 1h.1v1.6h-1V109h.1l.2-1c-.4 0-.7.1-1.1.3-.4-.1-.7-.2-1.1-.3l.2 1h.1v1.6h-1V109h.1l.2-1c-.4 0-.7.1-1.1.3-.4-.1-.7-.2-1.1-.3l.2 1h.1v1.6h-1V109h.1l.2-1c-.4 0-.7.1-1.1.3-.4-.1-.7-.2-1.1-.3l.2 1h.1v1.6h-.7v-5.8h.2v-1.7h-.3l-.2-1.8-.2 1.8h-.1v.1h-.3l-1.4-6.1-1.4 6.1h-.4v-.1h-.1l-.2-1.8-.2 1.8h-.3v1.7h.2v5.8H234V109h.1l.2-1c-.4 0-.7.1-1.1.3-.4-.1-.7-.2-1.1-.3l.2 1h.1v1.6h-1V109h.1l.2-1c-.4 0-.7.1-1.1.3-.4-.1-.7-.2-1.1-.3l.2 1h.1v1.6h-1V109h.1l.2-1c-.4 0-.7.1-1.1.3-.4-.1-.7-.2-1.1-.3l.2 1h.1v1.6h-1V109h.1l.2-1c-.4 0-.7.1-1.1.3-.4-.1-.7-.2-1.1-.3l.2 1h.1v1.6h-1V109h.1l.2-1c-.4 0-.7.1-1.1.3-.4-.1-.7-.2-1.1-.3l.2 1h.1v1.6h-1V109h.1l.2-1c-.4 0-.7.1-1.1.3-.4-.1-.7-.2-1.1-.3l.2 1h.1v1.6h-1V109h.1l.2-1c-.4 0-.7.1-1.1.3-.4-.1-.7-.2-1.1-.3l.2 1h.1v1.6h-1V109h.1l.2-1c-.4 0-.7.1-1.1.3-.4-.1-.7-.2-1.1-.3l.2 1h.1v1.6h-1V109h.1l.2-1c-.4 0-.7.1-1.1.3-.4-.1-.7-.2-1.1-.3l.2 1h.1v1.6h-1V109h.1l.2-1c-.4 0-.7.1-1.1.3-.4-.1-.7-.2-1.1-.3l.2 1h.1v1.6h-1.3v-2.8h-.8v-2.2h.2v-1.1h-.4v-.7l-1.3-5h.2v-.6h-.3v-4h.3v-.6h-1.3l-1.5-4.3-1.5 4.3H200v.6h.3v4h-.3v.6h.2l-1.3 5v.7h-.4v1.1h.2v2.2h-.8v15.3h-4.4v2.6H190v3.9h-2v-1.9h-2v-7.5h-5.5v7.5h-2.9v-8.8h-6.9v10.7h-1.4v-2.2h-4v-1.7h-7.8v-4.8h-7v4h-6l-4.8-34.8-5.2-1.9-2.1.7v-.7h-1v1l-.6.2v-.1h-.8v-.2h-1.2v.9l-8.6-.8-.2-1.5h-10.4l-3.5 3.4v30.2H100l-1.3 4.8h-7.1v1.2h-5v-3.2H81v3.2h-5v-1.4h-6.2v-37c-.2-.6-.7-1.1-1.5-1.7-.7-3.5-6.2-7.1-19.7-8.2l-2.2 1.8V82c-1.7-.2-3.3-.3-4.9-.4v43.8h-8.6v2.2h-1.5v-5.7h-9.1v5.7h-6.5v-1.9H7v1.9H3.5v2.2H0V152h566.9v-22.3h-16.2zm-184.1-11.5h-.7v-1.2h.7v1.2zm1.1 0h-.7v-1.2h.7v1.2zm1 0h-.7v-1.2h.7v1.2zm1.1 0h-.7v-1.2h.7v1.2zm1.1 0h-.7v-1.2h.7v1.2zm118.8-37.4h-.2v-.4c0-.1.1-.2.2 0 .1.1 0 .3 0 .4z"/></svg>