<svg id="Layer_1" xmlns="http://www.w3.org/2000/svg" viewBox="0 0 474.6 155.6"><style>.st0{fill-rule:evenodd;clip-rule:evenodd;fill:#93181a}</style><path class="st0" d="M468.1 135.6v-27.8h-.4v.3c-.3-.3-.7-.5-1.2-.5v-.6h-.7v.6h-2.6v-.8h-.7v.8h-3.1v-.8h-.7v.8h-1.5v-2.3h-2v1.2h-15.1v-6h-.1V99.6h-.5v.7h-.5v.2h-1.1v-8.3c.8-.5 1.6 1 2.5 1.1v-2.1c-1 .4-1.3-1-2.5-1v-.4h-.2v10.6h-1.1v-.2h-.5v-.7h-.5V100.4h-.2v6h-15.1v-1.2h-2v2.3h-1.5v-.8h-.8v.8h-3.1v-.8h-.7v.8h-2.6v-.6h-.7v.6c-.5 0-.9.2-1.2.5v-.3h-.4v27.8h-5.6v-1.4h-.2v-.2h.2v-.6h-7.9v-.2h-.6l-1-3.9-.3-10.6h.6v-.6h-.6l-.5-15.4h.4v-.8h-.4v-1.2h.5v-.8h-.5v-.9h1.1v-.4h.7v-1.1h-.8v-2.3h.5v-1.7H391l-.3-11.7h.1v-1.3h.2v-1.6h-.3v-1.4h.3v-1.6h-.4l-.3-10.4h.7v-.8h.4v-.5h.5v-3.4h-.5V60h-.4v-3h.3v-1.4h-.5V55h-.5v-3h.3v-1.4h-.3v-3.3h.3v-1.4h-.3v-3.6h1.2v-2.6h.4v-2.9h-.2v-4.4h-.7v-.7h-.3v-.3h-.8v-3.2h.4v-.5h-.8v-6.9h.4v-.5h-.9v-6.6h.5v-.5h-.7V9h.2v-.5h-.4V4.2h.3v-.5h-.4V.5h.2V0h-.6v.5h.2v3.1h-.3v.5h.3v4.3h-.4V9h.2v4.3h-.7v.5h.5v6.6h-.8v.5h.4v6.9h-.8v.5h.4v3.2h-.8v.3h-.3v.7h-.7v4.4h-.2v2.9h.4v2.6h1.2V46h-.3v1.4h.3v3.3h-.3V52h.3v3.1h-.5v.6h-.5v1.4h.3v3h-.4v.7h-.5v3.4h.5v.5h.4v.8h.7l-.3 10.4h-.4v1.6h.3v1.4h-.3v1.6h.2v1.3h.1l-.3 11.7h-1.5v1.7h.5v2.3h-1v1.1h.7v.4h1.1v.9h-.5v.8h.5v1.2h-.4v.8h.4l-.5 15.4h-.6v.8h.5l-.3 10.6-1 3.9h-.6v.8h.4l-.9 3.5-1.4-1.1h-.7v-9.9c-.1-1.1-.4-1.9-.8-1.9h-.1v-.2h-1.1l-5.4-26.8h-.3v-.5h.3v-.6h-.3v-1.8h.3v-.6h-.3V94c.4-.2.7-.5.7-1 0-.7-1.3-1.5-1.4-2.7v-.8c.1 0 .2-.1.2-.3 0-.2-.1-.3-.3-.3v-3h.5v-.1h-.5v-.5h-.2v.5h-.5v.1h.5v3c-.1 0-.3.1-.3.3 0 .1.1.2.2.3v.8c-.1 1.2-1.4 2-1.4 2.7 0 .5.3.8.7 1v.3h-.2v.6h.3v1.8h-.3v.6h.3v.5h-.3l-5.4 26.8h-1.3v.2h-.1c-.4 0-.7.8-.8 1.9v9.9h-.7l-1.6 1.3h.5v4.2l-5.9 2v5.2h-1v-7.9h-.5v-1.8h1.1v-2.8h.4l-4.4-1.7v-2.6h.1l.6-.9h.9v-.8h-1.8l-.9-10.5h.2v-1.4h.4v-1.3h.1l.6-.9h.2v-.5h-1v-.6c0-1.5-.7-2.7-1.6-2.7l-1.1-3.2v-3.9h.1l.8-1.6v-1.7h.3v-.6h.5v-1.6h-.3c1.8-.7 2.9-2.1 3-4.6.1-4.6-8.3-8-9-15.8h-.1l-.2-3.1c.3-.2.5-.5.5-.9 0-.5-.4-.9-.9-1v-4.6h.8V70h-.8v-.8h-.2v.8h-.8v.2h.8v4.6c-.5.1-.9.5-.9 1 0 .3.2.6.4.8l-.3 3.2h-.1c-.5 6.1-5.8 9.5-8 12.9-.8-4.2-8.3-7.6-8.9-15h-.1l-.2-3.1c.3-.2.5-.5.5-.9 0-.5-.4-.9-.9-1v-4.6h.8V68h-.8v-.8h-.2v.8h-.8v.2h.8v4.6c-.5.1-.9.5-.9 1 0 .3.2.6.4.8l-.3 3.2h-.1c-.2 2-.8 3.6-1.7 5.1-.1-.4-.3-.7-.6-1v-2.5h-.9v-2.6h.5V76h.4v-.8h.4v-.5h.6v-.4l-1.7-.5h-.4l-6.7-20.9h-.4v-1.2h.5v-.5h.3v-1.4h-.2v-.6h-.3v-2.3h.3V46h-.3v-.7h.5v-.5h-.5v-.4h1.1V44h-1.1c1.1-.5 1.8-1.5 1.8-2.6 0-3-4-3.2-3.5-8 .1-.1.1-.2.1-.4 0-.3-.2-.5-.5-.6v-5h.8v-.2h-.8v-.8h-.2v.8h-.8v.2h.8v5c-.3.1-.5.3-.5.6 0 .1.1.3.1.4.6 4.8-3.5 5.1-3.5 8 0 1.1.7 2 1.8 2.6h-1.1v.5h1.1v.4h-.3v.5h.5v.6h-.3v.9h.3v2.3h-.3v.6h-.3v1.4h.3v.5h.5v1.2h-.4l-6.7 20.9h-.4l-1.7.5v.4h.6v.5h.4v.8h.4v.8h.5v2.6h-.9V82c-.5.5-.8 1.4-.8 2.4 0 .5.1 1 .3 1.4-.4.5-.7 1.3-.7 2.2 0 .5.1 1 .3 1.4-.4.5-.7 1.3-.7 2.2 0 .6.1 1.2.4 1.6l-2.5 1.4v.6h1v.8l.9.5v.6h-1.4v1.5h.6v1.3h-.6v1.5h.6v.2c-1.8 2.4-3.7 4.5-3.7 6.4 0 .3 0 .6.1.8h-.9v-2.4h.5v-.4l-.5-.8h-2.2v-4.5h.2v-.7h-.2v-1.4h.2v-.9h.2V97h.4v-1.1h-1.4c1.5-.9 2.4-2.3 2.5-4.3.1-3.6-6.4-7.5-6.9-13.5h-.1l-.1-2.5c.4-.1.7-.5.7-.9 0-.5-.4-.9-.9-1V69h.8v-.2h-.8V68h-.2v.8h-.8v.2h.8v4.6c-.5.1-.9.5-.9 1 0 .4.2.7.5.8L285 78h-.1c-.5 6-7 9.9-6.9 13.5.1 2 1 3.5 2.5 4.3h-1.4V97h.4v.7h.2v.9h.2v1.4h-.2v.7h.2v4.5h-2.2l-.5.8v.2h.5v1.2c-.1 0-.3-.1-.4-.1-1.1 0-2.1 1.9-2.1 4.2v.6h-1v.5h.5v.4l.7 3.9h.4v11.6h-.4l-.7.4v.1h.5v5.2h-2.4l-1.8-4.1-3.9 8.7-2.5 1.6v-4.9h-4.2v-7.3h.5v-.4h-.5v-4.5h.5v-.4h-2.7l-1.5-1.5-1.5 1.5h-4.7l-1.9-1.5-1.9 1.5H243v.4h.5v4.5h-.5v.4h.5v7.3h-8.3v-22.1h.4v-.4h-.4V99.5h.4V99h-.5v-1.5h-.4l-.2-2.6-.1-1.8c.2-.1.3-.2.3-.4 0-.3-.2-.5-.5-.5s-.5.2-.5.5c0 .2.1.4.3.4l-.1 1.8-.2 2.6h-.4v.7h-1.7v-.8l-1.8-1h-.5l-1.8 1v.8h-1.7v-.7h-.4l-.2-2.6-.1-1.8c.2-.1.3-.2.3-.4 0-.3-.2-.5-.5-.5s-.5.2-.5.5c0 .2.1.4.3.4l-.1 1.8-.2 2.6h-.4V99h-.5v.5h.4v8.2h-2.6V86.9h.1v-2.8h-.5l-.3-3.4-.2-2.4c.2-.1.4-.3.4-.6 0-.4-.3-.6-.6-.6-.4 0-.6.3-.6.6s.2.5.4.6l-.2 2.4-.3 3.4h-.5v2h-2.5v-1.8h-1.6V69h-.1v-.7h-.2l-.1-1.1-.1-.8c.1 0 .1-.1.1-.2s-.1-.2-.2-.2-.2.1-.2.2.1.1.1.2l-.1.8-.1 1.1h-.2v.7h-.5v-.8h-.8v-.4h-1.1c.1-.2.1-.5.1-.8 0-1-.5-1.8-1.2-2.3v-.9h-.4l-.5-10-.2-5.3.6.3-.4-.4c.6-.2 1-.8 1-1.4 0-.6-.3-1.1-.8-1.3.4.3.6.7.6 1.2 0 .8-.6 1.4-1.3 1.4-.7 0-1.3-.6-1.3-1.4 0-.5.3-1 .6-1.2-.5.2-.8.8-.8 1.3 0 .7.4 1.2 1.1 1.4l-.4.4.6-.3-.2 5.3-.5 10h-.4v.9c-.7.5-1.2 1.3-1.2 2.3 0 .3 0 .5.1.8h-1.1v.4h-.8v.8h-.5v-.7h-.1l-.1-1.1-.1-.8c.1 0 .1-.1.1-.2s-.1-.2-.2-.2-.2.1-.2.2.1.1.1.2l-.1.8-.1 1.1h-.2v.7h-.1v15.3h-1.6v1.8H199v-2h-.5l-.3-3.4-.2-2.4c.2-.1.4-.3.4-.6 0-.4-.3-.6-.6-.6s-.6.3-.6.6.2.5.4.6l-.2 2.4-.3 3.4h-.5v2.8h.1v20.8h-5.5v-8.2h.4V99h-.5v-1.5h-.4l-.2-2.6-.1-1.8c.2-.1.3-.2.3-.4 0-.3-.2-.5-.5-.5s-.5.2-.5.5c0 .2.1.4.3.4l-.1 1.8-.2 2.6h-.4v.7h-1.7v-.8l-1.8-1h-.5l-1.8 1v.8h-1.7v-.7h-.4l-.2-2.6-.1-1.8c.2-.1.3-.2.3-.4 0-.3-.2-.5-.5-.5s-.5.2-.5.5c0 .2.1.4.3.4l-.1 1.8-.2 2.6h-.4V99h-.5v.5h.4V113h-.4v.5h.4v22.1h-6.3v3.4h-5.7v-32h-10.2l-2-38.7h-1.1v-.5H153v-1.9h-4c-.7-5.1-1.5-8.2-2.4-8.2-.3 0-.5.3-.8.8h-13.3v-.6h-.3v.6h-1.5v-1.3h-.3v1.3h-3.1c-.3-.5-.5-.8-.8-.8-2.2 0-3.9 17.8-3.9 39.7v2.5h-.2V73.5h-.9V53.6h.9V28.8h-5.2V26h-8.5v2.7h-1.6v4.1h-3.4v-3.1H94v3.1h-2.2V64h-1.3v19.5c-4.5.3-8.8 2.3-12.7 5.8-2 16.9-3.5 33.8-2.6 50h-.3v-6.8h-2.3v-9.6H61.4V36.7h-1.5v-2.3h-.7v-2c-.9-.4-1.7-.7-2.6-1v-.7c.1 0 .2.1.3.1v-.4c-9.7-4-18.7-4.3-27 0l.1.5c.1-.1.2-.1.3-.2v.5c-.8.3-1.7.7-2.5 1.1v73.1h-1.7V79.6c-.8.1-1.5.1-2.2.2v-.7c-6.9.6-12.5 1.9-13.6 5.7-.7.9-1.2 2-1.2 3.3v42.6H2.6v9H0v17.6h2.6v.2H9v1.2h17.1v-6h1.7v6h33.5v.4h11.3v-.4h36.1v-.7h15.6v.7H160l-.2-4h5.9v2.8h9v-1.9h1.7v1.9h26.2v-1.9h60.9v.1h118.9V150h4.4v5.3h87.9v-19.6h-6.6zM56.3 31.3c-.2-.1-.4-.1-.5-.2v-.7c.2.1.4.1.5.2v.7zm-13.2-3.5h.5v1h-.5v-1zm.9 0h.7-.2v1H44v-1zm.8.1h.5v1h-.5v-1zm.9 0h.5v1h-.5v-1zm.8.1c.2 0 .4.1.5.1v1c-.2 0-.4 0-.5-.1v-1zm.8.1c.2 0 .4 0 .5.1v1c-.2 0-.4-.1-.5-.1v-1zm.9.2c.2 0 .4.1.5.1v.9c-.2 0-.4-.1-.5-.1v-.9zm.8.1c.2 0 .4.1.5.1v.9c-.2 0-.4-.1-.5-.1v-.9zm.9.2c.2 0 .4.1.7.2h-.1v.9c-.2 0-.4-.1-.5-.1v-1zm.8.2c.2.1.4.1.6.1h-.1v.9c-.2 0-.4-.1-.5-.1v-.9zm.8.2c.2 0 .4.1.5.2v.8c-.2 0-.4-.1-.5-.1V29zm.9.3c.2.1.4.1.5.2v.8c-.2 0-.4-.1-.5-.1v-.9zm.8.2c.2.1.4.1.5.2v.8c-.2-.1-.4-.1-.5-.2v-.8zm.8.3c.2.1.4.1.5.2v.7c-.2-.1-.4-.1-.5-.2v-.7zm.9.3c.2.1.4.1.5.2v.7c-.2-.1-.4-.1-.5-.2v-.7zm-12.1-2.3v1h-.5v-1h.5zm-10.6 2.7v-.7c.2-.1.4-.1.5-.2v.7c-.1.1-.3.1-.5.2zm.9-1c.2-.1.4-.1.5-.2v.7c-.2.1-.4.1-.5.2v-.7zm.8-.3c.2-.1.4-.1.5-.2v.8c-.2 0-.4.1-.5.1v-.7zm.9-.3c.2-.1.4-.1.5-.1v.8c-.2 0-.4.1-.5.1v-.8zm.8-.2c.2 0 .4-.1.5-.1v.9c-.2 0-.4.1-.5.1v-.9zm.8-.2c.2 0 .4-.1.5-.1v.9c-.2 0-.4.1-.5.1v-.9zm.9-.2c.2 0 .4-.1.5-.1v.9c-.2 0-.4 0-.5.1v-.9zm.8-.2c.2 0 .4-.1.5-.1v1c-.2 0-.4.1-.5.1v-1zm.9-.1c.2 0 .4-.1.5-.1v1H39V28zm.8-.1h.5v1h-.5v-1zm.8 0h.5v1h-.5v-1zm.9-.1h.5v1h-.5v-1zm-10.9 2.8c.5-.2.9-.4 1.4-.6v.6c-.5.2-.9.3-1.4.5v-.5zm352 107.3l-.3.7v-.8l.3.1zm-49.9-41.2c.3 1.9 1.4 3 2.9 3.6h-.3v1.6h.5v.6h.1c-1.4 2.3-3.8 3.8-4.1 5.6l-.8-2.2v-5.5h.5v-.8h.5V98h-.7c.5-.4 1-.8 1.4-1.3z"/><path class="st0" d="M207.7 46.6l.9.5-.4.9.8-.7.7.7-.4-.9.9-.5-1 .1-.2-.7v-1.1l-.1 1.1-.1.7zM260.7 122.2h-.1l-.1-1-.1-.7c.1 0 .1-.1.1-.2s-.1-.2-.2-.2-.2.1-.2.2 0 .1.1.2l-.1.7-.1 1h-.1v.8h.7v-.8zM259.4 122.2h-.1l-.1-1-.1-.7c.1 0 .1-.1.1-.2s-.1-.2-.2-.2-.2.1-.2.2 0 .1.1.2l-.1.7-.1 1h-.1v.8h.7v-.8zM254 122.2h-.1l-.1-1-.1-.7c.1 0 .1-.1.1-.2s-.1-.2-.2-.2-.2.1-.2.2 0 .1.1.2l-.1.7-.1 1h-.1v.8h.7v-.8zM252.6 122.2h-.1l-.1-1-.1-.7c.1 0 .1-.1.1-.2s-.1-.2-.2-.2-.2.1-.2.2 0 .1.1.2l-.1.7-.1 1h-.1v.8h.7v-.8zM245.7 122.2h-.1l-.1-1-.1-.7c.1 0 .1-.1.1-.2s-.1-.2-.2-.2-.2.1-.2.2 0 .1.1.2l-.1.7-.1 1v.8h.7v-.8zM244.4 122.2h-.1l-.1-1-.1-.7c.1 0 .1-.1.1-.2s-.1-.2-.2-.2-.2.1-.2.2 0 .1.1.2l-.1.7-.1 1h-.1v.8h.7v-.8z"/></svg>