<?xml version="1.0" encoding="utf-8"?>
<!-- Generator: Adobe Illustrator 20.1.0, SVG Export Plug-In . SVG Version: 6.00 Build 0)  -->
<svg version="1.1" id="Layer_1" xmlns="http://www.w3.org/2000/svg" xmlns:xlink="http://www.w3.org/1999/xlink" x="0px" y="0px"
	 viewBox="0 0 566.9 152" style="enable-background:new 0 0 566.9 152;" xml:space="preserve">
<style type="text/css">
	.st0{fill-rule:evenodd;clip-rule:evenodd; fill: #880000;}
</style>
<g>
	<polygon class="st0" points="498.7,29.4 498.1,30.6 499.2,29.7 500.2,30.6 499.6,29.4 500.8,28.7 499.4,28.8 499.2,27.8
		499.2,26.4 499.1,27.8 498.9,28.8 497.5,28.7 	"/>
	<path class="st0" d="M550.7,129.8v-26.5h0.4l-0.4-0.6h-0.1v-1h0v-0.5h-0.1v-0.4h0.1v-0.5h-0.1v-0.5h0.1l-0.2-1.2h-0.4l-0.2,1.2h0.1
		v0.5H550v0.5h0.1v0.4H550v0.2h-0.5v-1.4h-0.3v-0.2h-0.1V92h0.1v-0.4h0.2v-0.5h-0.2v-0.4h-0.2v-0.3h0.1v-0.3H549v-0.1l-0.1-1.9h0.1
		V88h-0.3l-0.2-1.3l-0.2,1.3H548v0.2h0.1l-0.1,1.9v0.1h-0.1v0.3h0.1v0.3h-0.2v0.4h-0.3v0.3h0v-0.7h-0.4v-0.3h-0.2v-3.3h-0.1V87h0.3
		v-0.4h-0.9v-0.4l0.3-1h0.1V85h0v-0.5h-0.3V85h-0.5v-0.5h-0.3V85H545v-0.5h-0.3V85h-0.5v-0.5h-0.3V85h0v0.1h0.1l0.3,1v0.4h-0.9V87
		h0.3v0.2h-0.1v3.3h-0.2v0.3h-0.4v0.4h-0.2v-0.4h-0.2v-0.3h0.1v-0.3h-0.1v-0.1l-0.1-1.9h0.1V88h-0.3l-0.2-1.3L542,88h-0.3v0.2h0.1
		l-0.1,1.9v0.1h-0.1v0.3h0.1v0.3h-0.2v0.4h-0.2v0.5h0.1V92h0.2v7.6h-0.2v0.2H541v1.4h-0.4v-0.2h-0.1v-0.4h0.1v-0.5h-0.1v-0.5h0.1
		l-0.2-1.2h-0.4l-0.2,1.2h0.1v0.5h-0.1v0.5h0.1v0.4h-0.1v0.5h0v1h-2.7l-0.4,0.4h-16.3v-0.9h-0.2V100h0.3v-0.2h0.1v-0.3h-0.5v-0.3
		h-0.6v-0.4h-0.3v-0.4c0.1-0.1,0.1-0.2,0.1-0.3c0-0.3-0.2-0.5-0.5-0.5c-0.3,0-0.5,0.2-0.5,0.5c0,0.1,0,0.2,0.1,0.3v0.4h-0.3v0.4
		h-0.6v0.3h-0.5v0.3h0.1v0.2h0.3v2.2h-0.2v0.9H514V84.6h0.4v-1h-0.6v-1v-0.7v-0.9h-0.2v-0.7l-0.3,0.7h-0.3v0.9H513v0.7h-0.2v1h-2
		v-0.9h-0.3v-0.6h-0.4v-1.2H510c0-0.1-0.1-0.4-0.1-0.7c0-0.4,0.1-0.9,0-1.1c-0.1-0.2,0-0.4,0-0.5c0-0.1,0.1-0.7,0.1-0.9
		c0-0.2,0.1-0.6-0.1-0.7c-0.1-0.1-0.6-0.1-0.5,0.1c0.1,0.3,0.1,0.6,0.1,0.7c0,0.1-0.1,0.4-0.1,0.5s-0.2,0-0.2,0s-0.1-0.3,0-0.2
		s0.2-0.3,0-0.5c-0.2-0.1-0.6-0.1-0.4,0.2c0.1,0.3,0.2,0.5,0.1,0.5c-0.1,0-0.3,0-0.3,0.3s-0.1,0.5-0.3,0.8c-0.1,0.3-0.2,0.4-0.1,0.5
		c0.1,0.1,0.3,0.4,0.3,0.4s0.1,0.2,0.1,0.3c0,0.1,0,0.1,0,0.2h-0.1v1.2h-0.4v0.6h-0.3v0.9h-0.5V67.3h0.2V67h0.3v-0.5h-0.6v-0.6h-0.1
		v-0.3h0v-0.4h-0.1V65c0.1,0,0.1,0,0.1-0.1v-0.1c0,0-0.1-0.1-0.1-0.1v-0.9c0.1,0,0.1,0,0.1-0.1v-0.1c0-0.1-0.1-0.1-0.1-0.1h-0.1
		c0,0,0.1-0.1,0.1-0.1c0-0.1-0.1-0.2-0.2-0.2c-0.1,0-0.2,0.1-0.2,0.2c0,0.1,0,0.1,0.1,0.1h-0.1c-0.1,0-0.1,0-0.1,0.1v0.1
		c0,0,0.1,0.1,0.1,0.1v0.9c-0.1,0-0.1,0-0.1,0.1v0.1c0,0,0.1,0.1,0.1,0.1v0.2H506v0.4h0v0.3h-0.7v-0.3h0v-0.4h-0.1V65
		c0.1,0,0.1,0,0.1-0.1v-0.1c0,0-0.1-0.1-0.1-0.1v-0.9c0.1,0,0.1,0,0.1-0.1v-0.1c0-0.1-0.1-0.1-0.1-0.1H505c0,0,0.1-0.1,0.1-0.1
		c0-0.1-0.1-0.2-0.1-0.2v-0.2h-0.4v-0.5H504v-0.6h-0.5v-6h0.3v-1.4h-0.3v-0.1h0V54h0v-0.1c0,0,0.1,0,0.1-0.1v-0.1c0,0,0,0-0.1-0.1
		v-0.5c0,0,0.1,0,0.1-0.1v-0.1c0,0,0-0.1-0.1-0.1h-0.1c0,0,0-0.1,0-0.1c0-0.1-0.1-0.1-0.1-0.1s-0.1,0.1-0.1,0.1c0,0,0,0.1,0,0.1
		h-0.1c0,0-0.1,0-0.1,0.1v0.1c0,0,0,0,0.1,0v0.5c0,0-0.1,0-0.1,0v0.1c0,0,0,0,0.1,0V54h0v0.3h0v0.1h-0.4v-0.1h0V54h0v-0.1
		c0,0,0.1,0,0.1-0.1v-0.1c0,0,0,0-0.1-0.1v-0.5c0,0,0.1,0,0.1-0.1v-0.1c0,0,0-0.1-0.1-0.1h-0.1c0,0,0-0.1,0-0.1
		c0-0.1-0.1-0.1-0.1-0.1c-0.1,0-0.1,0.1-0.1,0.1c0,0,0,0.1,0,0.1h-0.1c0,0-0.1,0-0.1,0.1v0.1c0,0,0,0,0.1,0.1v0.5c0,0-0.1,0-0.1,0.1
		v0.1c0,0,0,0,0.1,0.1V54h0v0.3h0v0.1H502v-1h-0.2v-2.1h0.2v-0.4h0.3v-0.6h-0.5v-0.6h-0.3l-1.5-1.5v-0.4h0.5v-1.5l0.7-0.5v-0.6h-1.3
		v-0.6h0.3v-1.6h0.2v-0.4h0.2v-0.2h-0.2h-0.1v-0.2h-0.4l-0.5-10.9l0.9,0.4l-0.5-0.5c0.8-0.3,1.4-1,1.4-2c0-0.8-0.5-1.5-1.1-1.8
		c0.5,0.3,0.9,1,0.9,1.7c0,1.1-0.8,2-1.8,2c-1,0-1.8-0.9-1.8-2c0-0.7,0.4-1.3,0.9-1.7c-0.7,0.3-1.1,1-1.1,1.8c0,0.9,0.6,1.7,1.4,2
		l-0.5,0.5l0.8-0.4l-0.5,10.9H498v0.2h-0.1h-0.2v0.2h0.2v0.4h0.2v1.6h0.3v0.6H497v0.6l0.7,0.5v1.5h0.5v0.4l-1.5,1.5h-0.3v0.6H496
		v0.6h0.3v0.4h0.2v2.1h-0.2v1h-0.2v-0.1h0V54h0v-0.1c0,0,0.1,0,0.1-0.1v-0.1c0,0,0,0-0.1-0.1v-0.5c0,0,0.1,0,0.1-0.1v-0.1
		c0,0,0-0.1-0.1-0.1h-0.1c0,0,0-0.1,0-0.1c0-0.1-0.1-0.1-0.1-0.1c-0.1,0-0.1,0.1-0.1,0.1c0,0,0,0.1,0,0.1h-0.1c0,0-0.1,0-0.1,0.1
		v0.1c0,0,0,0,0.1,0v0.5c0,0-0.1,0-0.1,0v0.1c0,0,0,0,0.1,0V54h0v0.3h0v0.1h-0.4v-0.1h0V54h0v-0.1c0,0,0.1,0,0.1-0.1v-0.1
		c0,0,0,0-0.1-0.1v-0.5c0,0,0.1,0,0.1-0.1v-0.1c0,0,0-0.1-0.1-0.1h-0.1c0,0,0-0.1,0-0.1c0-0.1-0.1-0.1-0.1-0.1s-0.1,0.1-0.1,0.1
		c0,0,0,0.1,0,0.1h-0.1c0,0-0.1,0-0.1,0.1v0.1c0,0,0,0,0.1,0.1v0.5c0,0-0.1,0-0.1,0.1v0.1c0,0,0,0,0.1,0.1V54h0v0.3h0v0.1h-0.3v1.4
		h0.3v6h-0.5v0.6h-0.5v0.5h-0.4v0.2c-0.1,0-0.1,0.1-0.1,0.2c0,0.1,0,0.1,0.1,0.1h-0.1c-0.1,0-0.1,0-0.1,0.1v0.1c0,0,0.1,0.1,0.1,0.1
		v0.9c-0.1,0-0.1,0-0.1,0.1v0.1c0,0,0.1,0.1,0.1,0.1v0.2h-0.1v0.4h0v0.3h-0.7v-0.3h0v-0.4h-0.1V65c0.1,0,0.1,0,0.1-0.1v-0.1
		c0,0-0.1-0.1-0.1-0.1v-0.9c0.1,0,0.1,0,0.1-0.1v-0.1c0-0.1-0.1-0.1-0.1-0.1h-0.1c0,0,0.1-0.1,0.1-0.1c0-0.1-0.1-0.2-0.2-0.2
		c-0.1,0-0.2,0.1-0.2,0.2c0,0.1,0,0.1,0.1,0.1h-0.1c-0.1,0-0.1,0-0.1,0.1v0.1c0,0,0.1,0.1,0.1,0.1v0.9c-0.1,0-0.1,0-0.1,0.1v0.1
		c0,0,0.1,0.1,0.1,0.1v0.2h-0.1v0.4h0v0.3h-0.1v0.6h-0.6V67h0.3v0.3h0.2v16.3h-0.5v-0.9h-0.3v-0.6h-0.4v-1.2H490c0-0.1,0-0.2,0-0.3
		c0-0.2-0.1-0.5-0.1-0.5l0.4-1c0,0-0.2-0.3-0.4-0.5c-0.1-0.2-0.4-0.2-0.5-0.2c-0.1,0,0-0.1,0-0.4c0-0.2-0.2-0.4-0.4-0.2
		c-0.2,0.2,0,0.5,0,0.5s-0.1,0.1-0.2,0.1c-0.1,0-0.4-0.1-0.6,0.4c-0.2,0.4,0.3,0.8,0.3,0.8s0.1,0.1,0.1,0.2c0.1,0.2,0.3,0.3,0.3,0.3
		s-0.1,0.2-0.3,0.4c-0.2,0.1,0,0.2,0,0.2l0,0.1h-0.3v1.2h-0.4v0.4h-0.1v0.2h-0.2v0.9h-2v-1h-0.2v-0.7h-0.1v-0.9h-0.3l-0.3-0.7v0.7
		h-0.2v0.9v0.7v1h-0.6v1h0.4v18.4h-3.3v-0.9h-0.2V100h0.3v-0.2h0.1v-0.3h-0.5v-0.3h-0.6v-0.4h-0.3v-0.4c0.1-0.1,0.1-0.2,0.1-0.3
		c0-0.3-0.2-0.5-0.5-0.5s-0.5,0.2-0.5,0.5c0,0.1,0,0.2,0.1,0.3v0.4h-0.3v0.4h-0.6v0.3h-0.5v0.3h0.1v0.2h0.3v2.2h-0.2v0.9h-16.3
		l-0.4-0.4h-2.7v-1h0v-0.5h-0.1v-0.4h0.1v-0.5h-0.1v-0.5h0.1l-0.2-1.2h-0.4l-0.2,1.2h0.1v0.5h-0.1v0.5h0.1v0.4h-0.1v0.2h-0.4v-1.4
		H457v-0.2h-0.2V92h0.2v-0.4h0.1v-0.5h-0.3v-0.4h-0.2v-0.3h0.1v-0.3h-0.1v-0.1l-0.1-1.9h0.1V88h-0.3l-0.2-1.3l-0.2,1.3h-0.3v0.2h0.1
		l-0.1,1.9v0.1h-0.1v0.3h0.1v0.3h-0.2v0.4h-0.2v-0.4h-0.4v-0.3h-0.2v-3.3h-0.1V87h0.3v-0.4H454v-0.4l0.3-1h0.1V85h0v-0.5h-0.3V85
		h-0.5v-0.5h-0.3V85h-0.5v-0.5h-0.3V85h-0.5v-0.5h-0.3V85h0v0.1h0.1l0.3,1v0.4h-0.9V87h0.3v0.2h-0.1v3.3h-0.2v0.3h-0.4v0.7h0v-0.3
		h-0.2v-0.4h-0.2v-0.3h0.1v-0.3h-0.1v-0.1l-0.1-1.9h0.1V88H450l-0.2-1.3l-0.2,1.3h-0.3v0.2h0.1l-0.1,1.9v0.1h-0.1v0.3h0.1v0.3h-0.2
		v0.4h-0.3v0.5h0.2V92h0.1v7.6h-0.1v0.2h-0.3v1.4h-0.5v-0.2h-0.1v-0.4h0.1v-0.5h-0.1v-0.5h0.1l-0.2-1.2h-0.4l-0.2,1.2h0.1v0.5h-0.1
		v0.5h0.1v0.4h-0.1v0.5h0v1h-0.1l-0.4,0.6h0.4V122h-5.7v6.7h-2.8v-8.5h-6.6v4h-18.2v1.9h-4v-8h-15.9v8h-2.3v3.6h-6.9v-3.6h0.2v-0.8
		H385v-0.6h-4.4V124h-0.4v-1.9h-2.3v-0.3h-2.6v-2.3h-0.8V119h-1.5v-0.5h-1.3v-2.4h-6.6v2.4h-1.3v0.5h-1.5v0.6h-0.8v2.3h-2.6v0.3
		h-2.3v1.9h-0.4v0.8h-4.4v0.6h-0.5v0.8h0.2v3.6h-2.1v-21.9h-0.8v-2.2h0.2v-1.1h-0.4v-0.7l-1.3-5h0.2v-0.6H347v-4h0.3v-0.6H346
		l-1.5-4.3l-1.5,4.3h-1.3v0.6h0.3v4h-0.3v0.6h0.2l-1.3,5v0.7h-0.4v1.1h0.2v2.2h-0.8v2.8h-4V109h0.1l0.2-1c-0.4,0-0.7,0.1-1.1,0.3
		c-0.4-0.1-0.7-0.2-1.1-0.3l0.2,1h0.1v1.6h-1V109h0.1l0.2-1c-0.4,0-0.7,0.1-1.1,0.3c-0.4-0.1-0.7-0.2-1.1-0.3l0.2,1h0.1v1.6h-1V109
		h0.1l0.2-1c-0.4,0-0.7,0.1-1.1,0.3c-0.4-0.1-0.7-0.2-1.1-0.3l0.2,1h0.1v1.6h-1V109h0.1l0.2-1c-0.4,0-0.7,0.1-1.1,0.3
		c-0.4-0.1-0.7-0.2-1.1-0.3l0.2,1h0.1v1.6h-1V109h0.1l0.2-1c-0.4,0-0.7,0.1-1.1,0.3c-0.4-0.1-0.7-0.2-1.1-0.3l0.2,1h0.1v1.6h-1V109
		h0.1l0.2-1c-0.4,0-0.7,0.1-1.1,0.3c-0.4-0.1-0.7-0.2-1.1-0.3l0.2,1h0.1v1.6h-1V109h0.1l0.2-1c-0.4,0-0.7,0.1-1.1,0.3
		c-0.4-0.1-0.7-0.2-1.1-0.3l0.2,1h0.1v1.6h-1V109h0.1l0.2-1c-0.4,0-0.7,0.1-1.1,0.3c-0.4-0.1-0.7-0.2-1.1-0.3l0.2,1h0.1v1.6h-1V109
		h0.1l0.2-1c-0.4,0-0.7,0.1-1.1,0.3c-0.4-0.1-0.7-0.2-1.1-0.3l0.2,1h0.1v1.6h-0.6v-5.8h0.2v-1.7h-0.3l-0.2-1.8l-0.2,1.8H311v0.1
		h-0.4l-1.4-6.1l-1.4,6.1h-0.3v-0.1h-0.1l-0.2-1.8l-0.2,1.8h-0.3v1.7h0.2v5.8h-0.6V109h0.1l0.2-1c-0.4,0-0.7,0.1-1.1,0.3
		c-0.4-0.1-0.7-0.2-1.1-0.3l0.2,1h0.1v1.6h-1V109h0.1l0.2-1c-0.4,0-0.7,0.1-1.1,0.3c-0.4-0.1-0.7-0.2-1.1-0.3l0.2,1h0.1v1.6h-1V109
		h0.1l0.2-1c-0.4,0-0.7,0.1-1.1,0.3c-0.4-0.1-0.7-0.2-1.1-0.3l0.2,1h0.1v1.6h-1V109h0.1l0.2-1c-0.4,0-0.7,0.1-1.1,0.3
		c-0.4-0.1-0.7-0.2-1.1-0.3l0.2,1h0.1v1.6h-1V109h0.1l0.2-1c-0.4,0-0.7,0.1-1.1,0.3c-0.4-0.1-0.7-0.2-1.1-0.3l0.2,1h0.1v1.6h-1V109
		h0.1l0.2-1c-0.4,0-0.7,0.1-1.1,0.3c-0.4-0.1-0.7-0.2-1.1-0.3l0.2,1h0.1v1.6h-1V109h0.1l0.2-1c-0.2,0-0.4,0.1-0.6,0.1V78.3h0.5v-0.8
		h0.3v-0.4h-0.3H290V76h-0.6v-0.5h0.6V74h-0.6v-0.5h0.6v-1.2h0.4v-3.1H290l-0.4-3.3l-0.2,1.4l-0.9-6.6l-0.9,6.6l-0.2-1.4l-0.4,3.3
		h-0.5v0.7l-1.3-0.6h-0.8v-5.4h-1v-8.8h-0.2l-0.5-5.8l-0.2,3.1H282V48h0.3v-2.1h0.4v-2.7h-0.4V37h0.3l-0.4-5.6l-0.3,3.2l-1-3h-0.4
		l-0.2-2.8l-0.2,2.8h-1.8l-4.1-26.9l2.1,1.7l-1-2.5l2.2-1.5l-2.7,0.1L274.1,0l-0.7,2.6l-2.7-0.1l2.2,1.5l-1,2.5l2.1-1.7l-4.1,26.9
		h-1.8l-0.2-2.8l-0.2,2.8h-0.4l-1,3l-0.3-3.2l-0.4,5.6h0.3v6.2h-0.4v2.7h0.4V48h0.3v4.3h-0.5l-0.2-3.1l-0.5,5.8h-0.2v8.8h-1v5.4
		h-0.8l-1.3,0.6v-0.7h-0.5l-0.4-3.3l-0.2,1.4l-0.9-6.6l-0.9,6.6l-0.2-1.4l-0.4,3.3h-0.5v3.1h0.4v1.2h0.6V74h-0.6v1.4h0.6V76h-0.6
		v1.2h-0.2h-0.3v0.4h0.3v0.8h0.5v32.3H258V109h0.1l0.2-1c-0.4,0-0.7,0.1-1.1,0.3c-0.4-0.1-0.7-0.2-1.1-0.3l0.2,1h0.1v1.6h-1V109h0.1
		l0.2-1c-0.4,0-0.7,0.1-1.1,0.3c-0.4-0.1-0.7-0.2-1.1-0.3l0.2,1h0.1v1.6h-1V109h0.1l0.2-1c-0.4,0-0.7,0.1-1.1,0.3
		c-0.4-0.1-0.7-0.2-1.1-0.3l0.2,1h0.1v1.6h-1V109h0.1l0.2-1c-0.4,0-0.7,0.1-1.1,0.3c-0.4-0.1-0.7-0.2-1.1-0.3l0.2,1h0.1v1.6h-1V109
		h0.1l0.2-1c-0.4,0-0.7,0.1-1.1,0.3c-0.4-0.1-0.7-0.2-1.1-0.3l0.2,1h0.1v1.6h-1V109h0.1l0.2-1c-0.4,0-0.7,0.1-1.1,0.3
		c-0.4-0.1-0.7-0.2-1.1-0.3l0.2,1h0.1v1.6h-1V109h0.1l0.2-1c-0.4,0-0.7,0.1-1.1,0.3c-0.4-0.1-0.7-0.2-1.1-0.3l0.2,1h0.1v1.6h-0.7
		v-5.8h0.2v-1.7h-0.3l-0.2-1.8l-0.2,1.8h-0.1v0.1h-0.3l-1.4-6.1l-1.4,6.1h-0.4v-0.1h-0.1l-0.2-1.8l-0.2,1.8h-0.3v1.7h0.2v5.8H234
		V109h0.1l0.2-1c-0.4,0-0.7,0.1-1.1,0.3c-0.4-0.1-0.7-0.2-1.1-0.3l0.2,1h0.1v1.6h-1V109h0.1l0.2-1c-0.4,0-0.7,0.1-1.1,0.3
		c-0.4-0.1-0.7-0.2-1.1-0.3l0.2,1h0.1v1.6h-1V109h0.1l0.2-1c-0.4,0-0.7,0.1-1.1,0.3c-0.4-0.1-0.7-0.2-1.1-0.3l0.2,1h0.1v1.6h-1V109
		h0.1l0.2-1c-0.4,0-0.7,0.1-1.1,0.3c-0.4-0.1-0.7-0.2-1.1-0.3l0.2,1h0.1v1.6h-1V109h0.1l0.2-1c-0.4,0-0.7,0.1-1.1,0.3
		c-0.4-0.1-0.7-0.2-1.1-0.3l0.2,1h0.1v1.6h-1V109h0.1l0.2-1c-0.4,0-0.7,0.1-1.1,0.3c-0.4-0.1-0.7-0.2-1.1-0.3l0.2,1h0.1v1.6h-1V109
		h0.1l0.2-1c-0.4,0-0.7,0.1-1.1,0.3c-0.4-0.1-0.7-0.2-1.1-0.3l0.2,1h0.1v1.6h-1V109h0.1l0.2-1c-0.4,0-0.7,0.1-1.1,0.3
		c-0.4-0.1-0.7-0.2-1.1-0.3l0.2,1h0.1v1.6h-1V109h0.1l0.2-1c-0.4,0-0.7,0.1-1.1,0.3c-0.4-0.1-0.7-0.2-1.1-0.3l0.2,1h0.1v1.6h-1V109
		h0.1l0.2-1c-0.4,0-0.7,0.1-1.1,0.3c-0.4-0.1-0.7-0.2-1.1-0.3l0.2,1h0.1v1.6h-1.3v-2.8h-0.8v-2.2h0.2v-1.1h-0.4v-0.7l-1.3-5h0.2
		v-0.6h-0.3v-4h0.3v-0.6h-1.3l-1.5-4.3l-1.5,4.3h-1.3v0.6h0.3v4h-0.3v0.6h0.2l-1.3,5v0.7h-0.4v1.1h0.2v2.2h-0.8v15.3h-4.4v2.6h-3.5
		v3.9h-2v-1.9h-2v-7.5h-5.5v7.5h-2.9v-8.8h-6.9v10.7h-1.4v-2.2h-4v-1.7h-7.8v-4.8h-7v4h-6l-4.8-34.8l-5.2-1.9l-2.1,0.7v-0.7h-1v1
		l-0.6,0.2v-0.1h-0.8v-0.2h-1.2v0.9l-8.6-0.8l-0.2-1.5h-10.4l-3.5,3.4v30.2H100l-1.3,4.8h-7.1v1.2h-5v-3.2H81v3.2h-5v-1.4h-6.2v-37
		c-0.2-0.6-0.7-1.1-1.5-1.7v0c-0.7-3.5-6.2-7.1-19.7-8.2l-2.2,1.8V82c-1.7-0.2-3.3-0.3-4.9-0.4v43.8h-8.6v2.2h-1.5v-5.7h-9.1v5.7
		h-6.5v-1.9H7v1.9H3.5v2.2H0V152h566.9v-22.3H550.7z M366.6,118.3h-0.7v-1.2h0.7V118.3z M367.7,118.3H367v-1.2h0.7V118.3z
		 M368.7,118.3H368v-1.2h0.7V118.3z M369.8,118.3h-0.7v-1.2h0.7V118.3z M370.9,118.3h-0.7v-1.2h0.7V118.3z M489.7,80.9h-0.2
		c0-0.1,0-0.3,0-0.4c0-0.1,0.1-0.2,0.2,0C489.8,80.6,489.7,80.8,489.7,80.9z"/>
</g>
</svg>
