<?xml version="1.0" encoding="utf-8"?>
<!-- Generator: Adobe Illustrator 20.1.0, SVG Export Plug-In . SVG Version: 6.00 Build 0)  -->
<svg version="1.1" id="Layer_3" xmlns="http://www.w3.org/2000/svg" xmlns:xlink="http://www.w3.org/1999/xlink" x="0px" y="0px"
	 viewBox="0 0 23.5 23.6" style="enable-background:new 0 0 23.5 23.6;" xml:space="preserve">
<style type="text/css">
	.st0{fill:#ff0000;}
</style>
<g>
	<g>
		<path class="st0" d="M11.8,23.6c-3.1,0-6.1-1.2-8.3-3.4C1.2,17.9,0,14.9,0,11.8s1.2-6.1,3.5-8.3C5.7,1.2,8.6,0,11.8,0
			c3.1,0,6.1,1.2,8.3,3.4c4.6,4.6,4.6,12.1,0,16.7C17.9,22.3,14.9,23.6,11.8,23.6L11.8,23.6z M11.8,2C9.2,2,6.7,3,4.9,4.9
			C3,6.7,2,9.2,2,11.8s1,5.1,2.9,6.9c1.8,1.8,4.3,2.9,6.9,2.9s5.1-1,6.9-2.9c3.8-3.8,3.8-10,0-13.8C16.8,3,14.4,2,11.8,2L11.8,2z"/>
	</g>
	<g>
		<path class="st0" d="M9.4,17.6c-0.3,0-0.5-0.1-0.7-0.3c-0.4-0.4-0.4-1,0-1.4l4.1-4.1L8.6,7.6c-0.4-0.4-0.4-1,0-1.4
			c0.4-0.4,1-0.4,1.4,0l4.8,4.8c0.2,0.2,0.3,0.4,0.3,0.7c0,0.3-0.1,0.5-0.3,0.7l-4.8,4.8C9.9,17.5,9.6,17.6,9.4,17.6L9.4,17.6z"/>
	</g>
</g>
</svg>
