<?xml version="1.0" encoding="utf-8"?>
<!-- Generator: Adobe Illustrator 20.1.0, SVG Export Plug-In . SVG Version: 6.00 Build 0)  -->
<svg version="1.1" id="Layer_1" xmlns="http://www.w3.org/2000/svg" xmlns:xlink="http://www.w3.org/1999/xlink" x="0px" y="0px"
	 viewBox="0 0 28.6 10.2" style="enable-background:new 0 0 28.6 10.2;" xml:space="preserve">
<style type="text/css">
	.st0{fill:#ff0000;}
</style>
<g>
	<path class="st0" d="M21.3,7.8c0,0.8,0.7,1.5,1.5,1.5c0.8,0,1.5-0.7,1.5-1.5c0-0.8-0.7-1.5-1.5-1.5C21.9,6.4,21.3,7,21.3,7.8z
		 M21.6,7.8c0-0.6,0.5-1.2,1.2-1.2c0.6,0,1.2,0.5,1.2,1.2c0,0.6-0.5,1.2-1.2,1.2C22.1,9,21.6,8.5,21.6,7.8z"/>
	<path class="st0" d="M4.5,7.8c0,0.8,0.7,1.5,1.5,1.5c0.8,0,1.5-0.7,1.5-1.5C7.5,7,6.8,6.4,6,6.4C5.2,6.4,4.5,7,4.5,7.8z M4.8,7.8
		c0-0.6,0.5-1.2,1.2-1.2s1.2,0.5,1.2,1.2C7.2,8.5,6.6,9,6,9S4.8,8.5,4.8,7.8z"/>
	<path class="st0" d="M0,5.7l0,1.7c0,0.5,0.4,0.8,0.8,0.8l2.7,0.5l0.2,0C4.1,9.6,5,10.2,6,10.2c1,0,1.9-0.7,2.2-1.6h12.3
		c0.3,0.9,1.2,1.6,2.2,1.6c1,0,1.9-0.7,2.2-1.6h2.7c0.5,0,0.8-0.4,0.8-0.8V6.2c0-0.3-0.2-0.6-0.5-0.8c0-0.3-0.2-1.3-1.3-1.6
		c-1.2-0.4-4.8-1.1-5.2-1.2c-0.3-0.2-3.2-2.1-6.1-2.4c-2.8-0.3-6.9-0.3-9.3,0.6c-0.8,0.3-1.5,0.6-2.1,1C2.9,2.4,2,2.9,0.6,2.9
		C0.5,2.9,0.4,2.9,0.4,3V5c0,0,0,0,0,0C0.2,5.1,0,5.4,0,5.7z M0.8,4.9V3.8c0.2,0,0.4,0.1,0.6,0.3c0.3,0.5,0.2,0.7,0.2,0.7
		c0,0.1-0.2,0.1-0.2,0.1H0.8z M27.7,5.4h-1.2L26,4.8c0.4-0.1,1.3-0.2,1.7,0.3C27.7,5.2,27.7,5.3,27.7,5.4z M28.2,6.2v0.5h-1
		c-0.3,0-0.6,0.3-0.6,0.6c0,0.1,0,0.2,0.1,0.2h-1.6c-0.2-1.2-1.2-2-2.4-2c-1.2,0-2.2,0.9-2.4,2h-12c-0.2-1.2-1.2-2-2.4-2
		c-1.2,0-2.2,0.9-2.4,2H0.4c0,0,0-0.1,0-0.1V5.7c0-0.2,0.1-0.4,0.3-0.5h0.7c0.2,0,0.4-0.1,0.5-0.2C2,4.8,1.9,4.5,1.7,4
		C1.4,3.5,1,3.5,0.8,3.5V3.2c1.3,0,2.3-0.5,3.4-1.1c0.6-0.3,1.3-0.7,2.1-1c2.4-0.9,6.4-0.9,9.1-0.6c3,0.3,6,2.4,6,2.4c0,0,0,0,0.1,0
		c0,0,3.9,0.8,5.2,1.2c0.3,0.1,0.5,0.2,0.6,0.3c-0.7-0.2-1.6,0.1-1.6,0.1c-0.1,0-0.1,0.1-0.1,0.1c0,0.1,0,0.1,0,0.2l0.8,0.8
		c0,0,0.1,0,0.1,0h1.4C28.1,5.8,28.2,6,28.2,6.2z M27.4,7.5h-0.2c-0.1,0-0.2-0.1-0.2-0.2C27,7.1,27.1,7,27.2,7h1v0.5H27.4z
		 M25.1,8.3c0-0.2,0.1-0.3,0.1-0.5c0,0,0,0,0,0h2.1h0.2h0.9v0c0,0.3-0.2,0.5-0.5,0.5H25.1z M20.7,7.8c0-1.1,0.9-2.1,2.1-2.1
		s2.1,0.9,2.1,2.1c0,1.1-0.9,2.1-2.1,2.1S20.7,9,20.7,7.8z M8.3,8.3c0-0.2,0.1-0.3,0.1-0.5c0,0,0,0,0,0h12c0,0,0,0,0,0
		c0,0.2,0,0.3,0.1,0.5H8.3z M3.9,7.8c0-1.1,0.9-2.1,2.1-2.1s2.1,0.9,2.1,2.1C8.1,9,7.1,9.9,6,9.9S3.9,9,3.9,7.8z M0.6,7.8h3
		c0,0,0,0,0,0c0,0.2,0,0.3,0.1,0.5H3.6L0.9,7.9C0.8,7.9,0.7,7.9,0.6,7.8z"/>
	<path class="st0" d="M21.1,3.4c0-0.1,0-0.1-0.1-0.2c-0.6-0.4-3.2-1.9-5.6-2.2c-1-0.1-2-0.2-3.1-0.2c-2.3,0-4.5,0.3-5.8,0.8
		C5.7,1.9,5,2.2,4.5,2.5c-0.1,0-0.1,0.1-0.1,0.2c0,0.1,0.1,0.1,0.2,0.1c5.7,0.3,16.3,0.7,16.4,0.7c0,0,0,0,0,0
		C21,3.6,21,3.5,21.1,3.4z M6.6,1.9c0.3-0.1,0.5-0.2,0.9-0.3v1c-0.8,0-1.6-0.1-2.3-0.1C5.6,2.3,6.1,2.1,6.6,1.9z M12.3,1.2
		c0.5,0,1.1,0,1.6,0v1.7c-2-0.1-4.1-0.2-6.1-0.3V1.6C9,1.3,10.6,1.2,12.3,1.2z M20.3,3.2c-1.1,0-3.4-0.1-6.1-0.2V1.3
		c0.4,0,0.7,0.1,1.1,0.1C17.3,1.6,19.3,2.6,20.3,3.2z"/>
	<path class="st0" d="M14.1,3.7c0.1,0,0.2,0.1,0.2,0.2v3.1c0,0.1-0.1,0.2-0.2,0.2c-0.1,0-0.2-0.1-0.2-0.2V3.8
		C13.9,3.7,14,3.7,14.1,3.7z"/>
	<path class="st0" d="M22.3,5.2c-0.1,0-0.1,0-0.1-0.1c-0.4-0.8-0.8-1-0.8-1c-0.1-0.1-0.1-0.2,0-0.2c0.1-0.1,0.2-0.1,0.2,0
		c0,0,0.4,0.3,0.9,1.1C22.4,5,22.4,5.2,22.3,5.2C22.3,5.2,22.3,5.2,22.3,5.2z"/>
	<path class="st0" d="M7.7,3.3c0.1,0,0.2,0.1,0.2,0.2v1.4C8.2,5.1,9,5.6,9.2,6.9C9.2,7,9.2,7,9.1,7.1c0,0,0,0,0,0
		C9,7.1,8.9,7,8.9,6.9C8.7,5.6,7.7,5.2,7.6,5.2C7.5,5.2,7.5,5.1,7.5,5V3.5C7.5,3.4,7.6,3.3,7.7,3.3z"/>
</g>
</svg>
