<svg id="Layer_1" xmlns="http://www.w3.org/2000/svg" xmlns:xlink="http://www.w3.org/1999/xlink" viewBox="0 0 2763.8 3005.9"><style>.st0{fill:#c9c9c9}.st1{fill:#ededed}.st2{fill:url(#SVGID_1_)}.st3{fill:url(#SVGID_2_)}.st4{fill:#8a1812}.st5{fill:#d41216}.st6{fill:url(#SVGID_3_)}.st7{fill:#414244}.st8{fill:#020203}.st9{fill:#b3b2b2}.st10{fill:#d1d2d4}.st11{fill:#e52629}.st12{fill:#939599}.st13{fill:#fff}.st14{fill:#edf7fb}.st15{fill:#aeafb1}.st16{fill:#f28f40}.st17{fill:#b58331}.st18{fill:#f6a64e}.st19{fill:#d1d2d4}.st19,.st20,.st21,.st22{clip-path:url(#SVGID_5_)}.st20{fill:#b3b2b2}.st21{fill:#020203}.st22{fill:#939599}</style><path class="st0" d="M1381.8 3005.9c-185.7 0-365.9-36.3-535.7-107.8-164.1-69.1-311.5-168-438.3-294C147 2345 2.2 1999.7 0 1632.1c-1.1-186.5 34.4-367.7 105.5-538.6 68.6-165 167.4-313.3 293.5-440.9C525.1 525 672.3 424.5 836.5 353.9c170-73.1 350.8-110.7 537.3-111.8h8.2c185.7 0 365.9 36.3 535.7 107.8 164 69.1 311.5 168 438.3 294 260.8 259.2 405.6 604.4 407.7 972.1 1.1 186.5-34.4 367.7-105.5 538.6-68.7 165-167.4 313.3-293.5 440.9-126.1 127.6-273.3 228.1-437.5 298.7-170 73.1-350.8 110.7-537.3 111.8-2.7-.1-5.4-.1-8.1-.1zm-420-696.7c125.7 77 271.2 118.6 420 118.6h4.8c443.2-2.6 801.7-365.3 799.1-808.5-.4-71-9.9-140.6-28.3-207.8-485.6 260.2-948.6 664.9-1195.6 897.7zm415.4-1489c-214.7 1.2-416.1 86-567 238.7-150.9 152.7-233.4 355-232.1 569.8.3 53.8 5.8 106.8 16.5 158.6 247-234 650.1-572.2 1177.9-865.8-118.6-66-253-101.3-390.5-101.3h-4.8z"/><path class="st1" d="M1381.8 2986.3c-185.7 0-365.9-36.3-535.7-107.8-164.1-69.1-311.5-168-438.3-294C147 2325.3 2.2 1980.1 0 1612.4c-1.1-186.5 34.4-367.7 105.5-538.6 68.6-165 167.4-313.3 293.5-440.9 126.1-127.6 273.3-228.1 437.5-298.7 170-73.1 350.8-110.7 537.3-111.8h8.2c185.7 0 365.9 36.3 535.7 107.8 164 69.1 311.5 168 438.3 294 260.8 259.2 405.6 604.4 407.7 972.1 1.1 186.5-34.4 367.7-105.5 538.6-68.7 165-167.4 313.3-293.5 440.9-126.1 127.6-273.3 228.1-437.5 298.7-170 73.1-350.8 110.7-537.3 111.8h-8.1zm-420-696.7c125.7 77 271.2 118.6 420 118.6h4.8c443.2-2.6 801.7-365.3 799.1-808.5-.4-71-9.9-140.6-28.3-207.8-485.6 260.2-948.6 664.8-1195.6 897.7zm415.4-1489c-214.7 1.2-416.1 86-567 238.7-150.9 152.7-233.4 355-232.1 569.7.3 53.8 5.8 106.8 16.5 158.6 247-234 650.1-572.2 1177.9-865.8-118.6-66-253-101.3-390.5-101.3l-4.8.1z"/><linearGradient id="SVGID_1_" gradientUnits="userSpaceOnUse" x1="410.869" y1="8047.33" x2="1335.969" y2="7271.186" gradientTransform="rotate(34.725 9518.306 6101.484)"><stop offset="0" stop-color="#ededed"/><stop offset=".533" stop-color="#767679"/><stop offset="1" stop-color="#ededed"/></linearGradient><path class="st2" d="M2610.1 2216.4c-166.2-90.6-328.9-187.8-486.3-293-21.5 52.8-48.7 103.5-81.5 151.4-250.3 365.7-751.5 459.6-1117.3 209.3l-3.9-2.7c-105.4-73-191.2-170-250.9-281.7-85 104.5-180.2 201.9-286 285.5-48.6 38.4-99 74.7-150.6 109.3 95.7 141.8 216 263.5 358.1 362 2.2 1.6 4.5 3.1 6.8 4.6 153.9 105.4 323.9 177.4 505.3 214.2 175.1 35.5 353.3 36.8 529.7 3.7 176.4-33 342-98.7 492.4-195.2 155.8-100 288.1-228.7 393.5-382.6 39.2-57.2 73.7-116.7 103.5-178-4.3-2.2-8.5-4.5-12.8-6.8z"/><linearGradient id="SVGID_2_" gradientUnits="userSpaceOnUse" x1="-199.463" y1="6175.292" x2="451.247" y2="5665.7" gradientTransform="rotate(34.772 8870.678 5039.616)"><stop offset="0" stop-color="#ededed"/><stop offset=".533" stop-color="#767679"/><stop offset="1" stop-color="#ededed"/></linearGradient><path class="st3" d="M2121.6 1261.6c16.9-17 33.6-34.2 50-51.6 87.3-98.5 168.1-202.7 243.2-310.7 26-37.4 59.2-67.3 96.6-89.4-92.4-130.6-206.3-243.2-339.4-335.6-2.2-1.6-4.5-3.1-6.7-4.6-153.8-105.5-323.8-177.7-505.1-214.6-175.1-35.7-353.3-37.1-529.7-4.2-176.3 32.8-342 98.3-492.5 194.7C482.2 545.4 349.6 674 244.2 827.8c-27.9 40.7-53.4 82.6-76.7 125.5 23.3 8.8 45.9 20.4 67.1 35.1l416.8 289.4c19.4-42.7 42.6-83.7 69.5-123 121.4-177.1 304.5-296.3 515.6-335.6 211.1-39.3 424.8 5.9 601.9 127.3l3.9 2.7c107.6 74.7 194.6 174.2 254.3 288.8 8.9 7.4 17.2 15.3 25 23.6z"/><path class="st4" d="M1374.5 349.2C669.7 353.3 101.8 927.9 105.9 1632.7c4.1 704.7 578.7 1272.7 1283.5 1268.6 704.7-4.1 1272.7-578.7 1268.6-1283.5-4.2-704.7-578.8-1272.7-1283.5-1268.6zm2.1 366.4c228.1-1.3 437 81.4 597.5 219.2-702.3 361.7-1204.6 822.8-1428.2 1049.6-46.7-108.6-72.9-228.1-73.6-353.8-3-502.4 401.9-912.1 904.3-915zm10.6 1819.3c-224.6 1.3-430.7-79-590.2-213 252.2-246.4 824.4-768.4 1419.7-1058.4 47.4 109.3 74 229.8 74.8 356.5 3 502.3-401.9 912-904.3 914.9z"/><path class="st5" d="M1374.5 328.4C669.7 332.5 101.8 907.1 105.9 1611.8c4.1 704.7 578.7 1272.7 1283.5 1268.6 704.7-4.1 1272.7-578.7 1268.6-1283.5-4.2-704.7-578.8-1272.6-1283.5-1268.5zm2.1 366.4c228.1-1.3 437 81.4 597.5 219.2-702.3 361.7-1204.6 822.8-1428.2 1049.6-46.7-108.6-72.9-228.2-73.6-353.8-3-502.5 401.9-912.1 904.3-915zm10.6 1819.2c-224.6 1.3-430.7-79-590.2-213 252.2-246.4 824.4-768.4 1419.7-1058.4 47.4 109.3 74 229.8 74.8 356.5 3 502.4-401.9 912-904.3 914.9z"/><linearGradient id="SVGID_3_" gradientUnits="userSpaceOnUse" x1="-452.633" y1="6577.815" x2="874.601" y2="5272.827" gradientTransform="rotate(34.772 8870.678 5039.616)"><stop offset="0" stop-color="#d41216"/><stop offset=".064" stop-color="#cf1317"/><stop offset=".14" stop-color="#c21519"/><stop offset=".22" stop-color="#ad171a"/><stop offset=".305" stop-color="#91181a"/><stop offset=".392" stop-color="#701518"/><stop offset=".479" stop-color="#4b0f11"/><stop offset=".484" stop-color="#4e1012"/><stop offset=".544" stop-color="#6e1518"/><stop offset=".607" stop-color="#8b171a"/><stop offset=".673" stop-color="#a4171a"/><stop offset=".741" stop-color="#b9161a"/><stop offset=".815" stop-color="#c81418"/><stop offset=".896" stop-color="#d11217"/><stop offset="1" stop-color="#d41216"/></linearGradient><path class="st6" d="M1896.3 855.1c120.9 82.9 215.4 189.8 281.7 309.9 119.3-43.4 242.8-68.8 368.2-82.2-92.7-207.1-241.8-392.1-442.7-529.9C1522.3 154.3 728 302.4 329.4 883.6c-80 116.6-137.9 241.8-174.7 370.6 128 5.3 256.1 9.6 384.2 8.7 24.2-59.4 55-117.1 92.7-172.1C915.7 676.5 1481.9 571 1896.3 855.1z"/><path class="st7" d="M1635.4 49.6c.3-7.9 3.5-19.7-1-26.7-6.3-10-16-14.8-27.2-13.3-25.5 3.4-53.9 2.8-78 13.1-12.3 5.3-24.3 20.4-38.5 18.8-8.7-.9-17.5-1.9-26.2-2.8-7.2-.8-14.4-1.5-21.6-2.3-11.1-1.2-18.7 12.5-25.5 19-11.5 11.1-22.9 25.6-36.5 34.1-13.5 8.4-23.4-11-30.7-19.5-11.1-12.9-25.8-21.5-41.1-9.4-6.1 4.8-10.5 11.3-16.1 16.6-5.7 5.5-12.8 5.3-19.6 8.7-15.4 7.9-24.7 23.3-39.8 31.6-16.4 9-21.7 20.1-27.6 37.1-5.5 15.8-17.2 17.6-32.4 17.9-16.1.2-20.1 13.4-24.6 26.5-2.6 7.5-2.5 6.5 4 10.2 16.3 9.4 32.6 18.9 48.9 28.3 7.3 4.2 12.8 10.1 19.7 14.7 15.5 10.5 23-1.3 34.1-10.6 12.4-10.3 26-14.6 40.1-5 11.3 7.7 21.1 15.1 33.9 20.3 1.1-7.5 2.4-14.8 1.3-22.5-1.9-13.4-9.5-26.8-7.6-40.6 1.6-11.9 13.8-11.9 20.8-4.8 4.9 5 8.2 11.5 11.8 17.5 10.6-9.3 18-20.4 27.6-30.6 15.8-16.7 43.6-8.9 62.6-3.1 9 2.8 17.8 5.9 26.5 9.6 5.3 2.3 5.4 3.6 7.9-1.7 8.7-18 10.9-36.5 24.5-52.1 6.2-7.2 13.3-13.7 20.6-19.7-1.6 1.2 16.9 12.3 19.4 12.6 14.9 1.6 22.5-19.5 31.8-27.9 12.2-11.1 24.8-21.6 36.8-32.9 8.5-7.8 10.3-11.8 21.7-11.1z"/><path class="st8" d="M1216.5 206.5c-15.5.7-29.4-13.7 18.1-30.9 47.6-17.2 30.5-43.6 45.4-44.3 14.9-.7 22.2-8.4 40.9-6.4s15.9 4.6 47.7-12.2c31.8-16.9 57.4-25.6 67.6-26.5 10.2-1 51.3-12 51.3-12s-26.7 32.1-26.1 48.4c.6 16.3-27.6-7.5-27.6-7.5s-30.5 3.1-47.6 14.6-26.9 24.5-42.7 25.8c-15.9 1.1-82.2 48.9-127 51z"/><path class="st9" d="M1185.5 192.4s12.2 23.4 20.9 2.2c8.8-21.2 26-48.1 26-48.1s11.3-7.6 10.1 1.1c-1.2 8.7 37.3 32.4 37.3 32.4s18.9 41.9-3.4 31.9c-22.3-10-26.4-12.6-35.1-24.6-8.7-12 10.4-9.8 10.4-9.8s-44.4-11.2-54-5.7c-9.5 5.4-33.1 18.4-12.2 20.6z"/><path class="st10" d="M1282.2 158.4c-1.2-.1-16 4.4 11.6-11.2s25.1-33.7 45.8-20.4c20.7 13.3 59.9 4.7 69.3-14.5 3.6-7.3 7.8-13.3 12.4-17.7 7.4-7.1 15.9-10.4 25-9.5 5.5.6 16.5-2.5 28.7-6.7 20.8-7.1 58.2-4.6 63.2-9.9 27.5-29.4 74.1-52.8 37.4-19.1-36.7 33.7-72.2 48.2-91.5 56.2-19.3 8-13.9 37.2-22.2 33.1-8.2-4.1 10-33.3-7.2-36.2-17.2-2.9-25.2-1-30.4 11.4-5.2 12.5-4.4 32.5-19.2 33.1-14.8.7-33.6 4.8-50 6.6-16.5 1.9-48.1 8.3-48.1 8.3l-24.8-3.5z"/><path class="st11" d="M1256 143.2c-36.3 26.6 24-38.1 24-38.1s18.5-7.8 16.2 17.2c-2.5 25-2.2-6.8-40.2 20.9z"/><path class="st10" d="M953.8 1134.3c23.5-47.7 69-111.2 82.3-129.5l1.3-1.9v-8.8c0-7.9.1-15.7.2-23.5.4-18.4 1.2-37.4 2.5-57.8l1.1-18.1-13.1 12.5c-32.7 31.1-113.6 115.5-158.9 225.3l-3.4 6.1 1.4 1.6c.3 14.2 12.6 56.7 112.5 158l1.9 1.6 3.7 4.8c-40.2 33.8-38 66.9-37.9 68.4l.2 2-1.7-.9c-12-6.3-27.1-9.7-43.7-9.7-12.7 0-21.5 1.9-22.6 2.2-5.9 2.2-16.4 7.4-19.7 16.7-1.3 3.6-1.1 6.8-.9 8.9l.9 7.4 7.3-1.2c2.1-.3 4.3-.5 6.5-.5 1.6 0 3.2.1 4.9.2-7.1.5-13.2 2-18.2 4.3-7.2 3.3-12.2 8.6-14.7 15.6-2.4 6.7-2 14.7 1.3 22.4l2.4 5.7s7.4-1.9 8.1-2.1c-7.1 2.7-12.5 6.6-16 11.5-3.9 5.4-5 12.6-2.9 20.1l1.2 4.7 4.8.5c20.5 2.4 41.2 3.6 61.6 3.6 30.5 0 51.8-2.7 59.5-3.8l2.1-.3 1.6-1.4c93.1-81.9 94.1-145.6 94-149.4-10.7-68.7-84.5-162.5-113.6-197.2l4 2z"/><path class="st10" d="M1487.8 1313.4l.2 1.1c2.4 11.3 5 22.4 8.3 34.5 11.8 26.1 38.2 66.4 97.1 109.9l1.7 1.3 2.1.1c10.4.7 21.8 1 33.1 1 34.7 0 78.7-3 91.2-17.1 2.8-3.2 3.7-6.7 3-10.7-1.3-6.5-4.7-11.4-10.5-15-3.6-2.3-7.9-4-13-5.1 1.3 0 2.5.1 3.7.3l6.4.7 1.3-6.3c1.5-7.3.6-14.4-2.8-20.5-5.2-9.5-15.6-15.8-27.8-17.1-2.6-.3-5.4-.4-8.6-.4-2.4 0-5 .1-7.9.2 4.9-1.3 9.6-2 13.9-2 .9 0 1.9 0 2.8.1 1.1.1 2.2.4 3.3.7l11.3 2.6-.6-9.6c-.2-2.9-1-5.6-2.4-8-4.4-8-14.6-14.2-25.4-15.5-3.1-.4-6.3-.5-9.6-.5-17.7 0-36.6 5.4-50.6 14.3l-.9.5c-7.5-21.3-18.6-42.3-32.4-61.1l-4.6-12.3c60.9-77.1 70.9-128.6 71.4-153.4v-.7l-.1-.7c-18.3-109.8-116.5-214.9-157.6-254.7l41-188.1c21.2-39.6 41.8-97.9 29-126.2-1.9-4.2-4.9-8.8-9.9-12.3l10.1-2.3-27.6-8.6c19.3-63.1 36-129.3 49.6-196.9l60.8-276.1-50.7 29.8c-39.2 60.5-82.5-9.4-105.6 91.8-.5 2-62.4-18.8-87.2-9.9-10.2 3.7-22.3 30.2-34.5 34.3-13.5 4.6-17.2-20.6-31.6-15.9-15 4.9 12.4 62.2-1.9 66.6-15.8 4.9-47-22.4-59.6-18.8-22.3 6.4-28.7 24.6-30.4 23.6-45.8-27.2-70.9-39-91-54.3l-27 80.6-2.8 16.1c-5.4 30.7-11.6 66.4-17 101.6-14.1 91.3-27.7 189.5-31.7 289.6l3.4.1c-17.8.9-32.4 13.3-40.2 34.5-11.4 30.8-6.4 76.8 19.4 108.4l-.3 2.5c-4.9 49.2-7.4 88.3-8.3 130.8-2.9 124.7 9.6 258.2 37.1 396.5 15.1 75.7 34.2 151.8 52.7 225.6 33.4 132.7 67.9 269.9 79.6 409.4 3.9 46.2 6.5 95.7-1.1 145.7 1.1 50.1 108.9 90.8 240.2 90.8 151.1 0 205.5-44.8 205.5-89.2 0-212.3-16.8-423.3-111.3-658.9-15.3-38.1-34.6-88.6-48.9-142.7-3.1-7.2-5.2-13.2-6.8-18.8-.8-2.9-1.6-6.4-1.9-8.9.1-.9.7-6.5.7-6.5l-1.2-5.5c-.7-3.1-1.4-6.3-2-9.5-19.8-106.2-24.1-217.4-12.8-330.6l4.8 4c27.3 22.8 66.4 67.5 97.3 151l.6 1.5c-22.8 33.7-76.6 119.3-84.5 187.7v.9z"/><path class="st12" d="M1146 947.7s32.4 104.7 123.5 59.7c0 0 48.1-34.6 65.9-92.1.1-.1-109.8 108.8-189.4 32.4z"/><path class="st13" d="M1258 2130.4c6.2-179.9-28.9-359.2-72.5-532.9-23.9-95.2-52.1-189.7-68.6-286.5-13.9-81.5-23.9-163.7-29.8-246.1-2.9-39.2-6.6-79.2-5.6-118.5.7-26.2 10.9-59.6-.2-84.5 0 0-73.4-165.1 19.2-154.7 13.7-127.6 54.9-354.8 78-480.8-13.7-8.3-27.5-7.8-35-17.6l-26.2 78.5-2.8 16.1c-5.4 30.7-11.6 66.4-17 101.6-14.1 91.3-27.7 189.5-31.7 289.6l3.4.1c-17.8.9-32.4 13.3-40.2 34.5-11.4 30.8-6.4 76.8 19.4 108.4l-.3 2.5c-4.9 49.2-7.4 88.3-8.3 130.8-2.9 124.7 9.6 258.2 37.1 396.5 15.1 75.7 34.2 151.8 52.7 225.6 33.4 132.7 67.9 269.9 79.6 409.4 3.9 46.2 6.5 95.7-1.1 145.7.9 41.3 74.5 76.3 174 87.2-5-7.9-8.2-13-8.2-13s-118-31.2-115.9-91.9z"/><path class="st13" d="M1188.8 917.1c-15.7-3.3-31.2-3.5-28.7 11.3 1.9 11.2 20.5 17.7 29.8 20.7 35.5 11.5 74.1-5 101.9-27.2-30.6 8.5-51.1 8.2-75.1 2.8-4.7-1.1-16.3-5.2-27.9-7.6zm-325.7 471s14.8-35.5 102.1 7.8c0 0-1.6-57.3 37.7-93.4 0 0-79.3-94.2-115.4-164.1 0 0 58.8-132.2 152.6-223.2l1.2-20.5s-131.1 113.4-174.3 235c0 0-14.6 45.6 112.8 168.4 0 0-37.4 31.7-33.5 68.6 0 .2-91-21.2-83.2 21.4z"/><path class="st12" d="M1553.9 555.1c-1.9-4.2-4.9-8.8-9.9-12.3l-17.5-10.9c19.3-63.1 36-129.3 49.6-196.9l53.7-279-72.8 65.6c-5 56.8-9.9 74.5-32.9 223-15.9 120.3-33.8 181.3-37 183.1-26.9 15.3-24.2 39.1-24.2 39.1 82.3-14.7 9.7 131.1 9.7 131.1-19.6 105.4-37.5 125.9-37.5 125.9l48.9 45.6 41-188.1c21-39.6 41.6-97.9 28.9-126.2z"/><path class="st9" d="M1618.5 1423.9s46.2-42.2 96.4-28.8l-2.6 12.8s-49-2.3-93.8 16zm-12.5-38s35.9-54.4 91.6-34l-1.3 14.7s-43.8-8.7-90.3 19.3zm-660.7 60.9s-53.1-33.3-97.1-22.8l-1.1 16.6c.1-.1 43.1-14.4 98.2 6.2z"/><path class="st8" d="M1637.9 2189.3s.4-4.5.9-12.3c.6-7.8 1-19 1.6-32.5.3-6.7.3-14 .5-21.8.1-7.7.4-15.8.3-24.3-.1-8.4-.1-17.1-.2-26 0-8.9-.5-17.8-.8-26.8-.3-9-.7-18-1-26.8-.4-8.9-1.2-17.5-1.8-26-.6-8.4-1.2-16.5-1.8-24.3-.4-7.7-1.4-15-2.1-21.7-3-26.8-5-44.7-5-44.7s2.4 17.9 6 44.6c.9 6.7 2 13.9 2.6 21.6.8 7.7 1.5 15.8 2.3 24.2.8 8.4 1.8 17.1 2.4 25.9.6 8.9 1.1 17.9 1.6 26.9s1.3 18 1.4 26.9c.3 8.9.6 17.6.8 26 .4 8.4.2 16.6.3 24.4 0 7.7.1 15.1 0 21.8-.3 13.5-.5 24.8-.9 32.7-.3 7.9-.6 12.4-.6 12.4l-6.5-.2z"/><path class="st12" d="M1037.5 1002.9l-2.4-22.3c-59.7 40.8-101.8 138.1-101.8 138.1 100.8 117.7 112.8 207.4 112.8 207.4-15.7 65.9-95.4 130.3-95.4 130.3l-104.9 12.5-6.9 4.7c25.1 11 130.3 3.1 130.3 3.1 90.3-71.4 94.5-151.5 94.5-151.5-13.3-81.8-109.8-190.9-109.8-190.9 18.3-41 83.6-131.4 83.6-131.4zm564.3 453.5c136.6 9.8 119.3-33 119.3-33-7.9 26.7-108.3 14.1-108.3 14.1-76.9-40.8-103.6-128.7-103.6-128.7-1.6-58.1 79.1-199.5 79.1-199.5-44.9-119.5-139-167.8-139-167.8 75.1 42.4 123.1 183.1 123.1 183.1-63.3 76.7-86.2 176-87.7 182.9l-2.1-10.2c-19.5-104.6-24-214.1-13.3-325.6 2.4-25.4-20-30.2-55.4-39-.9-.2-21.7 109.6-22.5 119.1-17.5 191.4 35.4 341 86.3 506.4 44.7 145.2 94.3 292 107.9 444.2 20.1 225.6-87.7 222.1-87.7 222.1 1.5 3.8 3.3 7.2 5 10.7 116.1-9.8 148.9-20 150.5-58.7 9.3-218.1-16.3-451.6-110.8-687.2-23.2-57.8-44.6-117.8-57.3-179 35.3 112.1 116.5 146.1 116.5 146.1z"/><path class="st12" d="M1545.5 1263.6l24.6 15.8s79.2-114.6 74.2-160.6c0 0-65.7-190.2-197.6-284.1 0 0 132 153.8 171.9 287.2-.1.1-21.4 57.4-73.1 141.7z"/><path class="st13" d="M1448.9 650.9c-5.6-5.2-24.3-7.6-26.2-7.4-36 4.7-75.4 42.8-101.5 68l-10.6 10.2c-38.5 37-82.2 79-139 86.5-3.9.5-8 .8-12.4.8-16.9 0-33.6-3.7-45.8-10.2l-9.5 10.3c4 5.6 13.6 17.8 13.6 17.8 8.8 6.4 23.3 25.1 23.3 25.1 23.8 21.6 49.2 32.5 75.4 32.5 16 0 32.6-4 49.3-12 5.2-2.5 11.1-5.5 18.7-9.3 35-17.6 87.9-44.3 130.5-44.3 1.7 0 3.4 0 5.1.1l3.7.2 2.3-2.9c20.2-25 32.7-56.6 37.3-93.9l1.4-10.9s.6-45.6-15.6-60.6z"/><path class="st8" d="M1475 711.1c.8-10.9 1.9-48.1-18.2-67-8.7-8.2-20.2-11.5-33.3-9.8-38.5 5.1-76.9 43-105 70.7l-10.4 10.2c-36.9 36-78.6 76.9-131.4 84-17.1 2.3-43-1.2-57.3-12.1-5.6-4.3-8.9-9.3-10.3-15.2 4.1-5 8.9-9.7 14.9-14.3-39.8-3.8-57.1 44.4-36.1 73.8 1.6-11.5 3.4-21.9 6.4-31.5 29.1 45.9 70.3 94.1 127.1 94.1 16.3 0 33.9-4 52.9-13.2 5.4-2.6 12-5.2 18.6-9.4 93.5-58.6 167.4-46.6 167.4-46.6-6.1-4.6-12.8-7.7-19.9-9.8 19.8-28.2 31.5-63 34.6-103.9zm-52.7 100.7c-44.5-2.4-100.1 26-136.9 44.9-6.8 3.5-12.9 6.6-18.2 9.2-46.9 22.7-84.3 8.6-114.6-19.3 64.8 21.7 143.8-24.5 196-66-37.9 26.6-75.8 50.9-122 59.6-24.1 3.3-71.1.3-97.4-19.2-4.1-5.2-8-10.6-11.8-16.1 18.7 10.2 43.9 12.6 61.5 10.3 58.2-7.8 102-50.7 140.7-88.5l10.4-10.2c24.9-24.6 62.7-61.7 95.7-66.1 8.3-1.1 14.8.7 19.9 5.5 11 10.4 14 32.9 13.2 50.4-16.7 11.3-66.2 45.3-72.6 51 23.1-14.2 45.5-27.8 71.2-35.8-4.3 35.9-16.1 66.3-35.1 90.3z"/><path class="st13" d="M1469.1 438.8c-36 27-124.9 96.2-174.3 79.8-16.6 84.1 53.5 110.4 113.6 59.1 44.6-38.1 63.4-95.6 76.5-150.7-5.1 3.8-11.3 7.2-15.8 11.8z"/><path class="st13" d="M1304.7 619.6c9.1 20.1 49.8 15 65.9 10.8 9.8-2.5 60.8-19.6 52.2-36.7 0-.1-4.7-10.1-18.1 0-17.2 13-47.3 24.9-69.4 22.6-10.5-1.1-22.1-4.4-32.2-1.9.4 2 .9 3.7 1.6 5.2zm-1.5-192.7c-.9-1.4-11.4 15.4-11.8 16.8-10.6 40.5 34.9 41.5 58.9 31.7 41-16.9 70.1-53.2 110.8-70.9-27.7 9.9-136.8 56.8-157.9 22.4z"/><path class="st8" d="M1392.4 547c0 18.9-14.4 34.3-32.1 34.3-17.7 0-32.1-15.3-32.1-34.3 0-18.9 14.4-34.2 32.1-34.2 17.7-.1 32.1 15.2 32.1 34.2z"/><path class="st13" d="M1392.4 529.9c0 9.4-7.2 17.1-16 17.1-8.9 0-16-7.7-16-17.1 0-9.5 7.2-17.1 16-17.1 8.8-.1 16 7.6 16 17.1z"/><path class="st14" d="M1325.3 536.1s-10.5 61.4 38.2 53.2c0 0-65.4 19-54.9-53.2h16.7z"/><path class="st8" d="M1295.2 621.1c14.7 61.3 87.7 39.8 113 0-40.1 18.9-76.6 37-113 0zm4.9-21.2c13.9 14.4 32.5 16.9 43.7 16.9 5.4 0 9-.6 9.6-.7 117.3-24.4 140.5-183.8 141.4-190.6l3.1-22.4-16.7 15.3c-36.4 33.4-121.1 76.8-122.3 77.4-28.2 16-49.2 21-59.2 13.9-10.1-7.1-23.9-36.5-23.9-36.5-.2 1.3-5.4 30.7 10.6 46.5-6.9 36.7-2.2 63.7 13.7 80.2zm1.3-71.7c15.8 3.9 37.3-2.1 65.2-17.9 3.1-1.6 65.8-33.7 107.5-64.9-10.5 43.5-42.6 137.9-123.8 154.8-.3 0-24.1 3.6-38.6-11.6-11.2-11.9-14.7-32.2-10.3-60.4z"/><path class="st13" d="M1228.5 530.6c-35.1 17.5-78.7-18.9-104.5-38.6 2.5 36.2 7.4 139.8 63.2 134.7 40.1 0 49.6-76.2 54-102.6-4.1 2.1-9 3.7-12.7 6.5zm-103.4 96.8c8.6-2.7 24.5 12.8 31.6 15.2 23.4 8.1 43.5-1.1 65.7-4.6.8-.1-11.2 15.7-14.1 17.5-22.2 14-58.8 16.8-78-3.2-4.1-4.2-12.3-14.2-9.4-20.9 1.1-2.2 2.5-3.4 4.2-4zm16.4-200.5s6.5 31 41.1 26.3c15.2-2.1 40.7-9.4 55.2-2.2 23.5 11.6 1.4 40.5-15.1 44.6-20.9 5.2-49.6-5-67.7-15.2-11.8-6.7-25.8-15-30.3-28.2-1.9-5.5-3.6-20.9.8-25.6 2.7-2.9 14.4-7.5 16 .3z"/><path class="st8" d="M1213.4 565.4c0 16.5-12.5 29.9-28 29.9s-28-13.4-28-29.9 12.5-29.9 28-29.9 28 13.4 28 29.9z"/><path class="st13" d="M1213.4 550.5c0 8.3-6.2 14.9-14 14.9-7.7 0-14-6.7-14-14.9 0-8.3 6.3-15 14-15 7.8 0 14 6.7 14 15z"/><path class="st14" d="M1159.9 536.1l-18.2-12s5.2 66.1 29.8 82.7c0 0-15.4-32-11.6-70.7z"/><path class="st8" d="M1124 666.3c11.1 48 70.8 37 87.9 0-31.8 16-57.5 24.1-87.9 0zm30.3-42.7c9.3 8.7 20 13.2 31 13.2.8 0 1.6 0 2.4-.1 5 .4 49.5 1.3 64.1-117.3 7.9-13.3 9.1-27.4 9.2-28.3 0 0-18.6 24.8-37.1 32.8-13.8 5.9-41.4 3.8-94.6-39.7l-13.6-11.1.2 17.5c0 3.9 1.5 98.4 38.4 133zm75.9-84.7c.8-.4 1.6-.7 2.4-1.1-14.1 81.6-43 82.7-44.5 82.7-8.5.3-15.9-2.4-22.6-8.7-23.2-21.8-30.2-75.8-32.3-103.8 40.9 30.4 73.5 40.9 97 30.9zm-73.2 410c34 71.7 117.6 37 146-18.8-48.7 37.2-91.8 62.7-146 18.8zm338.3 991c-7.4-280.2-132.8-539.4-143.6-819.6-8.3 281.7 117.1 541.9 143.6 819.6z"/><path class="st15" d="M1700.5 2544.5c0 57.6-140.6 104.4-314 104.4s-314-46.7-314-104.4c0-57.6 140.6-104.3 314-104.3 173.4-.1 314 46.6 314 104.3z"/><path class="st16" d="M1620 2478.8l-.5-.4.1-.7c7.1-42.5 13.2-90.7 14-98.2 15.9-161 32.2-402.1-10.4-635l-1.4-6.9-4.8.5c-22.4-13-96.6-14.2-120.6-14.2-30.7 0-64 1.4-98.9 4.1-105.6 8.2-196 27.3-216.1 44.9h-6.5l2.4 9.4c7.9 31.4 13.8 59.8 18.1 86.8 35.5 223.3 6.7 453.8-80.7 648.1l-.8 1.3c-2.1 2.8-4 9.2-4.5 11l-.4 1.4.1 1.4c3.6 33.8 115.4 61.2 249.2 61.2 78.4 0 150.8-9.2 198.1-25 52.7-14.7 82.9-36.3 82.9-59.1.1-10.4-6.4-20.8-19.3-30.6z"/><path class="st17" d="M1619.3 1724.2s-1.9-10.4-2.4-12.9l-2-9.3-1.6-6.5-4.7.4c-22.4-13-96.9-14.1-121-14.1-31.1 0-64.8 1.4-100.1 4.2-112.9 8.8-209.8 30.1-220.7 48.4l-1.7 2.8.9 3.1c2.3 8 4.5 15.9 6.6 23.9l2.7 10 8.7-5.6c10.4-6.7 29.2-13.4 55.7-19.8 41.8-10.1 97.9-18.2 157.8-22.9 34.7-2.7 67.9-4.1 98.8-4.1 22.3 0 42.7.7 60.6 2.2 23.3 1.9 41 4.8 52.7 8.8l12.3 4.2-2.6-12.8z"/><path class="st18" d="M1414.4 2011.2c-19.8 0-35.9-14.8-35.9-33 0-18.3 16.1-33.1 35.9-33.1 4.4 0 8.6.8 12.5 2.1-6.8-3.9-14.8-6.2-23.5-6.2-23.7 0-42.9 17-42.9 38s19.2 38.1 42.9 38.1c11.9 0 22.6-4.3 30.4-11.2-5.6 3.3-12.2 5.3-19.4 5.3zm99.3 127.4c-16.2 0-29.4-12.1-29.4-27.1 0-14.9 13.2-27.1 29.4-27.1 3.6 0 7.1.7 10.2 1.8-5.5-3.2-12.1-5.1-19.2-5.1-19.4 0-35.2 13.9-35.2 31.1 0 17.2 15.7 31.2 35.2 31.2 9.7 0 18.5-3.5 24.9-9.2-4.6 2.7-10.1 4.4-15.9 4.4zm-137 147.8c-22.9 0-41.5-17.1-41.5-38.2s18.6-38.2 41.5-38.2c5.1 0 9.9 1 14.5 2.5-7.8-4.5-17.1-7.2-27.2-7.2-27.4 0-49.6 19.7-49.6 44s22.2 44 49.6 44c13.7 0 26.1-5 35.1-12.9-6.5 3.7-14.2 6-22.4 6zm184.5-377.2c-18.5 0-33.5-13.8-33.5-30.8s15-30.8 33.5-30.8c4.1 0 8 .8 11.7 2-6.3-3.7-13.8-5.8-21.9-5.8-22.1 0-40 15.9-40 35.5s17.9 35.5 40 35.5c11 0 21.1-4 28.3-10.5-5.2 3-11.4 4.9-18.1 4.9zm-267.1-51.2c-15.2 0-27.5-11.3-27.5-25.3s12.3-25.3 27.5-25.3c3.4 0 6.6.6 9.6 1.7-5.2-3-11.3-4.8-18-4.8-18.1 0-32.8 13-32.8 29.1s14.7 29.1 32.8 29.1c9.1 0 17.3-3.3 23.2-8.6-4.3 2.6-9.3 4.1-14.8 4.1zm246 624.2c-26 0-47-19.4-47-43.2 0-23.9 21.1-43.2 47-43.2 5.8 0 11.2 1.1 16.4 2.8-8.9-5.1-19.4-8.2-30.8-8.2-31 0-56.1 22.3-56.1 49.8s25.1 49.8 56.1 49.8c15.5 0 29.6-5.6 39.8-14.6-7.4 4.2-16.1 6.8-25.4 6.8zm-207.8 6.5c-18.8 0-34.1-14-34.1-31.3s15.3-31.3 34.1-31.3c4.2 0 8.1.8 11.9 2.1-6.4-3.7-14.1-5.9-22.3-5.9-22.4 0-40.7 16.2-40.7 36.1 0 19.9 18.2 36.1 40.7 36.1 11.3 0 21.4-4 28.8-10.6-5.3 2.9-11.6 4.8-18.4 4.8z"/><path class="st8" d="M1627.5 1708.3c-4.1-19.9.6 1.9-3.9-18.8l-19.3-7.3s-6.3-1.9 0 0c-11.3-3.8-28.5-7.1-54.8-9.1-43.6-3.5-101-2.7-161.8 2-20.3 1.6-173.5 14.5-218.5 44.4-1.4.8-.9 1.5 0 0l-14.8 8.5c24.6 72.4 20.4 65.9 32.5 141.6 35.2 221.2 6.7 449.3-80.1 642.6-3.3 4.8-5.4 12.8-6.1 15.3l-.3 2.1c0 47.7 130.3 72.7 259 72.7 79.4 0 152.9-9.4 201.1-25.6 57.8-16.1 89.6-40.4 89.6-68.3 0-12.5-6.4-24.3-19.1-35.2 6.8-41.5 12.5-86.6 13.2-93.8 27.1-272.9 21.8-486.2-16.7-671.1zm-453.3 28.8c7.2-12.1 86.6-34.7 214.8-44.7 129.5-10.1 212 .2 219.5 11.1 0-.1-.2-.5-.3-1h.3c.7 3.1 1.3 6.3 2 9.4.9 4.3 1.7 8.8 2.6 13.1-54.1-19.4-195.9-9.1-215.3-7.7-60.3 4.7-116.7 12.9-158.9 23-30.6 7.4-48.1 14.3-58 20.8-2.2-8-4.4-16-6.7-24zm452.9 640.6c-.7 6.9-6.4 51.8-13 92.3-21.7 18.2-45.4 33.2-73.1 40.7 27.9-1.9 53.9-11.5 78.3-24.5 8.8 7.5 13.5 15 13.5 22.3 0 18.6-29.5 38.5-77.4 51.9-47 15.7-118.4 24.7-196.1 24.7-78.4 0-140.8-8.9-182.6-20.6 26.4-63.4 41.8-132 54.3-199.1 12-64.6 17.1-129.6 21.7-195-7.3 65-15.1 129.5-29.8 193.4-15.2 66.2-33.3 133.9-62.5 195.7-26.8-9.3-41.9-19.7-42.9-28.8 1-3.6 2.5-7.5 3.3-8.5l1.2-1.9c88.4-196.5 117.4-428.5 81.7-653.2-4.7-29.4-11-58.5-18.2-87.4h.1c5.6-12 84.9-34.9 213.4-44.9 128.5-10.1 210.4.3 217.8 11.2 0-.1-.2-.5-.3-1h.3c32.4 175.4 35.6 377.7 10.3 632.7zm-506.3-2073c11.9-44.4 21.6-72.7 26.3-85.8l54.8 31.2c3.9 4.4 16.2 17.1 30.4 17.1 6.3 0 12.2-2.5 16.9-7.3 12.1-12.2 24.1-22.9 35.2-17 3.3 1.8 7.8 5 12.1 8.2 9.7 7.1 18.9 13.8 27.4 13.8 4 0 7.5-1.4 10.2-4.2 3.7-3.8 5.5-9.4 5.4-17.7 0-4.3-1.5-10.3-3.5-17.9-2-8.1-6.8-27.2-4-31.3.6 0 4.2.7 12 15 1.7 3.1 3.9 7.1 9.2 7.1l2.8-.5c11.2-3.9 18.5-13.7 24.8-22.4 4.6-6.2 8.9-12 13.5-14.3 3.1-1.5 7.8-2.3 13.4-2.3 18.2 0 45.2 8.5 62.6 16.3 1.8.8 3.6 1.2 5.4 1.2 11.4 0 15.3-12.7 19.9-27.5 2.1-6.8 4.3-13.7 6.9-18.7 4.9-9.3 15.5-19.7 22.2-25.8 5.2 4.4 13 9.5 22.1 9.5 5.8 0 14.3-2.1 21.6-12.3 8.3-11.5 27.3-26.2 44-39.2 2.4-1.8 4.7-3.7 7-5.4-11.6 47.4-29.1 138.5-45.8 229h17.6c1.3-7.2 2.6-14.3 3.9-21.5 6.2-33.5 12.5-67 19.1-100.5 5.3-26.9 10.7-53.8 16.8-80.6 3.9-17.3 9.4-34.4 12.6-51.8 1.4-7.5 2.7-15.3 1.6-22.7-.6-4.2-1.9-8.2-4.4-12.1-12.5-19.5-47.5-14.5-66.4-11.8l-3.9.6c-16.3 2.3-34.8 4.8-50.2 12.1-3.1 1.5-6.9 4-11.3 7-4.6 3.1-13.3 8.9-15.7 9.2-3.5-.4-56-6-56-6l-4-.4-55.9 54c-2.9 2.7-4.3 3.6-4.3 3.9-1.7-.9-5.4-5.2-8.6-9-4.5-5.2-10.2-11.7-18.2-19.4-7.3-7-14.6-10.3-23.4-10.3-15 .3-26.6 12.5-35.1 21.4-2.4 2.5-5.5 5.8-7.2 7-9.5.4-25.5 11.8-47.8 33.7-24.3 12.8-27.9 15.9-36.7 41.9-2.1 6.2-5.4 12.3-11.8 14.8-8.4 3.3-15.5-4.2-23-1.8-4.5 1.4-8.2 6.3-11.4 9.6-8.9 9.1-14.2 30.9-19.2 42.8-3.4 8.1-5.9 16.3-8.8 24.5-9 25.9-14.2 42.6-18.1 65.7l17 .9zm33.7-105.5c2.1-6 4.6-13.5 7.7-16.5.9-1 1.8-1.8 2.5-2.5 3.1 1.2 6.9 1.4 11.5.6 2.8-.5 5.3-.8 7.5-1.1 14.1-1.7 21.6-4.8 28.8-26.1 7.1-21 7.1-21 29.5-32.8l2.1-1.5c15.1-14.9 32.5-28.7 36.5-29.6 7.3.8 12.8-5 19.7-12.2 6.8-7.1 15.2-15.9 23-16.1 3.8.1 7.2 1.7 11.1 5.5 7.5 7.2 12.8 13.4 17.1 18.3 7.6 8.8 12.7 14.6 20.6 15 7.4.4 12.7-4.2 17.3-8.7l50.3-48.3c12.3 1.3 49.1 5.2 52 5.5 7.2.8 15.4-4.3 27.1-12.1 3.6-2.4 6.8-4.6 9.1-5.7 13-6.1 30.2-8.5 45.3-10.6l4-.5c11.7-1.7 42.9-6.1 49.4 4.1 1.6 2.5 3.5 9.6-4.5 26.6-5.8 4.9-12.7 10.3-20 16-18.5 14.4-37.6 29.2-47.4 42.7-3.7 5.2-6.7 5.2-7.6 5.2-5.9 0-13-7-14.9-9.4l-5.4-6.7-6.7 5.4c-.9.8-23.4 19-32.4 36.2-3.4 6.4-5.8 14.1-8.1 21.6-1.4 4.5-3.4 10.8-5 14.2-15.7-6.7-44.2-16.4-66.4-16.4-8.4 0-15.5 1.4-21 4.1-8.4 4.1-14.1 12-19.7 19.5-3.5 4.8-7 9.4-10.7 12.7-4.8-8.2-12.8-18.9-24.2-18.9-3.5 0-7 1.1-10.2 3.2-12.9 8.5-7.4 30.3-2.6 49.6 1.4 5.4 2.9 11.6 2.9 13.8 0 1.8-.1 3.1-.2 4-4-1.7-11.2-7-15.4-10-5-3.7-9.8-7.2-14.3-9.5-4.7-2.5-9.7-3.8-14.7-3.8-15.8 0-29.3 12.3-40.8 23.9-1.9 1.9-3.5 2.2-4.7 2.2-6.2 0-14.9-8.1-18.1-12l-60.9-35.2c0-1.3.5-2.5.9-3.7z"/><path class="st8" d="M1578.6 1115.5c-31.7-85.6-72.2-131.3-99.4-154 0-.3-2.5-2.1-2.5-2.1-16.4-13.3-27.4-17.9-27.4-17.9.2.3 5.6 5.6 14 14.9-12.1 115.9-8 229.8 12.3 338.6.9 4.7 8.8 44.3 11.5 50.7 13.6 51.7 31.9 100.2 48.8 142.5 28.5 71 52.3 139.6 71.7 206.5l16.7-1.3c-19.8-68.5-44.1-138.7-73.3-211.4-10.4-26-21.3-54.3-31.3-84.2 8 9.8 16.4 19.3 25.6 27.9 7.6 7.1 15.6 13.8 23.8 20.1 18.7 14.3 35.9 20.1 59.7 20.1 20.3 0 41.1-1 61-4.6 13-2.4 29.2-5.7 38.4-16.1 4.7-5.3 6.5-11.7 5.1-18.6-1.6-8.2-5.9-14.7-12.6-19.5 2.8-10.1 1.8-20.2-3.2-29.1-3.1-5.6-7.6-10.2-13-13.9 1.4-6.7.5-13.4-2.9-19.6-5.8-10.6-18.6-18.6-32.4-20.2-19-2.3-40.4 1.7-57.9 10.4-5.5-11.9-17.4-33.6-36.9-51.4 75.2-97.1 76.2-160.6 76.1-163.3l-.1-1.3c-20-118-109.3-210.8-158-247.9l42.4-197.4c17-20.7 28.1-46 33.1-73.1 3.9-23.4 4.5-58.3-24-66.8-2.2-.8-5.7-.7-10-.2 23.6-76.6 42-153.2 56.2-228.4l3.7-20.2-18.2 8.8c-.4 2-.7 3.9-1 5.8-.3 2-2.4 9.9-3.1 14.1l-1.6 7.6c-.5 3.1-.2 4.4-1 7.9-13.3 66.2-31.4 137.8-52.1 205-16.4 4.1-31.9 14.8-30.4 16.1 118.2-54.4 43 119.4 11 155.4 5.7-3.4 11-7.2 16.1-11.2l-36.2 165.9c-8.7-5.5-14.7-7.9-16.3-6.7 0 0 150.6 131.4 173.2 267.1-.3 6.5 1.4 60.3-72.4 152.5l.1.3c-5.2-3.6-10.7-7-16.7-9.8 8.5 8.3 16.1 17.2 23 26.5l.3.8c.1 0 .1-.1.2-.2 15.7 21.4 27.4 44.9 34.4 68l8.6-5.5c15.4-9.9 37.2-14.8 55.6-12.7 8.5 1 16.7 5.9 20 11.9.9 1.6 1.4 3.3 1.5 5.1-2-.5-4-1.1-6.1-1.3-27.7-2.8-76.9 29.7-76.9 29.7 20.2-9.6 56.6-15.4 75.2-13.5 9.8 1 18.2 6 22.3 13.4 2.6 4.7 3.2 10 2 15.6-32.9-3.6-90 23.2-90 23.2l3-.8c17.5-4.4 70.8-17.8 91.8-4.5 4 2.5 6.3 5.9 7.2 10.4.4 1.8 0 3.1-1.3 4.6-13 14.7-78.5 16.2-118.5 13.7-58.2-43.1-83.6-82.4-94.8-107.1-2.8-10.9-5.4-21.9-7.8-33.1 9.7-84.3 93.2-198.7 93.2-198.7-2.4 1.3-5.8 3.5-9.5 6.5zm-91.2 150.4c-15.6-95.4-18.9-191.4-9.2-292.5 28.1 33.7 68.9 90.6 87.5 154.4-25.9 27.6-61.4 81.6-78.3 138.1zm-491.2 195.6c29.4-30.2 58.1-63.9 70.4-105 .5 2.5.9 5 1.4 7.5 15.1 75.9 34.3 152.2 52.8 225.9 11.5 45.8 23.1 92.1 33.9 138.9l16.5-1.2c-11-47.7-22.8-94.9-34.6-141.6-18.5-73.6-37.6-149.6-52.6-225.1-27.4-137.9-39.9-270.8-37-395 1-41.2 3.3-79.4 8.3-130.2 3.1 1.2 6.1 2.6 9.5 3.4-62-53-34.6-179.5 35.6-131.9-7.4-5.3-18.3-13.1-29-17.5l1.6.1c4-99.7 17.6-197.7 31.6-288.8 5.2-33.7 11.1-67.7 17-101.4l4.7-27.1c.1-.5.4-2.2.9-4.3l-12.3-5.3c-17 51-22.5 109.9-26.5 135.6-14 90.7-27.5 188.2-31.6 287.8-2 0-4 .2-5.8.8-27.3 8.6-36.3 40.2-37.8 65.7-1.6 27.9 5.7 57.3 26.5 74.2-2 20-3.6 38.9-5 56.9-22.7 20.2-121 112.7-174 240.4-6.1 10.3-11.2 49.9 111.8 174.8-23.5 22.3-31.1 44-33.3 57.1-29.1-10.3-59.1-4-61.4-3.5-14.1 5.1-23 12.9-26.5 23-2.2 6.4-1.7 12.4-.5 17-6.4 4.3-10.9 10.1-13.6 17.4-3.4 9.3-2.5 20 1.9 29.9-1.8 1.6-3.5 3.3-5 5.4-6.7 9.4-9 28.1.3 36.8 8 7.6 22.2 5.1 32.2 5.4 13.4.4 26.8 1.3 40.2 1.3 17.2 0 34.8-.4 51.8-2.8 3.5-.5 7.9-.3 11.2-1.5 10.1-3.7 19.3-15.7 26.4-23.1zm53.3-205.3c-24.5-48.8-61.7-94.6-88.8-119.1 18-36.6 51.5-87 69.8-113.6 1.2 75 7.4 152.8 19 232.7zm-203.7 212.7c-1-3.6-1.6-9.3 1.8-14.1 4.5-6.3 21.1-21.9 97.8-8 0 0-57-23.2-91.5-14-2.5-5.9-3-12.1-1.2-17.3 1.9-5.2 5.5-9 11-11.6 20.9-9.7 61.5 1 80.1 7.9 0 0-45.3-30.6-77.3-25.4-.2-1.8-.2-3.7.5-5.7 2.3-6.4 10.3-10.5 15.5-12.5.3-.1 33.7-7 60.4 7.1l13.1 6.8-1.2-14.8c-.1-1.3-2.2-33.6 40.7-66.6l-10-13c-.2.1-.3.3-.4.4-120.4-122.1-110.2-155.5-110.4-155.5l1-1.7c44.8-108.5 123.2-190.9 157.5-223.6-1.2 20.1-2 39.3-2.5 58.1-.2 9.9-.2 20-.2 30.1-17.8 24.4-60.3 84.6-83 130.6l.1.1c-5.8-4.2-10.8-6.9-14.3-7.6 0 0 110.5 124.2 123.4 207.1 0 .6-.8 62.9-91.7 142.9-10.4 1.6-56.8 7.5-119.2.3z"/><path class="st5" d="M2248.1 668.8l-317.4 211.7c15 11.4 29.7 23.2 44 35.4-86.4 44.5-169.8 90.5-250.1 137.4L1742 1523c157.9-107.6 307-196.4 475.3-278.3 47.4 109.3 74 229.8 74.8 356.5 2.9 502.4-402 912-904.3 914.9-224.6 1.3-430.7-79-590.2-213 143.6-140.3 524.5-471.1 820.9-696.4 0 0-20.3-137.8-54.3-164.7-65.9-52.1-104.8-127.9-67.1-203.4 4.3-8.6-12.1-36.7-12.1-36.7-447.1 292.5-771 593.9-938.5 763.7-18.2-42.4-33.3-86.4-45-131.8L184 2045.5c179.9 491 652.8 840.1 1205.9 836.9 704.7-4.1 1272.7-578.7 1268.6-1283.5-2.1-367.9-159.8-698.6-410.4-930.1z"/><path class="st13" d="M750.9 2195.4l-22.9-25.3 14.3-13-80.9-89.2-13.9 12.6-22.9-25.3 109.1-99 38.5 42.5-30 27.3-15.6-17.2-34.6 31.4 24.2 26.7 19.1-17.3c8.2-7.4 16.4-12.7 24.6-15.8 8.2-3.1 16.1-4.4 23.6-4 7.5.4 14.5 2.3 21.1 5.7 6.6 3.4 12.4 8 17.6 13.7 5.7 6.3 9.8 13.2 12.3 20.9 2.5 7.7 3.5 15.4 2.9 23.4-.6 7.9-2.9 15.7-6.7 23.3-3.9 7.6-9.3 14.7-16.4 21.1l-63.4 57.5zm21.9-66l12.8-11.6c7.6-6.9 11.8-13.7 12.6-20.4.9-6.8-1.4-13.2-6.9-19.2-2.8-3.1-5.9-5.4-9.1-6.7-3.2-1.4-6.5-1.9-9.8-1.6-3.4.3-6.7 1.4-10.2 3.2-3.4 1.8-6.9 4.3-10.5 7.6l-12.8 11.6 33.9 37.1zm105.6-49.7l-22.8-25.4 14.7-13.2-80.4-89.7-14.7 13.2-22.8-25.4L864.2 1839l42.9 47.9L877 1914l-20.2-22.5-36 32.3 28.5 31.8 27.9-25L900 1956l-27.9 25 29.2 32.5 36.1-32.3-22.3-24.9 30.2-27.1 45.1 50.3-112 100.2zm103.3-132.1l-26.8-30.5 31.8-27.9 13.9 15.9c5.3 3.3 10.4 4.6 15.3 3.9 4.9-.7 9.7-3.1 14.4-7.3 2.7-2.4 4.8-5 6.3-8s2.4-6.1 2.8-9.3c.3-3.2 0-6.3-1-9.5s-2.6-6-4.8-8.4c-2.4-2.7-5-4.9-7.9-6.3-2.8-1.5-5.9-2.3-9.1-2.4-3.2-.1-6.4.4-9.6 1.5-3.2 1.1-6.4 3.1-9.5 5.9l-13.2 11.5-22.5-25.6 13.4-11.8c2.8-2.5 5-5.1 6.5-7.8s2.3-5.4 2.5-8.2c.2-2.7-.1-5.4-1-8.1-.9-2.6-2.4-5.1-4.4-7.4-1.8-2.1-4-3.7-6.6-5-2.6-1.3-5.4-2-8.4-2.2-3-.2-6 .2-9.2 1.2-3.1 1-6 2.6-8.7 5-2.3 2-4.1 4.3-5.5 7-1.4 2.7-2.3 5.4-2.5 8.2-.3 2.8-.1 5.5.6 8.3.7 2.7 1.9 5.1 3.7 7.1l8.5 9.7-31.7 27.8-25.9-29.6 9.8-8.6c-1.9-9.5-1.2-19.1 2.1-28.9 3.3-9.8 9.5-18.7 18.6-26.7 6.6-5.8 13.8-10.1 21.4-12.9 7.6-2.8 15.2-4.2 22.6-4.1 7.4.1 14.5 1.5 21.3 4.3 6.8 2.8 12.5 6.9 17.1 12.2 5.6 6.4 9.5 13.3 11.6 20.6 2.1 7.4 2.4 14.4.8 21.2 6.6-1.1 14-.1 22.1 2.9 8.1 3 15.3 8.2 21.8 15.6 5.2 5.9 8.9 12.7 11.1 20.2 2.2 7.5 2.9 15.2 2.2 23.1-.8 7.9-3.1 15.6-7 23.1-3.9 7.5-9.3 14.3-16.1 20.3-4.7 4.2-9.9 7.6-15.3 10.3-5.5 2.7-11 4.7-16.6 5.9-5.6 1.2-11.1 1.6-16.4 1.2-5.4-.4-10.5-1.7-15.2-3.9l-7.3 6.5zm171.4-110.3l-21.8-26.2 14.8-12.3-77.1-92.6-14.4 12-21.8-26.2 113.2-94.3 36.7 44.1-31.2 26-14.9-17.9-35.9 29.9 23.1 27.7 19.8-16.5c8.5-7.1 16.9-12 25.3-14.7 8.4-2.8 16.3-3.8 23.8-3 7.5.7 14.4 2.9 20.8 6.6 6.4 3.7 12.1 8.5 17 14.4 5.4 6.5 9.2 13.6 11.4 21.4 2.2 7.8 2.8 15.6 1.9 23.5-1 7.9-3.5 15.6-7.7 23-4.2 7.5-9.9 14.3-17.3 20.4l-65.7 54.7zm24.8-65l13.3-11.1c7.8-6.5 12.3-13.2 13.5-19.9 1.1-6.7-.9-13.2-6.1-19.5-2.7-3.3-5.6-5.6-8.8-7.1-3.1-1.5-6.4-2.2-9.8-2-3.4.2-6.8 1.1-10.3 2.7-3.5 1.7-7.1 4-10.8 7.1l-13.3 11.1 32.3 38.7zm106.2-44.7l-20.8-27 15.3-11.8-73.5-95.5-15.1 11.7-20.8-27 66.7-51.3 20.8 27-18.8 14.5 22 28.6 20.4-15.7c8.8-6.7 17.4-11.3 25.8-13.7 8.5-2.4 16.4-3.1 23.9-2.1 7.4 1 14.3 3.5 20.6 7.4 6.3 3.9 11.8 8.9 16.5 15 5.2 6.7 8.7 14 10.6 21.8 1.9 7.8 2.2 15.7 1 23.5-1.3 7.8-4.1 15.4-8.6 22.7-4.5 7.3-10.5 13.9-18 19.7l-68 52.2zm27.2-64l13.7-10.6c8.1-6.2 12.8-12.7 14.2-19.4 1.4-6.7-.4-13.2-5.3-19.7-2.6-3.4-5.4-5.8-8.5-7.4-3.1-1.6-6.3-2.4-9.7-2.4-3.4 0-6.8.8-10.4 2.3-3.5 1.5-7.2 3.8-11 6.7l-13.7 10.6 30.7 39.9zm93.4-28.8l-20.8-27 15.5-11.9-73.5-95.5-15.5 11.9-20.8-27 64-49.3 20.8 27-15.8 12.1 73.5 95.5 15.8-12.1 20.8 27-64 49.3zm-7.5-188l-19.6-27.9 65.8-46.4 19.6 27.9-14.8 10.4 15 21.3c3.7 5.3 7.4 9.1 11 11.5 3.6 2.3 7.3 3.5 11 3.6 3.7.1 7.6-.9 11.6-2.9s8.3-4.6 12.8-7.7c4.9-3.4 9.4-7 13.7-10.7 4.3-3.7 8.4-7.5 12.4-11.6l-30.7-43.6-16.1 11.3-19.6-27.9 66-46.5 19.6 27.9-16.2 11.4 69.4 98.5 16.2-11.4 19.6 27.9-66 46.5-19.6-27.9 16.1-11.3-19.1-27.1c-4.7 4.6-9.6 9.1-14.9 13.4-5.2 4.4-10.4 8.3-15.6 12-8.4 5.9-16.7 10.7-24.9 14.4-8.2 3.6-16.2 5.4-24 5.3-7.8-.1-15.5-2.4-23-6.9s-14.9-11.9-22.2-22.2l-16.5-23.4-17 12.1zm269.4 0l-18.9-28.4 16.3-10.8-66.7-100.3-16.3 10.8-18.9-28.4 67.2-44.7 18.9 28.4-16.6 11 30.4 45.7 21-77.3-20.1-30.3 53.6-35.6 20.3 30.5-11.7 7.8-22.4 79.8 84 17.4 12.7-8.5 20.5 30.8-52.1 34.7-20.5-30.8-84.2-17 35.3 53 16.6-11 18.9 28.4-67.3 44.8zm112.7-188c-4.9-7.6-8.7-15.5-11.4-23.7-2.7-8.2-4.4-16.4-5-24.6-.6-8.2-.3-16.3 1.2-24.3 1.4-8 3.8-15.6 7.2-22.8 3.4-7.2 7.7-13.9 13-20.1 5.3-6.2 11.5-11.6 18.7-16.2 7.2-4.6 14.7-8.1 22.5-10.3 7.8-2.3 15.7-3.5 23.7-3.5s15.9.9 23.7 2.9c7.8 2 15.4 5 22.6 9 7.2 4 14 8.9 20.3 14.7 6.3 5.8 11.9 12.6 16.8 20.2 4.8 7.5 8.6 15.4 11.3 23.6 2.7 8.2 4.4 16.4 5 24.6.6 8.2.2 16.3-1.2 24.3s-3.8 15.6-7.2 22.8c-3.4 7.2-7.7 13.9-13.1 20.1-5.3 6.2-11.6 11.6-18.7 16.2-7.2 4.6-14.7 8.1-22.5 10.3-7.8 2.3-15.7 3.4-23.7 3.5-8 .1-15.9-.9-23.7-2.9-7.8-2-15.4-5-22.6-9-7.2-4-14-8.9-20.3-14.7-6.1-5.8-11.7-12.5-16.6-20.1zm35.6-22.9c4.3 6.7 9.4 12.4 15.3 17s12.1 8 18.6 10.2c6.5 2.2 13.1 2.9 19.8 2.3 6.7-.6 13.1-2.9 19.1-6.7 6.1-3.9 10.8-8.8 14.2-14.7 3.4-5.9 5.4-12.2 6.2-19.1.7-6.8.2-13.9-1.7-21.1s-4.9-14.2-9.2-20.9c-4.4-6.8-9.5-12.5-15.4-17.2-5.9-4.7-12.1-8.1-18.7-10.3-6.6-2.1-13.2-2.9-19.9-2.3-6.7.6-13.1 2.9-19.1 6.7-6 3.9-10.7 8.7-14 14.6-3.3 5.8-5.4 12.2-6.1 19-.7 6.8-.2 13.9 1.6 21.2 1.8 7.5 4.9 14.6 9.3 21.3zm186.9-7.8l-18.2-28.8 16.3-10.3-64.3-101.9-16.3 10.3-18.3-29 77.8-48.8c7.2-4.6 14.6-7.4 22.2-8.7 7.6-1.2 15-1 22.1.6 7.1 1.6 13.7 4.6 19.8 9 6.1 4.3 11.2 9.8 15.4 16.4 4.9 7.7 7.6 15 8.1 21.7.5 6.8-.7 13.2-3.7 19.5 7.4.1 14.1 1.6 20.3 4.6 6.2 3 11.5 8.1 15.9 15.2 4.6 7.2 7.5 14.6 8.8 22.2 1.3 7.6 1.2 15-.3 22.1-1.5 7.1-4.5 13.7-8.8 19.9-4.4 6.1-9.9 11.3-16.7 15.6l-80.1 50.4zm-8.6-127.1l26.1-16.5c2-1.3 3.7-3 4.9-5.1 1.2-2.1 2-4.5 2.3-7 .3-2.5.2-5.1-.3-7.6-.5-2.6-1.5-5-2.9-7.3-1.4-2.2-3.2-4.1-5.3-5.8-2.2-1.7-4.5-3-7-3.9-2.5-.9-5-1.3-7.5-1.3-2.5.1-4.8.7-6.8 2l-26.1 16.5 22.6 36zm41.6 66l26.5-16.7c2-1.3 3.6-3 4.7-5.2s1.8-4.5 2-7.1c.2-2.5 0-5.2-.7-8s-1.8-5.4-3.3-7.8c-1.6-2.6-3.5-4.8-5.7-6.5-2.2-1.7-4.4-3-6.8-3.8-2.4-.8-4.8-1.1-7.1-.9-2.4.2-4.6.9-6.5 2.1l-26.5 16.7 23.4 37.2z"/><defs><path id="SVGID_4_" d="M1762.6 1472.4l-170.9 1-45.8-45s-36.5-28.9-56.9-87.2c-13.3-38.1-1.6-71 17-154.3 70.2-314.7 140.6-87 218.6-133.6 90.4-53.8 38 419.1 38 419.1z"/></defs><clipPath id="SVGID_5_"><use xlink:href="#SVGID_4_" overflow="visible"/></clipPath><path class="st19" d="M1488.2 1316l.2 1.1c2.4 11.3 5 22.4 8.3 34.5 11.8 26.1 38.2 66.4 97.1 109.9l1.7 1.3 2.1.1c10.4.7 21.8 1 33.1 1 34.7 0 78.7-3 91.2-17.1 2.8-3.2 3.7-6.7 3-10.7-1.3-6.5-4.7-11.4-10.5-15-3.6-2.3-7.9-4-13-5.1 1.3 0 2.5.1 3.7.3l6.4.7 1.3-6.3c1.5-7.3.6-14.4-2.8-20.5-5.2-9.5-15.6-15.8-27.8-17.1-2.6-.3-5.4-.4-8.6-.4-2.4 0-5 .1-7.9.2 4.9-1.3 9.6-2 13.9-2 .9 0 1.9 0 2.8.1 1.1.1 2.2.4 3.3.7l11.3 2.6-.6-9.5c-.2-2.9-1-5.6-2.4-8-4.4-8-14.6-14.2-25.4-15.5-3.1-.4-6.3-.5-9.6-.5-17.7 0-36.6 5.4-50.6 14.3l-.9.5c-7.5-21.3-18.6-42.3-32.4-61.1l-4.6-12.3c60.9-77.1 70.9-128.6 71.4-153.4v-.7l-.1-.7c-18.3-109.8-116.5-214.9-157.6-254.7l41-188.1c21.2-39.6 41.8-97.9 29-126.2-1.9-4.2-4.9-8.8-9.9-12.3l10.1-2.3-27.6-8.6c19.3-63.1 36-129.3 49.6-196.9L1637.2 62l-50.7 29.8c-39.2 60.5-82.5-9.4-105.6 91.8-.5 2-62.4-18.8-87.2-9.9-10.2 3.7-22.3 30.2-34.5 34.3-13.5 4.6-17.2-20.6-31.6-15.9-15 4.9 12.4 62.2-1.9 66.6-15.8 4.9-47-22.4-59.6-18.8-22.3 6.4-28.7 24.6-30.4 23.6-45.8-27.2-70.9-39-91-54.3l-27 80.6-2.8 16.1c-5.4 30.7-11.6 66.4-17 101.6-14.1 91.3-27.7 189.5-31.7 289.6l3.4.1c-17.8.9-32.4 13.3-40.2 34.5-11.4 30.8-6.4 76.8 19.4 108.4l-.3 2.5c-4.9 49.2-7.4 88.3-8.3 130.8-2.9 124.7 9.6 258.2 37.1 396.5 15.1 75.7 34.2 151.8 52.7 225.6 33.4 132.7 67.9 269.9 79.6 409.4 3.9 46.2 6.5 95.7-1.1 145.7 1.1 50.1 108.9 90.8 240.2 90.8 151.1 0 205.5-44.8 205.5-89.2 0-212.3-16.8-423.3-111.3-658.9-15.3-38.1-34.6-88.6-48.9-142.7-3.1-7.2-5.2-13.2-6.8-18.8-.8-2.9-1.6-6.4-1.9-8.9.1-.9.7-6.5.7-6.5l-1.2-5.5c-.7-3.1-1.4-6.3-2-9.5-19.8-106.2-24.1-217.4-12.8-330.6l4.8 4c27.3 22.8 66.4 67.5 97.3 151l.6 1.5c-22.8 33.7-76.6 119.3-84.5 187.7v1z"/><path class="st20" d="M1618.9 1426.5s46.2-42.2 96.4-28.8l-2.6 12.8s-49-2.3-93.8 16zm-12.5-38s35.9-54.4 91.6-34l-1.3 14.7s-43.8-8.7-90.3 19.3z"/><path class="st21" d="M1638.3 2191.9s.4-4.5.9-12.3c.6-7.8 1-19 1.6-32.5.3-6.7.3-14 .5-21.8.1-7.7.4-15.8.3-24.3-.1-8.4-.1-17.1-.2-26 0-8.9-.5-17.8-.8-26.8-.3-9-.7-18-1-26.8-.4-8.9-1.2-17.5-1.8-26-.6-8.4-1.2-16.5-1.8-24.3-.4-7.7-1.4-15-2.1-21.7-3-26.8-5-44.7-5-44.7s2.4 17.9 6 44.6c.9 6.7 2 13.9 2.6 21.6.8 7.7 1.5 15.8 2.3 24.2.8 8.4 1.8 17.1 2.4 25.9.6 8.9 1.1 17.9 1.6 26.9s1.3 18 1.4 26.9c.3 8.9.6 17.6.8 26 .4 8.4.2 16.6.3 24.4 0 7.7.1 15.1 0 21.8-.3 13.5-.5 24.8-.9 32.7-.3 7.9-.6 12.4-.6 12.4l-6.5-.2z"/><path class="st22" d="M1602.2 1459c136.6 9.8 119.3-33 119.3-33-7.9 26.7-108.3 14.1-108.3 14.1-76.9-40.8-103.6-128.7-103.6-128.7-1.6-58.1 79.1-199.5 79.1-199.5-44.9-119.5-139-167.8-139-167.8 75.1 42.4 123.1 183.1 123.1 183.1-63.3 76.7-86.2 176-87.7 182.9l-2.1-10.2c-19.5-104.6-24-214.1-13.3-325.6 2.4-25.4-20-30.2-55.4-39-.9-.2-21.7 109.6-22.5 119.1-17.5 191.4 35.4 341 86.3 506.4 44.7 145.2 94.3 292 107.9 444.2 20.1 225.6-87.7 222.1-87.7 222.1 1.5 3.8 3.3 7.2 5 10.7 116.1-9.8 148.9-20 150.5-58.7 9.3-218.1-16.3-451.6-110.8-687.2-23.2-57.8-44.6-117.8-57.3-179C1521 1425 1602.2 1459 1602.2 1459z"/><path class="st22" d="M1545.9 1266.2l24.6 15.8s79.2-114.6 74.2-160.6c0 0-65.7-190.2-197.6-284.1 0 0 132 153.8 171.9 287.2-.1.1-21.4 57.4-73.1 141.7z"/><path class="st21" d="M1721.3 1409.7c2.8-10.1 1.8-20.2-3.2-29.1-3.1-5.6-7.6-10.2-13-13.9 1.4-6.7.5-13.4-2.9-19.6-5.8-10.6-18.6-18.6-32.4-20.2-19-2.3-40.4 1.7-57.9 10.4-5.5-11.9-17.4-33.6-36.9-51.4 75.2-97.1 76.2-160.6 76.1-163.3l-.1-1.3c-20-118-109.3-210.8-158-247.9l23.2-108.1c-6.1 2.2-12.2 4.2-18.4 6.2l-19.9 91.3c-8.7-5.5-14.7-7.9-16.3-6.7 0 0 150.6 131.4 173.2 267.1-.3 6.5 1.4 60.3-72.4 152.5l.1.3c-5.2-3.6-10.7-7-16.7-9.8 8.5 8.3 16.1 17.2 23 26.5l.3.8c.1 0 .1-.1.2-.2 15.7 21.4 27.4 44.9 34.4 68l8.6-5.5c15.4-9.9 37.2-14.8 55.6-12.7 8.5 1 16.7 5.9 20 11.9.9 1.6 1.4 3.3 1.5 5.1-2-.5-4-1.1-6.1-1.3-27.7-2.8-76.9 29.7-76.9 29.7 20.2-9.6 56.6-15.4 75.2-13.5 9.8 1 18.2 6 22.3 13.4 2.6 4.7 3.2 10 2 15.6-32.9-3.6-90 23.2-90 23.2l3-.8c17.5-4.4 70.8-17.8 91.8-4.5 4 2.5 6.3 5.9 7.2 10.4.4 1.8 0 3.1-1.3 4.6-13 14.7-78.5 16.2-118.5 13.7-58.2-43.1-83.6-82.4-94.8-107.1-2.8-10.9-5.4-21.9-7.8-33.1 9.7-84.3 93.2-198.7 93.2-198.7-2.7 1-6 3.3-9.7 6.2-31.7-85.6-72.2-131.3-99.4-154 0-.3-2.5-2.1-2.5-2.1-16.4-13.3-27.4-17.9-27.4-17.9.2.3 5.6 5.6 14 14.9-12.1 115.9-8 229.8 12.3 338.6.9 4.7 8.8 44.3 11.5 50.7 13.6 51.7 31.9 100.2 48.8 142.5 28.5 71 52.3 139.6 71.7 206.5l16.7-1.3c-19.8-68.5-44.1-138.7-73.3-211.4-10.4-26-21.3-54.3-31.3-84.2 8 9.8 16.4 19.3 25.6 27.9 7.6 7.1 15.6 13.8 23.8 20.1 18.7 14.3 35.9 20.1 59.7 20.1 20.3 0 41-1 61-4.6 13-2.4 29.2-5.7 38.4-16.1 4.7-5.3 6.5-11.7 5.1-18.6-1.4-8-5.7-14.5-12.4-19.3zM1478.6 976c28.1 33.7 68.9 90.6 87.5 154.4-25.9 27.6-61.3 81.6-78.2 138.1-15.7-95.4-19-191.4-9.3-292.5z"/><g><path class="st13" d="M708.1 780.5c2.8 3.2 5.1 6.6 6.9 10.3 1.8 3.6 3.1 7.3 4 11.1.9 3.8 1.2 7.6 1.1 11.4-.1 3.8-.7 7.5-1.8 11.1-1.1 3.6-2.7 7-4.7 10.2-2.1 3.2-4.6 6.2-7.6 8.8-3 2.6-6.3 4.7-9.8 6.3-3.5 1.6-7.1 2.7-10.8 3.3-3.7.6-7.4.7-11.2.3-3.8-.4-7.5-1.3-11.1-2.7-3.6-1.4-7.1-3.2-10.5-5.5-3.3-2.3-6.4-5.1-9.2-8.3-2.8-3.2-5.1-6.6-6.9-10.2-1.8-3.6-3.1-7.3-4-11.1-.8-3.8-1.2-7.6-1.1-11.4.1-3.8.7-7.5 1.8-11.1 1.1-3.6 2.7-7 4.7-10.2 2.1-3.2 4.6-6.2 7.6-8.8 3-2.6 6.3-4.8 9.8-6.3 3.5-1.6 7.1-2.7 10.8-3.3 3.7-.6 7.5-.7 11.3-.3 3.8.4 7.5 1.3 11.1 2.7 3.6 1.4 7.1 3.2 10.4 5.5 3.4 2.2 6.4 5 9.2 8.2zm-15 13.1c-2.5-2.8-5.2-5.1-8.3-6.9-3.1-1.8-6.2-2.9-9.4-3.5-3.2-.6-6.3-.5-9.4.3-3.1.7-5.9 2.2-8.4 4.4-2.6 2.2-4.4 4.8-5.6 7.8-1.2 3-1.7 6.1-1.6 9.3.1 3.2.9 6.5 2.2 9.7 1.4 3.3 3.3 6.3 5.7 9.1 2.5 2.9 5.3 5.2 8.3 7 3.1 1.8 6.2 3 9.4 3.5 3.2.6 6.3.5 9.4-.3s5.9-2.2 8.4-4.4 4.4-4.8 5.5-7.7c1.2-3 1.7-6 1.6-9.3-.1-3.2-.9-6.5-2.2-9.8-1.2-3.3-3.1-6.4-5.6-9.2zM505.8 969c2.9 2.1 5.9 4.1 8.8 6.2 2.9 2.1 5.8 4.1 8.8 6.2 5 3.5 8.8 7.3 11.3 11.4 2.6 4.1 4.1 8.4 4.6 12.9s.1 9.1-1.2 13.8c-1.3 4.7-3.4 9.4-6.3 14.2l-3.4 5.6 2.3 1.7-9.5 13.5-15.6-11 11.2-16.7c2.3-3.4 3.9-6.5 4.9-9.4 1-2.8 1.4-5.4 1.4-7.6 0-2.2-.5-4.1-1.4-5.7-.9-1.6-2-2.9-3.5-3.9l-.5-.3c.2 2.3-.1 5-.9 8s-2.3 6-4.3 8.9c-2.5 3.6-5.5 6.5-8.8 8.7-3.4 2.2-6.9 3.6-10.7 4.2-3.8.6-7.7.4-11.8-.7-4.1-1.1-8.2-3-12.2-5.8-3.6-2.5-6.5-5.5-8.7-9-2.3-3.5-3.8-7.2-4.5-11.2-.7-4-.6-8.1.3-12.3.9-4.3 2.8-8.4 5.6-12.3 2.8-4 6.1-7.2 9.7-9.6 3.6-2.4 7.4-3.9 11.2-4.6 3.9-.7 7.8-.7 11.7.2 4.2.4 7.9 2.1 11.5 4.6zm-9.3 15.4c-1.8-1.2-3.7-2.1-5.7-2.5-2-.4-4-.6-5.9-.3-1.9.2-3.8.8-5.5 1.8-1.7 1-3.1 2.3-4.3 3.9-1.1 1.6-1.9 3.4-2.3 5.3-.4 1.9-.4 3.8-.1 5.6.4 1.8 1.1 3.6 2.3 5.4 1.2 1.8 2.7 3.3 4.6 4.6 2 1.4 4.1 2.4 6.1 3 2 .6 3.9.7 5.8.5 1.8-.2 3.6-.9 5.2-1.9 1.6-1 3-2.4 4.2-4.1 1.1-1.6 1.8-3.3 2.2-5.3.4-2 .4-3.9.1-5.8-.3-1.9-.9-3.6-1.8-5.2s-2-2.9-3.4-3.9l-1.5-1.1zm-147.4 196.1l15 5.6-3.1 8.4 26.8 10 3.1-8.4 15 5.6-9.4 25.3-41.8-15.6-6.1 16.4 26.8 10 2.9-7.9 15 5.6-9.2 24.8-41.8-15.6-6 16 26.8 10 2.8-7.6 15 5.6-12.2 32.7-15-5.6 3.1-8.2-26.8-10-4 10.8-31.9-11.9 6.3-16.9 16.9 6.3 31.8-85.4zm-49.6 301.3c4.4.4 8.5 1.6 12.2 3.6 3.7 1.9 6.9 4.4 9.5 7.5 2.6 3.1 4.6 6.7 5.8 10.7 1.3 4.1 1.7 8.5 1.2 13.2-.5 4.7-1.7 8.9-3.6 12.4-1.9 3.5-4.4 6.4-7.5 8.6-3 2.2-6.5 3.9-10.4 4.8-3.9 1-8 1.3-12.3 1-1 0-2 0-2.9-.1-1-.1-1.9-.2-2.9-.4l4.5-44.5h-1.8c-1.7.3-3.3.8-4.7 1.7-1.4.9-2.6 2-3.6 3.3-1 1.3-1.8 2.8-2.4 4.5-.6 1.7-1 3.4-1.2 5.1-.2 1.7-.2 3.4-.2 5s.2 3.1.4 4.7c.2 1.5.5 3 .8 4.4.3 1.4.7 2.9 1.1 4.4l-12.7 5.2c-1.2-2.4-2.2-4.5-2.9-6.5-.8-1.9-1.4-3.9-1.9-5.8-.4-1.9-.7-4-.8-6.1-.1-2.1 0-4.6.3-7.4.5-5.2 1.9-9.8 4-13.7 2.1-3.9 4.8-7.1 8.1-9.6 3.2-2.5 6.9-4.2 11-5.3 4.2-.9 8.5-1.2 12.9-.7zm5.9 18.7l-2.6 25.2c1.2-.2 2.3-.4 3.3-.8 1.1-.4 2-1 2.9-1.8.9-.8 1.6-1.9 2.2-3.2.6-1.3 1-3 1.2-5.1.2-2.2.2-4.1-.1-5.6-.3-1.6-.8-2.9-1.5-4.1-.7-1.1-1.5-2.1-2.4-2.8-1-.8-2-1.4-3-1.8zm-8.2 234.4c4.3-.6 8.4-.3 12.2.9 3.9 1.2 7.4 3 10.5 5.5 3.1 2.5 5.7 5.6 7.7 9.3 2 3.7 3.3 7.9 3.7 12.5.6 3.2.6 6.4.1 9.6-.5 3.2-1.5 6.3-2.9 9.2l1.5 11.6-15.9 2.1-2.1-16c1.5-1.9 2.6-3.9 3.3-6.1.6-2.2.7-4.6.2-7.4-.1-2.3-.7-4.3-1.7-6-1-1.7-2.2-3.2-3.8-4.4-1.5-1.2-3.2-2-5.2-2.5-1.9-.5-4.1-.6-6.4-.3-2.2.3-4.3.9-6.1 2-1.9 1-3.4 2.3-4.7 3.8-1.3 1.5-2.2 3.3-2.7 5.2-.6 1.9-.8 4-.7 6.2.4 1.8 1 3.4 1.8 4.8s1.8 2.6 2.9 3.7c1.1 1 2.4 1.9 3.7 2.6 1.3.7 2.6 1.2 3.7 1.5l-2.5 16.6c-2.5-.3-5.2-1.2-8-2.4-2.8-1.3-5.5-3-8-5.3s-4.7-5.1-6.5-8.5c-1.9-3.4-3.1-7.3-3.7-11.8-.6-4.6-.3-9 1-13.1 1.2-4.1 3.2-7.8 5.8-11 2.6-3.2 5.9-5.9 9.8-8 4-2.3 8.3-3.7 13-4.3zm54.5 243.5l25.2-9.6 26 68.4-25.2 9.6-6.4-16.8 10.2-3.9-3.5-9.3-26.7 10.2 3.7 9.9-15 5.7-13.6-35.7 15-5.7 3.4 9 26.7-10.2-3.3-8.7-10.2 3.9-6.3-16.8zm88.2 257.5l13.2-9.1 4.2 6 23.5-16.3-4.2-6 13.2-9.1 23.7 34.2c4.6 6.7 6.9 12.9 6.9 18.6 0 5.7-2.4 10.2-7 13.4-2.4 1.7-4.7 2.5-7 2.5s-4.6-.6-7-1.9c.6 2.7.5 5.2-.2 7.5s-2.2 4.2-4.4 5.7c-2.4 1.6-4.9 2.6-7.6 3-2.7.3-5.3 0-8-.9s-5.3-2.4-7.9-4.5c-2.6-2.1-4.9-4.7-7-7.8l-24.4-35.3zm27.6 11.7l9.2 13.3c1.3 1.9 2.7 3.3 4.2 4.2 1.5.9 2.8.9 4.1 0 1.4-.9 1.8-2.2 1.4-3.9-.4-1.7-1.3-3.4-2.6-5.3l-9.2-13.3-7.1 5zm16.4-11.4l9.1 13.1c1.5 2.2 3 3.8 4.2 4.6 1.3.9 2.5.9 3.7 0 1.2-.8 1.7-2 1.7-3.6s-.9-3.6-2.5-6l-9.1-13.1-7.1 5zm147.8 181.5c3-3.3 6.3-5.9 10.1-7.8 3.8-1.9 7.6-3 11.7-3.3 4-.3 8.1.2 12.1 1.6 4 1.4 7.8 3.6 11.4 6.8 3.6 3.2 6.2 6.6 7.9 10.2 1.7 3.6 2.6 7.3 2.6 11.1s-.7 7.5-2.2 11.2c-1.5 3.7-3.6 7.2-6.4 10.6-.6.8-1.2 1.6-1.8 2.3-.6.7-1.3 1.4-2 2.1l-33.3-29.8-1 1.4c-.8 1.6-1.3 3.2-1.3 4.8-.1 1.6.1 3.3.6 4.8.5 1.6 1.2 3.1 2.2 4.6 1 1.5 2.1 2.8 3.5 4 1.3 1.2 2.6 2.2 3.9 3.1 1.3.9 2.7 1.7 4 2.4 1.3.7 2.7 1.4 4.1 2 1.4.6 2.8 1.2 4.2 1.7l-3.2 13.3c-2.6-.4-4.9-.9-7-1.4-2-.5-4-1.1-5.8-1.9s-3.6-1.7-5.4-2.9c-1.8-1.2-3.7-2.7-5.8-4.6-3.9-3.5-6.9-7.3-8.8-11.3-1.9-4-2.9-8.1-3-12.2-.1-4.1.6-8.1 2.2-12 1.3-3.8 3.6-7.5 6.5-10.8zm18.6 6.2l18.9 16.9c.6-1 1-2.1 1.3-3.2.3-1.1.4-2.2.2-3.4-.2-1.2-.6-2.4-1.3-3.6-.7-1.3-1.9-2.6-3.4-4-1.6-1.5-3.2-2.5-4.6-3.2-1.5-.7-2.8-1.1-4.1-1.2-1.3-.1-2.5 0-3.7.3-1.2.4-2.3.8-3.3 1.4zm170.6 174l7.5-14.2 9.6 5.1 13.4-25.2-9.6-5.1 7.6-14.2 33.2 17.7-7.6 14.2-7.8-4.2-3.3 6.3 23.7 12.6 3.3-6.3-8-4.3 7.6-14.2 33.2 17.7-7.5 14.2-9.4-5-13.4 25.2 9.4 5-7.6 14.2-33.2-17.7 7.6-14.2 8 4.3 4.3-8.1-23.7-12.6-4.3 8.1 7.8 4.2-7.5 14.2-33.3-17.7zm258.9 109.2l3.8-15.6 10.5 2.5 6.7-27.8-10.5-2.5 3.8-15.6 36.6 8.9-3.8 15.6-8.6-2.1-1.7 6.9 26.1 6.3 1.7-6.9-8.8-2.1 3.8-15.6 36.6 8.9-3.8 15.6-10.3-2.5-6.7 27.8 10.3 2.5-3.8 15.6-36.6-8.9 3.8-15.6 8.8 2.1 2.2-8.9-26.1-6.3-2.1 8.9 8.6 2.1-3.8 15.6-36.7-8.9zm276.2 10.4c0-4.4.8-8.6 2.4-12.4 1.6-3.9 3.8-7.3 6.7-10.2 2.9-2.9 6.3-5.2 10.3-6.9 4-1.7 8.4-2.6 13.2-2.6 4.8 0 9.2.8 13.2 2.5s7.5 3.9 10.3 6.8c2.9 2.9 5.1 6.2 6.8 10.1 1.6 3.9 2.4 8 2.5 12.4 0 4.4-.7 8.6-2.3 12.5-1.5 3.9-3.7 7.3-6.6 10.2-2.8 2.9-6.3 5.2-10.2 6.9-4 1.7-8.4 2.6-13.3 2.6s-9.4-.8-13.5-2.5c-4-1.7-7.5-3.9-10.3-6.8-2.9-2.9-5.1-6.3-6.7-10.1-1.7-3.9-2.5-8.1-2.5-12.5zm17.9-.1c0 2.3.4 4.5 1.2 6.4.8 2 1.9 3.6 3.2 5.1 1.4 1.4 2.9 2.5 4.7 3.3 1.8.8 3.7 1.2 5.7 1.2 2.1 0 4-.4 5.8-1.2 1.8-.8 3.3-1.9 4.6-3.3 1.3-1.4 2.3-3.1 3-5.1.7-2 1.1-4.1 1.1-6.5 0-2.4-.4-4.7-1.1-6.6-.8-2-1.8-3.6-3.1-5s-2.9-2.4-4.6-3.1c-1.8-.7-3.7-1.1-5.8-1-2 0-3.9.3-5.7 1.1-1.8.7-3.3 1.8-4.7 3.2-1.3 1.4-2.4 3.1-3.2 5.1-.7 1.7-1.1 3.9-1.1 6.4zm236.4-24c-1-4.3-1.3-8.6-.7-12.7s1.9-8 4-11.5 4.8-6.5 8.2-9.1c3.4-2.6 7.4-4.4 12.1-5.5 4.6-1.1 8.9-1.3 12.9-.7s7.5 2.1 10.6 4.2c3.1 2.1 5.8 4.9 8 8.2 2.2 3.3 3.9 7.1 5 11.3.3.9.6 1.8.9 2.8.2.9.4 1.9.6 2.9l-43.5 10.5.6 1.7c.8 1.6 1.9 2.8 3.2 3.8 1.3 1 2.7 1.8 4.3 2.3 1.6.5 3.2.8 5 .8 1.8 0 3.5-.2 5.2-.6 1.7-.4 3.3-.9 4.8-1.5s2.9-1.2 4.3-1.9 2.7-1.4 3.9-2.2c1.3-.8 2.5-1.6 3.8-2.5l9.1 10.2c-1.8 1.9-3.5 3.5-5.1 4.9-1.6 1.4-3.2 2.6-4.9 3.7-1.7 1.1-3.5 2-5.5 2.8s-4.3 1.5-7.1 2.2c-5.1 1.2-9.9 1.5-14.3.8s-8.3-2.2-11.7-4.4c-3.4-2.2-6.3-5.1-8.7-8.6-2.2-3.7-3.9-7.6-5-11.9zm15.7-11.7l24.7-6c-.5-1-1.2-2-1.9-2.8-.7-.9-1.6-1.6-2.7-2.1s-2.3-.9-3.8-1c-1.5-.1-3.2.1-5.2.6-2.1.5-3.9 1.2-5.3 2s-2.5 1.7-3.4 2.7c-.8 1-1.4 2.1-1.8 3.2-.3 1.1-.5 2.2-.6 3.4zm594.5-280l-24.6-21.4 2.7-4c1.4-2.6 2.2-5 2.2-7.2.1-2.2-.4-4.3-1.4-6.4-1-2.1-2.4-4.2-4.3-6.4s-4.1-4.5-6.7-7l-2.8-2.8-5.7 6.7-12.2-10.5 45.9-53.2 12.2 10.5-5.9 6.9 21.7 18.7 8-9.2 25.7 22.1-12.7 14.7-13.5-11.7-30.1 34.9 13.5 11.7-12 13.6zm-5.8-45.2l14.9-17.3-21.7-18.7-11.3 13.1 5.9 5.5c1.9 1.9 4.1 4.3 6.4 7.3 2.4 3 4.3 6.3 5.8 10.1zm159.1-199.7l-14.3-7.2 3.3-6.5-25.6-12.8-3.3 6.5-14.3-7.2 18.7-37.2c3.6-7.2 8-12.2 13-15 5.1-2.7 10.1-2.8 15.1-.3 2.6 1.3 4.5 3 5.6 4.9 1.1 2 1.7 4.3 1.7 7 2.1-1.8 4.4-3 6.7-3.4 2.3-.5 4.7-.1 7.2 1.1 2.6 1.3 4.7 3 6.2 5.2 1.6 2.2 2.6 4.7 3.1 7.5s.4 5.8-.2 9.1c-.6 3.2-1.8 6.6-3.4 9.9l-19.5 38.4zm-20.7-38.8l7.2-14.3c1.2-2.4 1.9-4.4 2-5.9.1-1.5-.5-2.6-1.8-3.3-1.3-.6-2.6-.6-4 .2s-2.7 2.5-4 5.1l-7.2 14.3 7.8 3.9zm17.8 9l7.2-14.4c1-2.1 1.6-4 1.7-5.7.1-1.7-.6-2.9-1.9-3.6-1.5-.7-2.9-.5-4.1.6-1.2 1.2-2.4 2.8-3.4 4.8l-7.2 14.4 7.7 3.9zm57.8-229.9l-15.7-3.5 7.1-32.2 15.7 3.5-1.6 7.2 20.9 4.6-30.3-36.8 5.1-23.1 15.8 3.5-1.6 7.2 27.8 6.2 1.6-7.2 15.7 3.5-7.1 32.2-15.7-3.5 1.7-7.5-20.4-4.5 29.7 36.7-5.2 23.4-15.7-3.5 1.6-7.4-27.9-6.2-1.5 7.4zm80-268.7l-16 .7-.4-8.7-15.3-12.4-13.3 12.3.4 10.1-16 .7-1.3-30.1 16-.7v.4l7.4-5.8-.4-9.2-7.7.3.3 7.8-16 .7-1.1-25.8 23.7-1-.3-7-7.9-5-16 .7-1.3-30.1 16-.7.4 10.3 14.3 11.1 14.2-13.8-.4-8.7 16-.7.7 16.5-22.6 20.9.3 6 7.4-.3-.3-7.8 16-.7 1.1 25.8-23.5 1 .4 8.1 7.7 6v-.1l16-.7 1.5 29.9zm-69.9-290.1c-4.3 1.3-8.5 1.7-12.7 1.4-4.2-.4-8.1-1.5-11.7-3.3-3.6-1.9-6.8-4.4-9.5-7.7s-4.8-7.2-6.2-11.7c-1.4-4.6-1.8-8.8-1.4-12.8.5-4 1.7-7.6 3.6-10.8 1.9-3.2 4.5-6.1 7.7-8.4 3.2-2.4 6.9-4.3 11-5.6.9-.4 1.8-.7 2.7-1 .9-.3 1.9-.5 2.9-.8l12.9 42.8 1.6-.7c1.5-.9 2.7-2 3.7-3.4.9-1.4 1.6-2.8 2-4.4.4-1.6.6-3.3.5-5.1-.1-1.8-.4-3.5-.9-5.2-.5-1.7-1.1-3.3-1.7-4.7-.7-1.5-1.4-2.8-2.1-4.2-.8-1.3-1.6-2.6-2.4-3.8-.9-1.2-1.7-2.4-2.7-3.7l9.7-9.7c2 1.7 3.7 3.3 5.2 4.8s2.8 3 3.9 4.7c1.2 1.6 2.2 3.4 3.1 5.3.9 1.9 1.7 4.2 2.6 6.9 1.5 5.1 2 9.8 1.6 14.2-.5 4.4-1.7 8.4-3.8 11.9-2 3.5-4.8 6.6-8.1 9.1-3.4 2.7-7.3 4.6-11.5 5.9zm-12.6-15l-7.3-24.3c-1 .6-1.9 1.3-2.7 2-.8.8-1.5 1.7-1.9 2.8-.5 1.1-.7 2.4-.8 3.8 0 1.5.2 3.2.8 5.2.6 2.1 1.4 3.8 2.3 5.2.9 1.3 1.8 2.4 2.9 3.2 1.1.8 2.2 1.3 3.3 1.6 1.1.3 2.2.5 3.4.5zm-54.9-237.4l-13.8 8.2-5.5-9.3-24.6 14.6 5.5 9.3-13.8 8.2-19.2-32.4 13.8-8.2 4.5 7.6 6.1-3.6-13.7-23.2-6.1 3.6 4.6 7.8-13.8 8.2-19.2-32.4 13.8-8.2 5.4 9.1 24.6-14.6-5.4-9.1 13.8-8.2 19.2 32.4-13.8 8.2-4.6-7.8-7.9 4.7 13.7 23.2 7.9-4.7-4.5-7.6 13.8-8.2 19.2 32.4zm-195.7-196.3l-11.3 11.4-23.3-23.3 11.3-11.4 5.2 5.2 15.2-15.2-47.3 5.8-16.8-16.7L2120 834l5.2 5.2 20.1-20.1-5.2-5.2 11.3-11.4 23.3 23.3-11.3 11.4-5.4-5.4-14.7 14.8 46.9-5.3 16.9 16.9-11.3 11.4-5.3-5.3-20.2 20.2 5.3 5.1zm-199.4-184.2c-2.3 3.8-5.1 7-8.5 9.5-3.3 2.5-7 4.3-10.9 5.3-3.9 1-8 1.2-12.2.7-4.2-.6-8.4-2.1-12.4-4.6-4.1-2.5-7.3-5.3-9.6-8.6s-3.9-6.8-4.6-10.5c-.7-3.7-.7-7.5.1-11.5.8-3.9 2.3-7.8 4.4-11.5.4-.9.9-1.8 1.3-2.6.5-.8 1-1.7 1.6-2.5l38.2 23.2.8-1.6c.5-1.7.7-3.3.4-5-.2-1.6-.7-3.2-1.5-4.7s-1.7-2.8-3-4.1c-1.2-1.3-2.6-2.4-4.1-3.3-1.5-.9-3-1.7-4.4-2.3-1.5-.6-2.9-1.2-4.4-1.7-1.5-.5-2.9-.9-4.4-1.2-1.4-.3-2.9-.6-4.4-.9l.8-13.7c2.6 0 5 0 7.1.1 2.1.1 4.1.4 6 .8 1.9.4 3.9 1.1 5.8 1.9 2 .8 4.1 2 6.5 3.4 4.5 2.7 8.1 5.9 10.7 9.5 2.6 3.6 4.3 7.4 5.2 11.4.8 4 .9 8.1 0 12.2-.6 4.5-2.2 8.5-4.5 12.3zm-19.4-2.8l-21.7-13.2c-.4 1.1-.6 2.2-.7 3.4-.1 1.1.1 2.2.4 3.4.4 1.1 1 2.2 2 3.3 1 1.1 2.3 2.2 4.1 3.3 1.9 1.1 3.6 1.9 5.1 2.3 1.6.4 3 .6 4.3.4 1.3-.1 2.5-.5 3.5-1 1.2-.5 2.2-1.1 3-1.9z"/></g></svg>