<?xml version="1.0" encoding="utf-8"?>
<!-- Generator: Adobe Illustrator 20.1.0, SVG Export Plug-In . SVG Version: 6.00 Build 0)  -->
<svg version="1.1" id="Layer_1" xmlns="http://www.w3.org/2000/svg" xmlns:xlink="http://www.w3.org/1999/xlink" x="0px" y="0px"
	 viewBox="0 0 2763.8 3005.9" style="enable-background:new 0 0 2763.8 3005.9;" xml:space="preserve">
<style type="text/css">
	.st0{fill:#C9C9C9;}
	.st1{fill:#EDEDED;}
	.st2{fill:url(#SVGID_1_);}
	.st3{fill:url(#SVGID_2_);}
	.st4{fill:#8A1812;}
	.st5{fill:#D41216;}
	.st6{fill:url(#SVGID_3_);}
	.st7{fill:#414244;}
	.st8{fill:#020203;}
	.st9{fill:#B3B2B2;}
	.st10{fill:#D1D2D4;}
	.st11{fill:#E52629;}
	.st12{fill:#939599;}
	.st13{fill:#FFFFFF;}
	.st14{fill:#EDF7FB;}
	.st15{fill:#AEAFB1;}
	.st16{fill:#F28F40;}
	.st17{fill:#B58331;}
	.st18{fill:#F6A64E;}
	.st19{clip-path:url(#SVGID_5_);fill:#D1D2D4;}
	.st20{clip-path:url(#SVGID_5_);fill:#B3B2B2;}
	.st21{clip-path:url(#SVGID_5_);fill:#020203;}
	.st22{clip-path:url(#SVGID_5_);fill:#939599;}
</style>
<path class="st0" d="M1381.8,3005.9c-185.7,0-365.9-36.3-535.7-107.8c-164.1-69.1-311.5-168-438.3-294C147,2345,2.2,1999.7,0,1632.1
	c-1.1-186.5,34.4-367.7,105.5-538.6c68.6-165,167.4-313.3,293.5-440.9c126.1-127.6,273.3-228.1,437.5-298.7
	c170-73.1,350.8-110.7,537.3-111.8c2.7,0,5.5,0,8.2,0c185.7,0,365.9,36.3,535.7,107.8c164,69.1,311.5,168,438.3,294
	c260.8,259.2,405.6,604.4,407.7,972.1c1.1,186.5-34.4,367.7-105.5,538.6c-68.7,165-167.4,313.3-293.5,440.9
	c-126.1,127.6-273.3,228.1-437.5,298.7c-170,73.1-350.8,110.7-537.3,111.8C1387.2,3005.9,1384.5,3005.9,1381.8,3005.9z
	 M961.8,2309.2c125.7,77,271.2,118.6,420,118.6l4.8,0c443.2-2.6,801.7-365.3,799.1-808.5c-0.4-71-9.9-140.6-28.3-207.8
	C1671.8,1671.7,1208.8,2076.4,961.8,2309.2z M1377.2,820.2c-214.7,1.2-416.1,86-567,238.7c-150.9,152.7-233.4,355-232.1,569.8
	c0.3,53.8,5.8,106.8,16.5,158.6c247-234,650.1-572.2,1177.9-865.8c-118.6-66-253-101.3-390.5-101.3L1377.2,820.2z"/>
<path class="st1" d="M1381.8,2986.3c-185.7,0-365.9-36.3-535.7-107.8c-164.1-69.1-311.5-168-438.3-294
	C147,2325.3,2.2,1980.1,0,1612.4c-1.1-186.5,34.4-367.7,105.5-538.6c68.6-165,167.4-313.3,293.5-440.9
	c126.1-127.6,273.3-228.1,437.5-298.7c170-73.1,350.8-110.7,537.3-111.8c2.7,0,5.5,0,8.2,0c185.7,0,365.9,36.3,535.7,107.8
	c164,69.1,311.5,168,438.3,294c260.8,259.2,405.6,604.4,407.7,972.1c1.1,186.5-34.4,367.7-105.5,538.6
	c-68.7,165-167.4,313.3-293.5,440.9c-126.1,127.6-273.3,228.1-437.5,298.7c-170,73.1-350.8,110.7-537.3,111.8
	C1387.2,2986.3,1384.5,2986.3,1381.8,2986.3z M961.8,2289.6c125.7,77,271.2,118.6,420,118.6h4.8c443.2-2.6,801.7-365.3,799.1-808.5
	c-0.4-71-9.9-140.6-28.3-207.8C1671.8,1652.1,1208.8,2056.7,961.8,2289.6z M1377.2,800.6c-214.7,1.2-416.1,86-567,238.7
	c-150.9,152.7-233.4,355-232.1,569.7c0.3,53.8,5.8,106.8,16.5,158.6c247-234,650.1-572.2,1177.9-865.8
	c-118.6-66-253-101.3-390.5-101.3L1377.2,800.6z"/>
<linearGradient id="SVGID_1_" gradientUnits="userSpaceOnUse" x1="410.8692" y1="8047.3301" x2="1335.9694" y2="7271.186" gradientTransform="matrix(0.8219 0.5696 -0.5696 0.8219 5170.6157 -4334.9526)">
	<stop  offset="0" style="stop-color:#EDEDED"/>
	<stop  offset="0.5333" style="stop-color:#767679"/>
	<stop  offset="1" style="stop-color:#EDEDED"/>
</linearGradient>
<path class="st2" d="M2610.1,2216.4c-166.2-90.6-328.9-187.8-486.3-293c-21.5,52.8-48.7,103.5-81.5,151.4
	C1792,2440.5,1290.8,2534.4,925,2284.1l-3.9-2.7c-105.4-73-191.2-170-250.9-281.7c-85,104.5-180.2,201.9-286,285.5
	c-48.6,38.4-99,74.7-150.6,109.3c95.7,141.8,216,263.5,358.1,362c2.2,1.6,4.5,3.1,6.8,4.6c153.9,105.4,323.9,177.4,505.3,214.2
	c175.1,35.5,353.3,36.8,529.7,3.7c176.4-33,342-98.7,492.4-195.2c155.8-100,288.1-228.7,393.5-382.6c39.2-57.2,73.7-116.7,103.5-178
	C2618.6,2221,2614.4,2218.7,2610.1,2216.4z"/>
<linearGradient id="SVGID_2_" gradientUnits="userSpaceOnUse" x1="-199.4626" y1="6175.2925" x2="451.247" y2="5665.6997" gradientTransform="matrix(0.8214 0.5703 -0.5703 0.8214 4458.1304 -4159.0234)">
	<stop  offset="0" style="stop-color:#EDEDED"/>
	<stop  offset="0.5333" style="stop-color:#767679"/>
	<stop  offset="1" style="stop-color:#EDEDED"/>
</linearGradient>
<path class="st3" d="M2121.6,1261.6c16.9-17,33.6-34.2,50-51.6c87.3-98.5,168.1-202.7,243.2-310.7c26-37.4,59.2-67.3,96.6-89.4
	c-92.4-130.6-206.3-243.2-339.4-335.6c-2.2-1.6-4.5-3.1-6.7-4.6c-153.8-105.5-323.8-177.7-505.1-214.6
	c-175.1-35.7-353.3-37.1-529.7-4.2C954.2,283.7,788.5,349.2,638,445.6c-155.8,99.8-288.4,228.4-393.8,382.2
	c-27.9,40.7-53.4,82.6-76.7,125.5c23.3,8.8,45.9,20.4,67.1,35.1l416.8,289.4c19.4-42.7,42.6-83.7,69.5-123
	c121.4-177.1,304.5-296.3,515.6-335.6c211.1-39.3,424.8,5.9,601.9,127.3l3.9,2.7c107.6,74.7,194.6,174.2,254.3,288.8
	C2105.5,1245.4,2113.8,1253.3,2121.6,1261.6z"/>
<path class="st4" d="M1374.5,349.2C669.7,353.3,101.8,927.9,105.9,1632.7c4.1,704.7,578.7,1272.7,1283.5,1268.6
	c704.7-4.1,1272.7-578.7,1268.6-1283.5C2653.8,913.1,2079.2,345.1,1374.5,349.2z M1376.6,715.6c228.1-1.3,437,81.4,597.5,219.2
	c-702.3,361.7-1204.6,822.8-1428.2,1049.6c-46.7-108.6-72.9-228.1-73.6-353.8C469.3,1128.2,874.2,718.5,1376.6,715.6z
	 M1387.2,2534.9c-224.6,1.3-430.7-79-590.2-213c252.2-246.4,824.4-768.4,1419.7-1058.4c47.4,109.3,74,229.8,74.8,356.5
	C2294.5,2122.3,1889.6,2532,1387.2,2534.9z"/>
<path class="st5" d="M1374.5,328.4C669.7,332.5,101.8,907.1,105.9,1611.8c4.1,704.7,578.7,1272.7,1283.5,1268.6
	c704.7-4.1,1272.7-578.7,1268.6-1283.5C2653.8,892.2,2079.2,324.3,1374.5,328.4z M1376.6,694.8c228.1-1.3,437,81.4,597.5,219.2
	c-702.3,361.7-1204.6,822.8-1428.2,1049.6c-46.7-108.6-72.9-228.2-73.6-353.8C469.3,1107.3,874.2,697.7,1376.6,694.8z M1387.2,2514
	c-224.6,1.3-430.7-79-590.2-213c252.2-246.4,824.4-768.4,1419.7-1058.4c47.4,109.3,74,229.8,74.8,356.5
	C2294.5,2101.5,1889.6,2511.1,1387.2,2514z"/>
<linearGradient id="SVGID_3_" gradientUnits="userSpaceOnUse" x1="-452.633" y1="6577.8154" x2="874.6005" y2="5272.8267" gradientTransform="matrix(0.8214 0.5703 -0.5703 0.8214 4458.1304 -4159.0234)">
	<stop  offset="0" style="stop-color:#D41216"/>
	<stop  offset="6.430642e-02" style="stop-color:#CF1317"/>
	<stop  offset="0.1395" style="stop-color:#C21519"/>
	<stop  offset="0.2201" style="stop-color:#AD171A"/>
	<stop  offset="0.3046" style="stop-color:#91181A"/>
	<stop  offset="0.3917" style="stop-color:#701518"/>
	<stop  offset="0.4788" style="stop-color:#4B0F11"/>
	<stop  offset="0.4844" style="stop-color:#4E1012"/>
	<stop  offset="0.5444" style="stop-color:#6E1518"/>
	<stop  offset="0.6074" style="stop-color:#8B171A"/>
	<stop  offset="0.6728" style="stop-color:#A4171A"/>
	<stop  offset="0.7414" style="stop-color:#B9161A"/>
	<stop  offset="0.8147" style="stop-color:#C81418"/>
	<stop  offset="0.8957" style="stop-color:#D11217"/>
	<stop  offset="1" style="stop-color:#D41216"/>
</linearGradient>
<path class="st6" d="M1896.3,855.1c120.9,82.9,215.4,189.8,281.7,309.9c119.3-43.4,242.8-68.8,368.2-82.2
	c-92.7-207.1-241.8-392.1-442.7-529.9C1522.3,154.3,728,302.4,329.4,883.6c-80,116.6-137.9,241.8-174.7,370.6
	c128,5.3,256.1,9.6,384.2,8.7c24.2-59.4,55-117.1,92.7-172.1C915.7,676.5,1481.9,571,1896.3,855.1z"/>
<g>
	<path class="st7" d="M1635.4,49.6c0.3-7.9,3.5-19.7-1-26.7c-6.3-10-16-14.8-27.2-13.3c-25.5,3.4-53.9,2.8-78,13.1
		c-12.3,5.3-24.3,20.4-38.5,18.8c-8.7-0.9-17.5-1.9-26.2-2.8c-7.2-0.8-14.4-1.5-21.6-2.3c-11.1-1.2-18.7,12.5-25.5,19
		c-11.5,11.1-22.9,25.6-36.5,34.1c-13.5,8.4-23.4-11-30.7-19.5c-11.1-12.9-25.8-21.5-41.1-9.4c-6.1,4.8-10.5,11.3-16.1,16.6
		c-5.7,5.5-12.8,5.3-19.6,8.7c-15.4,7.9-24.7,23.3-39.8,31.6c-16.4,9-21.7,20.1-27.6,37.1c-5.5,15.8-17.2,17.6-32.4,17.9
		c-16.1,0.2-20.1,13.4-24.6,26.5c-2.6,7.5-2.5,6.5,4,10.2c16.3,9.4,32.6,18.9,48.9,28.3c7.3,4.2,12.8,10.1,19.7,14.7
		c15.5,10.5,23-1.3,34.1-10.6c12.4-10.3,26-14.6,40.1-5c11.3,7.7,21.1,15.1,33.9,20.3c1.1-7.5,2.4-14.8,1.3-22.5
		c-1.9-13.4-9.5-26.8-7.6-40.6c1.6-11.9,13.8-11.9,20.8-4.8c4.9,5,8.2,11.5,11.8,17.5c10.6-9.3,18-20.4,27.6-30.6
		c15.8-16.7,43.6-8.9,62.6-3.1c9,2.8,17.8,5.9,26.5,9.6c5.3,2.3,5.4,3.6,7.9-1.7c8.7-18,10.9-36.5,24.5-52.1
		c6.2-7.2,13.3-13.7,20.6-19.7c-1.6,1.2,16.9,12.3,19.4,12.6c14.9,1.6,22.5-19.5,31.8-27.9c12.2-11.1,24.8-21.6,36.8-32.9
		C1622.2,52.9,1624,48.9,1635.4,49.6z"/>
	<path class="st8" d="M1216.5,206.5c-15.5,0.7-29.4-13.7,18.1-30.9c47.6-17.2,30.5-43.6,45.4-44.3c14.9-0.7,22.2-8.4,40.9-6.4
		c18.7,2,15.9,4.6,47.7-12.2c31.8-16.9,57.4-25.6,67.6-26.5c10.2-1,51.3-12,51.3-12s-26.7,32.1-26.1,48.4
		c0.6,16.3-27.6-7.5-27.6-7.5s-30.5,3.1-47.6,14.6c-17.1,11.5-26.9,24.5-42.7,25.8C1327.6,156.6,1261.3,204.4,1216.5,206.5z"/>
	<path class="st9" d="M1185.5,192.4c0,0,12.2,23.4,20.9,2.2c8.8-21.2,26-48.1,26-48.1s11.3-7.6,10.1,1.1
		c-1.2,8.7,37.3,32.4,37.3,32.4s18.9,41.9-3.4,31.9c-22.3-10-26.4-12.6-35.1-24.6c-8.7-12,10.4-9.8,10.4-9.8s-44.4-11.2-54-5.7
		C1188.2,177.2,1164.6,190.2,1185.5,192.4z"/>
	<path class="st10" d="M1282.2,158.4c-1.2-0.1-16,4.4,11.6-11.2c27.6-15.6,25.1-33.7,45.8-20.4c20.7,13.3,59.9,4.7,69.3-14.5
		c3.6-7.3,7.8-13.3,12.4-17.7c7.4-7.1,15.9-10.4,25-9.5c5.5,0.6,16.5-2.5,28.7-6.7c20.8-7.1,58.2-4.6,63.2-9.9
		c27.5-29.4,74.1-52.8,37.4-19.1c-36.7,33.7-72.2,48.2-91.5,56.2c-19.3,8-13.9,37.2-22.2,33.1c-8.2-4.1,10-33.3-7.2-36.2
		c-17.2-2.9-25.2-1-30.4,11.4c-5.2,12.5-4.4,32.5-19.2,33.1c-14.8,0.7-33.6,4.8-50,6.6c-16.5,1.9-48.1,8.3-48.1,8.3L1282.2,158.4z"
		/>
	<path class="st11" d="M1256,143.2c-36.3,26.6,24-38.1,24-38.1s18.5-7.8,16.2,17.2C1293.7,147.3,1294,115.5,1256,143.2z"/>
	<g>
		<path class="st10" d="M953.8,1134.3c23.5-47.7,69-111.2,82.3-129.5l1.3-1.9l0-8.8c0-7.9,0.1-15.7,0.2-23.5
			c0.4-18.4,1.2-37.4,2.5-57.8l1.1-18.1l-13.1,12.5c-32.7,31.1-113.6,115.5-158.9,225.3l-3.4,6.1l1.4,1.6
			c0.3,14.2,12.6,56.7,112.5,158l1.9,1.6l3.7,4.8c-40.2,33.8-38,66.9-37.9,68.4l0.2,2l-1.7-0.9c-12-6.3-27.1-9.7-43.7-9.7
			c-12.7,0-21.5,1.9-22.6,2.2c-5.9,2.2-16.4,7.4-19.7,16.7c-1.3,3.6-1.1,6.8-0.9,8.9l0.9,7.4l7.3-1.2c2.1-0.3,4.3-0.5,6.5-0.5
			c1.6,0,3.2,0.1,4.9,0.2c-7.1,0.5-13.2,2-18.2,4.3c-7.2,3.3-12.2,8.6-14.7,15.6c-2.4,6.7-2,14.7,1.3,22.4l2.4,5.7
			c0,0,7.4-1.9,8.1-2.1c-7.1,2.7-12.5,6.6-16,11.5c-3.9,5.4-5,12.6-2.9,20.1l1.2,4.7l4.8,0.5c20.5,2.4,41.2,3.6,61.6,3.6
			c30.5,0,51.8-2.7,59.5-3.8l2.1-0.3l1.6-1.4c93.1-81.9,94.1-145.6,94-149.4c-10.7-68.7-84.5-162.5-113.6-197.2L953.8,1134.3z"/>
		<path class="st10" d="M1487.8,1313.4l0.2,1.1c2.4,11.3,5,22.4,8.3,34.5c11.8,26.1,38.2,66.4,97.1,109.9l1.7,1.3l2.1,0.1
			c10.4,0.7,21.8,1,33.1,1c34.7,0,78.7-3,91.2-17.1c2.8-3.2,3.7-6.7,3-10.7c-1.3-6.5-4.7-11.4-10.5-15c-3.6-2.3-7.9-4-13-5.1
			c1.3,0,2.5,0.1,3.7,0.3l6.4,0.7l1.3-6.3c1.5-7.3,0.6-14.4-2.8-20.5c-5.2-9.5-15.6-15.8-27.8-17.1c-2.6-0.3-5.4-0.4-8.6-0.4
			c-2.4,0-5,0.1-7.9,0.2c4.9-1.3,9.6-2,13.9-2c0.9,0,1.9,0,2.8,0.1c1.1,0.1,2.2,0.4,3.3,0.7l11.3,2.6l-0.6-9.6c-0.2-2.9-1-5.6-2.4-8
			c-4.4-8-14.6-14.2-25.4-15.5c-3.1-0.4-6.3-0.5-9.6-0.5c-17.7,0-36.6,5.4-50.6,14.3l-0.9,0.5c-7.5-21.3-18.6-42.3-32.4-61.1
			l-4.6-12.3c60.9-77.1,70.9-128.6,71.4-153.4l0-0.7l-0.1-0.7c-18.3-109.8-116.5-214.9-157.6-254.7l41-188.1
			c21.2-39.6,41.8-97.9,29-126.2c-1.9-4.2-4.9-8.8-9.9-12.3l10.1-2.3l-27.6-8.6c19.3-63.1,36-129.3,49.6-196.9l60.8-276.1
			l-50.7,29.8c-39.2,60.5-82.5-9.4-105.6,91.8c-0.5,2-62.4-18.8-87.2-9.9c-10.2,3.7-22.3,30.2-34.5,34.3
			c-13.5,4.6-17.2-20.6-31.6-15.9c-15,4.9,12.4,62.2-1.9,66.6c-15.8,4.9-47-22.4-59.6-18.8c-22.3,6.4-28.7,24.6-30.4,23.6
			c-45.8-27.2-70.9-39-91-54.3l-27,80.6l-2.8,16.1c-5.4,30.7-11.6,66.4-17,101.6c-14.1,91.3-27.7,189.5-31.7,289.6l3.4,0.1
			c-17.8,0.9-32.4,13.3-40.2,34.5c-11.4,30.8-6.4,76.8,19.4,108.4l-0.3,2.5c-4.9,49.2-7.4,88.3-8.3,130.8
			c-2.9,124.7,9.6,258.2,37.1,396.5c15.1,75.7,34.2,151.8,52.7,225.6c33.4,132.7,67.9,269.9,79.6,409.4c3.9,46.2,6.5,95.7-1.1,145.7
			c1.1,50.1,108.9,90.8,240.2,90.8c151.1,0,205.5-44.8,205.5-89.2c0-212.3-16.8-423.3-111.3-658.9c-15.3-38.1-34.6-88.6-48.9-142.7
			c-3.1-7.2-5.2-13.2-6.8-18.8c-0.8-2.9-1.6-6.4-1.9-8.9c0.1-0.9,0.7-6.5,0.7-6.5l-1.2-5.5c-0.7-3.1-1.4-6.3-2-9.5
			c-19.8-106.2-24.1-217.4-12.8-330.6c0.6,0.5,4.8,4,4.8,4c27.3,22.8,66.4,67.5,97.3,151l0.6,1.5c-22.8,33.7-76.6,119.3-84.5,187.7
			L1487.8,1313.4z"/>
	</g>
	<path class="st12" d="M1146,947.7c0,0,32.4,104.7,123.5,59.7c0,0,48.1-34.6,65.9-92.1C1335.5,915.2,1225.6,1024.1,1146,947.7z"/>
	<path class="st13" d="M1258,2130.4c6.2-179.9-28.9-359.2-72.5-532.9c-23.9-95.2-52.1-189.7-68.6-286.5
		c-13.9-81.5-23.9-163.7-29.8-246.1c-2.9-39.2-6.6-79.2-5.6-118.5c0.7-26.2,10.9-59.6-0.2-84.5c0,0-73.4-165.1,19.2-154.7
		c13.7-127.6,54.9-354.8,78-480.8c-13.7-8.3-27.5-7.8-35-17.6l-26.2,78.5l-2.8,16.1c-5.4,30.7-11.6,66.4-17,101.6
		c-14.1,91.3-27.7,189.5-31.7,289.6l3.4,0.1c-17.8,0.9-32.4,13.3-40.2,34.5c-11.4,30.8-6.4,76.8,19.4,108.4l-0.3,2.5
		c-4.9,49.2-7.4,88.3-8.3,130.8c-2.9,124.7,9.6,258.2,37.1,396.5c15.1,75.7,34.2,151.8,52.7,225.6c33.4,132.7,67.9,269.9,79.6,409.4
		c3.9,46.2,6.5,95.7-1.1,145.7c0.9,41.3,74.5,76.3,174,87.2c-5-7.9-8.2-13-8.2-13S1255.9,2191.1,1258,2130.4z"/>
	<path class="st13" d="M1188.8,917.1c-15.7-3.3-31.2-3.5-28.7,11.3c1.9,11.2,20.5,17.7,29.8,20.7c35.5,11.5,74.1-5,101.9-27.2
		c-30.6,8.5-51.1,8.2-75.1,2.8C1212,923.6,1200.4,919.5,1188.8,917.1z"/>
	<path class="st13" d="M863.1,1388.1c0,0,14.8-35.5,102.1,7.8c0,0-1.6-57.3,37.7-93.4c0,0-79.3-94.2-115.4-164.1
		c0,0,58.8-132.2,152.6-223.2l1.2-20.5c0,0-131.1,113.4-174.3,235c0,0-14.6,45.6,112.8,168.4c0,0-37.4,31.7-33.5,68.6
		C946.3,1366.9,855.3,1345.5,863.1,1388.1z"/>
	<g>
		<path class="st12" d="M1553.9,555.1c-1.9-4.2-4.9-8.8-9.9-12.3l-17.5-10.9c19.3-63.1,36-129.3,49.6-196.9l53.7-279l-72.8,65.6
			c-5,56.8-9.9,74.5-32.9,223c-15.9,120.3-33.8,181.3-37,183.1c-26.9,15.3-24.2,39.1-24.2,39.1c82.3-14.7,9.7,131.1,9.7,131.1
			c-19.6,105.4-37.5,125.9-37.5,125.9l48.9,45.6l41-188.1C1546,641.7,1566.6,583.4,1553.9,555.1z"/>
	</g>
	<path class="st9" d="M1618.5,1423.9c0,0,46.2-42.2,96.4-28.8l-2.6,12.8C1712.3,1407.9,1663.3,1405.6,1618.5,1423.9z"/>
	<path class="st9" d="M1606,1385.9c0,0,35.9-54.4,91.6-34l-1.3,14.7C1696.3,1366.6,1652.5,1357.9,1606,1385.9z"/>
	<path class="st9" d="M945.3,1446.8c0,0-53.1-33.3-97.1-22.8l-1.1,16.6C847.2,1440.5,890.2,1426.2,945.3,1446.8z"/>
	<path class="st8" d="M1637.9,2189.3c0,0,0.4-4.5,0.9-12.3c0.6-7.8,1-19,1.6-32.5c0.3-6.7,0.3-14,0.5-21.8
		c0.1-7.7,0.4-15.8,0.3-24.3c-0.1-8.4-0.1-17.1-0.2-26c0-8.9-0.5-17.8-0.8-26.8c-0.3-9-0.7-18-1-26.8c-0.4-8.9-1.2-17.5-1.8-26
		c-0.6-8.4-1.2-16.5-1.8-24.3c-0.4-7.7-1.4-15-2.1-21.7c-3-26.8-5-44.7-5-44.7s2.4,17.9,6,44.6c0.9,6.7,2,13.9,2.6,21.6
		c0.8,7.7,1.5,15.8,2.3,24.2c0.8,8.4,1.8,17.1,2.4,25.9c0.6,8.9,1.1,17.9,1.6,26.9c0.5,9,1.3,18,1.4,26.9c0.3,8.9,0.6,17.6,0.8,26
		c0.4,8.4,0.2,16.6,0.3,24.4c0,7.7,0.1,15.1,0,21.8c-0.3,13.5-0.5,24.8-0.9,32.7c-0.3,7.9-0.6,12.4-0.6,12.4L1637.9,2189.3z"/>
	<g>
		<path class="st12" d="M1037.5,1002.9l-2.4-22.3c-59.7,40.8-101.8,138.1-101.8,138.1c100.8,117.7,112.8,207.4,112.8,207.4
			c-15.7,65.9-95.4,130.3-95.4,130.3l-104.9,12.5l-6.9,4.7c25.1,11,130.3,3.1,130.3,3.1c90.3-71.4,94.5-151.5,94.5-151.5
			c-13.3-81.8-109.8-190.9-109.8-190.9C972.2,1093.3,1037.5,1002.9,1037.5,1002.9z"/>
		<g>
			<path class="st12" d="M1601.8,1456.4c136.6,9.8,119.3-33,119.3-33c-7.9,26.7-108.3,14.1-108.3,14.1
				c-76.9-40.8-103.6-128.7-103.6-128.7c-1.6-58.1,79.1-199.5,79.1-199.5c-44.9-119.5-139-167.8-139-167.8
				c75.1,42.4,123.1,183.1,123.1,183.1c-63.3,76.7-86.2,176-87.7,182.9c-0.7-3.4-1.4-6.8-2.1-10.2c-19.5-104.6-24-214.1-13.3-325.6
				c2.4-25.4-20-30.2-55.4-39c-0.9-0.2-21.7,109.6-22.5,119.1c-17.5,191.4,35.4,341,86.3,506.4c44.7,145.2,94.3,292,107.9,444.2
				c20.1,225.6-87.7,222.1-87.7,222.1c1.5,3.8,3.3,7.2,5,10.7c116.1-9.8,148.9-20,150.5-58.7c9.3-218.1-16.3-451.6-110.8-687.2
				c-23.2-57.8-44.6-117.8-57.3-179C1520.6,1422.4,1601.8,1456.4,1601.8,1456.4z"/>
			<path class="st12" d="M1545.5,1263.6l24.6,15.8c0,0,79.2-114.6,74.2-160.6c0,0-65.7-190.2-197.6-284.1c0,0,132,153.8,171.9,287.2
				C1618.5,1122,1597.2,1179.3,1545.5,1263.6z"/>
		</g>
	</g>
	<g>
		<path class="st13" d="M1448.9,650.9c-5.6-5.2-24.3-7.6-26.2-7.4c-36,4.7-75.4,42.8-101.5,68l-10.6,10.2c-38.5,37-82.2,79-139,86.5
			c-3.9,0.5-8,0.8-12.4,0.8c-16.9,0-33.6-3.7-45.8-10.2l-9.5,10.3c4,5.6,13.6,17.8,13.6,17.8c8.8,6.4,23.3,25.1,23.3,25.1
			c23.8,21.6,49.2,32.5,75.4,32.5c16,0,32.6-4,49.3-12c5.2-2.5,11.1-5.5,18.7-9.3c35-17.6,87.9-44.3,130.5-44.3c1.7,0,3.4,0,5.1,0.1
			l3.7,0.2l2.3-2.9c20.2-25,32.7-56.6,37.3-93.9l1.4-10.9C1464.5,711.5,1465.1,665.9,1448.9,650.9z"/>
		<path class="st8" d="M1475,711.1c0.8-10.9,1.9-48.1-18.2-67c-8.7-8.2-20.2-11.5-33.3-9.8c-38.5,5.1-76.9,43-105,70.7l-10.4,10.2
			c-36.9,36-78.6,76.9-131.4,84c-17.1,2.3-43-1.2-57.3-12.1c-5.6-4.3-8.9-9.3-10.3-15.2c4.1-5,8.9-9.7,14.9-14.3
			c-39.8-3.8-57.1,44.4-36.1,73.8c1.6-11.5,3.4-21.9,6.4-31.5c29.1,45.9,70.3,94.1,127.1,94.1c16.3,0,33.9-4,52.9-13.2
			c5.4-2.6,12-5.2,18.6-9.4c93.5-58.6,167.4-46.6,167.4-46.6c-6.1-4.6-12.8-7.7-19.9-9.8C1460.2,786.8,1471.9,752,1475,711.1z
			 M1422.3,811.8c-44.5-2.4-100.1,26-136.9,44.9c-6.8,3.5-12.9,6.6-18.2,9.2c-46.9,22.7-84.3,8.6-114.6-19.3
			c64.8,21.7,143.8-24.5,196-66c-37.9,26.6-75.8,50.9-122,59.6c-24.1,3.3-71.1,0.3-97.4-19.2c-4.1-5.2-8-10.6-11.8-16.1
			c18.7,10.2,43.9,12.6,61.5,10.3c58.2-7.8,102-50.7,140.7-88.5l10.4-10.2c24.9-24.6,62.7-61.7,95.7-66.1c8.3-1.1,14.8,0.7,19.9,5.5
			c11,10.4,14,32.9,13.2,50.4c-16.7,11.3-66.2,45.3-72.6,51c23.1-14.2,45.5-27.8,71.2-35.8C1453.1,757.4,1441.3,787.8,1422.3,811.8z
			"/>
	</g>
	<g>
		<path class="st13" d="M1469.1,438.8c-36,27-124.9,96.2-174.3,79.8c-16.6,84.1,53.5,110.4,113.6,59.1
			c44.6-38.1,63.4-95.6,76.5-150.7C1479.8,430.8,1473.6,434.2,1469.1,438.8z"/>
		<path class="st13" d="M1304.7,619.6c9.1,20.1,49.8,15,65.9,10.8c9.8-2.5,60.8-19.6,52.2-36.7c0-0.1-4.7-10.1-18.1,0
			c-17.2,13-47.3,24.9-69.4,22.6c-10.5-1.1-22.1-4.4-32.2-1.9C1303.5,616.4,1304,618.1,1304.7,619.6z"/>
		<path class="st13" d="M1303.2,426.9c-0.9-1.4-11.4,15.4-11.8,16.8c-10.6,40.5,34.9,41.5,58.9,31.7c41-16.9,70.1-53.2,110.8-70.9
			C1433.4,414.4,1324.3,461.3,1303.2,426.9z"/>
		<g>
			<path class="st8" d="M1392.4,547c0,18.9-14.4,34.3-32.1,34.3c-17.7,0-32.1-15.3-32.1-34.3c0-18.9,14.4-34.2,32.1-34.2
				C1378,512.7,1392.4,528,1392.4,547z"/>
			<path class="st13" d="M1392.4,529.9c0,9.4-7.2,17.1-16,17.1c-8.9,0-16-7.7-16-17.1c0-9.5,7.2-17.1,16-17.1
				C1385.2,512.7,1392.4,520.4,1392.4,529.9z"/>
		</g>
		<path class="st14" d="M1325.3,536.1c0,0-10.5,61.4,38.2,53.2c0,0-65.4,19-54.9-53.2H1325.3z"/>
		<path class="st8" d="M1295.2,621.1c14.7,61.3,87.7,39.8,113,0C1368.1,640,1331.6,658.1,1295.2,621.1z"/>
		<path class="st8" d="M1300.1,599.9c13.9,14.4,32.5,16.9,43.7,16.9c5.4,0,9-0.6,9.6-0.7c117.3-24.4,140.5-183.8,141.4-190.6
			l3.1-22.4l-16.7,15.3c-36.4,33.4-121.1,76.8-122.3,77.4c-28.2,16-49.2,21-59.2,13.9c-10.1-7.1-23.9-36.5-23.9-36.5
			c-0.2,1.3-5.4,30.7,10.6,46.5C1279.5,556.4,1284.2,583.4,1300.1,599.9z M1301.4,528.2c15.8,3.9,37.3-2.1,65.2-17.9
			c3.1-1.6,65.8-33.7,107.5-64.9c-10.5,43.5-42.6,137.9-123.8,154.8c-0.3,0-24.1,3.6-38.6-11.6
			C1300.5,576.7,1297,556.4,1301.4,528.2z"/>
	</g>
	<g>
		<path class="st13" d="M1228.5,530.6c-35.1,17.5-78.7-18.9-104.5-38.6c2.5,36.2,7.4,139.8,63.2,134.7c40.1,0,49.6-76.2,54-102.6
			C1237.1,526.2,1232.2,527.8,1228.5,530.6z"/>
		<path class="st13" d="M1125.1,627.4c8.6-2.7,24.5,12.8,31.6,15.2c23.4,8.1,43.5-1.1,65.7-4.6c0.8-0.1-11.2,15.7-14.1,17.5
			c-22.2,14-58.8,16.8-78-3.2c-4.1-4.2-12.3-14.2-9.4-20.9C1122,629.2,1123.4,628,1125.1,627.4z"/>
		<path class="st13" d="M1141.5,426.9c0,0,6.5,31,41.1,26.3c15.2-2.1,40.7-9.4,55.2-2.2c23.5,11.6,1.4,40.5-15.1,44.6
			c-20.9,5.2-49.6-5-67.7-15.2c-11.8-6.7-25.8-15-30.3-28.2c-1.9-5.5-3.6-20.9,0.8-25.6C1128.2,423.7,1139.9,419.1,1141.5,426.9z"/>
		<g>
			<path class="st8" d="M1213.4,565.4c0,16.5-12.5,29.9-28,29.9c-15.5,0-28-13.4-28-29.9c0-16.5,12.5-29.9,28-29.9
				C1200.9,535.5,1213.4,548.9,1213.4,565.4z"/>
			<path class="st13" d="M1213.4,550.5c0,8.3-6.2,14.9-14,14.9c-7.7,0-14-6.7-14-14.9c0-8.3,6.3-15,14-15
				C1207.2,535.5,1213.4,542.2,1213.4,550.5z"/>
		</g>
		<path class="st14" d="M1159.9,536.1l-18.2-12c0,0,5.2,66.1,29.8,82.7C1171.5,606.8,1156.1,574.8,1159.9,536.1z"/>
		<path class="st8" d="M1124,666.3c11.1,48,70.8,37,87.9,0C1180.1,682.3,1154.4,690.4,1124,666.3z"/>
		<path class="st8" d="M1154.3,623.6c9.3,8.7,20,13.2,31,13.2c0.8,0,1.6,0,2.4-0.1c5,0.4,49.5,1.3,64.1-117.3
			c7.9-13.3,9.1-27.4,9.2-28.3c0,0-18.6,24.8-37.1,32.8c-13.8,5.9-41.4,3.8-94.6-39.7l-13.6-11.1l0.2,17.5
			C1115.9,494.5,1117.4,589,1154.3,623.6z M1230.2,538.9c0.8-0.4,1.6-0.7,2.4-1.1c-14.1,81.6-43,82.7-44.5,82.7c0,0,0,0,0,0
			c-8.5,0.3-15.9-2.4-22.6-8.7c-23.2-21.8-30.2-75.8-32.3-103.8C1174.1,538.4,1206.7,548.9,1230.2,538.9z"/>
	</g>
	<path class="st8" d="M1157,948.9c34,71.7,117.6,37,146-18.8C1254.3,967.3,1211.2,992.8,1157,948.9z"/>
	<path class="st8" d="M1495.3,1939.9c-7.4-280.2-132.8-539.4-143.6-819.6C1343.4,1402,1468.8,1662.2,1495.3,1939.9z"/>
	<path class="st15" d="M1700.5,2544.5c0,57.6-140.6,104.4-314,104.4c-173.4,0-314-46.7-314-104.4c0-57.6,140.6-104.3,314-104.3
		C1559.9,2440.1,1700.5,2486.8,1700.5,2544.5z"/>
	<path class="st16" d="M1620,2478.8l-0.5-0.4l0.1-0.7c7.1-42.5,13.2-90.7,14-98.2c15.9-161,32.2-402.1-10.4-635l-1.4-6.9l-4.8,0.5
		c-22.4-13-96.6-14.2-120.6-14.2c-30.7,0-64,1.4-98.9,4.1c-105.6,8.2-196,27.3-216.1,44.9h-6.5l2.4,9.4
		c7.9,31.4,13.8,59.8,18.1,86.8c35.5,223.3,6.7,453.8-80.7,648.1l-0.8,1.3c-2.1,2.8-4,9.2-4.5,11l-0.4,1.4l0.1,1.4
		c3.6,33.8,115.4,61.2,249.2,61.2c78.4,0,150.8-9.2,198.1-25c52.7-14.7,82.9-36.3,82.9-59.1C1639.4,2499,1632.9,2488.6,1620,2478.8z
		"/>
	<path class="st17" d="M1619.3,1724.2c0,0-1.9-10.4-2.4-12.9l-2-9.3l-1.6-6.5l-4.7,0.4c-22.4-13-96.9-14.1-121-14.1
		c-31.1,0-64.8,1.4-100.1,4.2c-112.9,8.8-209.8,30.1-220.7,48.4l-1.7,2.8l0.9,3.1c2.3,8,4.5,15.9,6.6,23.9l2.7,10l8.7-5.6
		c10.4-6.7,29.2-13.4,55.7-19.8c41.8-10.1,97.9-18.2,157.8-22.9c34.7-2.7,67.9-4.1,98.8-4.1c22.3,0,42.7,0.7,60.6,2.2
		c23.3,1.9,41,4.8,52.7,8.8l12.3,4.2L1619.3,1724.2z"/>
	<g>
		<path class="st18" d="M1414.4,2011.2c-19.8,0-35.9-14.8-35.9-33c0-18.3,16.1-33.1,35.9-33.1c4.4,0,8.6,0.8,12.5,2.1
			c-6.8-3.9-14.8-6.2-23.5-6.2c-23.7,0-42.9,17-42.9,38c0,21,19.2,38.1,42.9,38.1c11.9,0,22.6-4.3,30.4-11.2
			C1428.2,2009.2,1421.6,2011.2,1414.4,2011.2z"/>
		<path class="st18" d="M1513.7,2138.6c-16.2,0-29.4-12.1-29.4-27.1c0-14.9,13.2-27.1,29.4-27.1c3.6,0,7.1,0.7,10.2,1.8
			c-5.5-3.2-12.1-5.1-19.2-5.1c-19.4,0-35.2,13.9-35.2,31.1c0,17.2,15.7,31.2,35.2,31.2c9.7,0,18.5-3.5,24.9-9.2
			C1525,2136.9,1519.5,2138.6,1513.7,2138.6z"/>
		<path class="st18" d="M1376.7,2286.4c-22.9,0-41.5-17.1-41.5-38.2c0-21.1,18.6-38.2,41.5-38.2c5.1,0,9.9,1,14.5,2.5
			c-7.8-4.5-17.1-7.2-27.2-7.2c-27.4,0-49.6,19.7-49.6,44c0,24.3,22.2,44,49.6,44c13.7,0,26.1-5,35.1-12.9
			C1392.6,2284.1,1384.9,2286.4,1376.7,2286.4z"/>
		<path class="st18" d="M1561.2,1909.2c-18.5,0-33.5-13.8-33.5-30.8c0-17,15-30.8,33.5-30.8c4.1,0,8,0.8,11.7,2
			c-6.3-3.7-13.8-5.8-21.9-5.8c-22.1,0-40,15.9-40,35.5c0,19.6,17.9,35.5,40,35.5c11,0,21.1-4,28.3-10.5
			C1574.1,1907.3,1567.9,1909.2,1561.2,1909.2z"/>
		<path class="st18" d="M1294.1,1858c-15.2,0-27.5-11.3-27.5-25.3c0-14,12.3-25.3,27.5-25.3c3.4,0,6.6,0.6,9.6,1.7
			c-5.2-3-11.3-4.8-18-4.8c-18.1,0-32.8,13-32.8,29.1c0,16.1,14.7,29.1,32.8,29.1c9.1,0,17.3-3.3,23.2-8.6
			C1304.6,1856.5,1299.6,1858,1294.1,1858z"/>
		<path class="st18" d="M1540.1,2482.2c-26,0-47-19.4-47-43.2c0-23.9,21.1-43.2,47-43.2c5.8,0,11.2,1.1,16.4,2.8
			c-8.9-5.1-19.4-8.2-30.8-8.2c-31,0-56.1,22.3-56.1,49.8s25.1,49.8,56.1,49.8c15.5,0,29.6-5.6,39.8-14.6
			C1558.1,2479.6,1549.4,2482.2,1540.1,2482.2z"/>
		<path class="st18" d="M1332.3,2488.7c-18.8,0-34.1-14-34.1-31.3c0-17.3,15.3-31.3,34.1-31.3c4.2,0,8.1,0.8,11.9,2.1
			c-6.4-3.7-14.1-5.9-22.3-5.9c-22.4,0-40.7,16.2-40.7,36.1c0,19.9,18.2,36.1,40.7,36.1c11.3,0,21.4-4,28.8-10.6
			C1345.4,2486.8,1339.1,2488.7,1332.3,2488.7z"/>
	</g>
	<path class="st8" d="M1627.5,1708.3c-4.1-19.9,0.6,1.9-3.9-18.8l-19.3-7.3c0,0-6.3-1.9,0,0c-11.3-3.8-28.5-7.1-54.8-9.1
		c-43.6-3.5-101-2.7-161.8,2c-20.3,1.6-173.5,14.5-218.5,44.4c-1.4,0.8-0.9,1.5,0,0l-14.8,8.5c24.6,72.4,20.4,65.9,32.5,141.6
		c35.2,221.2,6.7,449.3-80.1,642.6c-3.3,4.8-5.4,12.8-6.1,15.3l-0.3,2.1c0,47.7,130.3,72.7,259,72.7c79.4,0,152.9-9.4,201.1-25.6
		c57.8-16.1,89.6-40.4,89.6-68.3c0-12.5-6.4-24.3-19.1-35.2c6.8-41.5,12.5-86.6,13.2-93.8C1671.3,2106.5,1666,1893.2,1627.5,1708.3z
		 M1174.2,1737.1c7.2-12.1,86.6-34.7,214.8-44.7c129.5-10.1,212,0.2,219.5,11.1c0-0.1-0.2-0.5-0.3-1l0.3,0c0.7,3.1,1.3,6.3,2,9.4
		c0.9,4.3,1.7,8.8,2.6,13.1c-54.1-19.4-195.9-9.1-215.3-7.7c-60.3,4.7-116.7,12.9-158.9,23c-30.6,7.4-48.1,14.3-58,20.8
		C1178.7,1753.1,1176.5,1745.1,1174.2,1737.1z M1627.1,2377.7c-0.7,6.9-6.4,51.8-13,92.3c-21.7,18.2-45.4,33.2-73.1,40.7
		c27.9-1.9,53.9-11.5,78.3-24.5c8.8,7.5,13.5,15,13.5,22.3c0,18.6-29.5,38.5-77.4,51.9c-47,15.7-118.4,24.7-196.1,24.7
		c-78.4,0-140.8-8.9-182.6-20.6c26.4-63.4,41.8-132,54.3-199.1c12-64.6,17.1-129.6,21.7-195c-7.3,65-15.1,129.5-29.8,193.4
		c-15.2,66.2-33.3,133.9-62.5,195.7c-26.8-9.3-41.9-19.7-42.9-28.8c1-3.6,2.5-7.5,3.3-8.5l1.2-1.9
		c88.4-196.5,117.4-428.5,81.7-653.2c-4.7-29.4-11-58.5-18.2-87.4h0.1c5.6-12,84.9-34.9,213.4-44.9c128.5-10.1,210.4,0.3,217.8,11.2
		c0-0.1-0.2-0.5-0.3-1l0.3,0C1649.2,1920.4,1652.4,2122.7,1627.1,2377.7z"/>
	<path class="st8" d="M1120.8,304.7c11.9-44.4,21.6-72.7,26.3-85.8l54.8,31.2c3.9,4.4,16.2,17.1,30.4,17.1c6.3,0,12.2-2.5,16.9-7.3
		c12.1-12.2,24.1-22.9,35.2-17c3.3,1.8,7.8,5,12.1,8.2c9.7,7.1,18.9,13.8,27.4,13.8c4,0,7.5-1.4,10.2-4.2c3.7-3.8,5.5-9.4,5.4-17.7
		c0-4.3-1.5-10.3-3.5-17.9c-2-8.1-6.8-27.2-4-31.3c0.6,0,4.2,0.7,12,15c1.7,3.1,3.9,7.1,9.2,7.1l2.8-0.5
		c11.2-3.9,18.5-13.7,24.8-22.4c4.6-6.2,8.9-12,13.5-14.3c3.1-1.5,7.8-2.3,13.4-2.3c18.2,0,45.2,8.5,62.6,16.3
		c1.8,0.8,3.6,1.2,5.4,1.2c11.4,0,15.3-12.7,19.9-27.5c2.1-6.8,4.3-13.7,6.9-18.7c4.9-9.3,15.5-19.7,22.2-25.8
		c5.2,4.4,13,9.5,22.1,9.5c5.8,0,14.3-2.1,21.6-12.3c8.3-11.5,27.3-26.2,44-39.2c2.4-1.8,4.7-3.7,7-5.4
		c-11.6,47.4-29.1,138.5-45.8,229h17.6c1.3-7.2,2.6-14.3,3.9-21.5c6.2-33.5,12.5-67,19.1-100.5c5.3-26.9,10.7-53.8,16.8-80.6
		c3.9-17.3,9.4-34.4,12.6-51.8c1.4-7.5,2.7-15.3,1.6-22.7c-0.6-4.2-1.9-8.2-4.4-12.1c-12.5-19.5-47.5-14.5-66.4-11.8l-3.9,0.6
		c-16.3,2.3-34.8,4.8-50.2,12.1c-3.1,1.5-6.9,4-11.3,7c-4.6,3.1-13.3,8.9-15.7,9.2c-3.5-0.4-56-6-56-6l-4-0.4L1377.4,79
		c-2.9,2.7-4.3,3.6-4.3,3.9c-1.7-0.9-5.4-5.2-8.6-9c-4.5-5.2-10.2-11.7-18.2-19.4c-7.3-7-14.6-10.3-23.4-10.3
		c-15,0.3-26.6,12.5-35.1,21.4c-2.4,2.5-5.5,5.8-7.2,7c-9.5,0.4-25.5,11.8-47.8,33.7c-24.3,12.8-27.9,15.9-36.7,41.9
		c-2.1,6.2-5.4,12.3-11.8,14.8c-8.4,3.3-15.5-4.2-23-1.8c-4.5,1.4-8.2,6.3-11.4,9.6c-8.9,9.1-14.2,30.9-19.2,42.8
		c-3.4,8.1-5.9,16.3-8.8,24.5c-9,25.9-14.2,42.6-18.1,65.7L1120.8,304.7z M1154.5,199.2c2.1-6,4.6-13.5,7.7-16.5
		c0.9-1,1.8-1.8,2.5-2.5c3.1,1.2,6.9,1.4,11.5,0.6c2.8-0.5,5.3-0.8,7.5-1.1c14.1-1.7,21.6-4.8,28.8-26.1c7.1-21,7.1-21,29.5-32.8
		l2.1-1.5c15.1-14.9,32.5-28.7,36.5-29.6c7.3,0.8,12.8-5,19.7-12.2c6.8-7.1,15.2-15.9,23-16.1c3.8,0.1,7.2,1.7,11.1,5.5
		c7.5,7.2,12.8,13.4,17.1,18.3c7.6,8.8,12.7,14.6,20.6,15c7.4,0.4,12.7-4.2,17.3-8.7l50.3-48.3c12.3,1.3,49.1,5.2,52,5.5
		c7.2,0.8,15.4-4.3,27.1-12.1c3.6-2.4,6.8-4.6,9.1-5.7c13-6.1,30.2-8.5,45.3-10.6l4-0.5c11.7-1.7,42.9-6.1,49.4,4.1
		c1.6,2.5,3.5,9.6-4.5,26.6c-5.8,4.9-12.7,10.3-20,16c-18.5,14.4-37.6,29.2-47.4,42.7c-3.7,5.2-6.7,5.2-7.6,5.2
		c-5.9,0-13-7-14.9-9.4l-5.4-6.7l-6.7,5.4c-0.9,0.8-23.4,19-32.4,36.2c-3.4,6.4-5.8,14.1-8.1,21.6c-1.4,4.5-3.4,10.8-5,14.2
		c-15.7-6.7-44.2-16.4-66.4-16.4c-8.4,0-15.5,1.4-21,4.1c-8.4,4.1-14.1,12-19.7,19.5c-3.5,4.8-7,9.4-10.7,12.7
		c-4.8-8.2-12.8-18.9-24.2-18.9c-3.5,0-7,1.1-10.2,3.2c-12.9,8.5-7.4,30.3-2.6,49.6c1.4,5.4,2.9,11.6,2.9,13.8c0,1.8-0.1,3.1-0.2,4
		c-4-1.7-11.2-7-15.4-10c-5-3.7-9.8-7.2-14.3-9.5c-4.7-2.5-9.7-3.8-14.7-3.8c-15.8,0-29.3,12.3-40.8,23.9c-1.9,1.9-3.5,2.2-4.7,2.2
		c-6.2,0-14.9-8.1-18.1-12l-60.9-35.2C1153.6,201.6,1154.1,200.4,1154.5,199.2z"/>
	<g>
		<path class="st8" d="M1578.6,1115.5c-31.7-85.6-72.2-131.3-99.4-154c0-0.3-2.5-2.1-2.5-2.1c-16.4-13.3-27.4-17.9-27.4-17.9
			c0.2,0.3,5.6,5.6,14,14.9c-12.1,115.9-8,229.8,12.3,338.6c0.9,4.7,8.8,44.3,11.5,50.7c13.6,51.7,31.9,100.2,48.8,142.5
			c28.5,71,52.3,139.6,71.7,206.5l16.7-1.3c-19.8-68.5-44.1-138.7-73.3-211.4c-10.4-26-21.3-54.3-31.3-84.2
			c8,9.8,16.4,19.3,25.6,27.9c7.6,7.1,15.6,13.8,23.8,20.1c18.7,14.3,35.9,20.1,59.7,20.1c20.3,0,41.1-1,61-4.6
			c13-2.4,29.2-5.7,38.4-16.1c4.7-5.3,6.5-11.7,5.1-18.6c-1.6-8.2-5.9-14.7-12.6-19.5c2.8-10.1,1.8-20.2-3.2-29.1
			c-3.1-5.6-7.6-10.2-13-13.9c1.4-6.7,0.5-13.4-2.9-19.6c-5.8-10.6-18.6-18.6-32.4-20.2c-19-2.3-40.4,1.7-57.9,10.4
			c-5.5-11.9-17.4-33.6-36.9-51.4c75.2-97.1,76.2-160.6,76.1-163.3l-0.1-1.3c-20-118-109.3-210.8-158-247.9l42.4-197.4
			c17-20.7,28.1-46,33.1-73.1c3.9-23.4,4.5-58.3-24-66.8c-2.2-0.8-5.7-0.7-10-0.2c23.6-76.6,42-153.2,56.2-228.4l3.7-20.2l-18.2,8.8
			c-0.4,2-0.7,3.9-1,5.8c-0.3,2-2.4,9.9-3.1,14.1l-1.6,7.6c-0.5,3.1-0.2,4.4-1,7.9c-13.3,66.2-31.4,137.8-52.1,205
			c-16.4,4.1-31.9,14.8-30.4,16.1c118.2-54.4,43,119.4,11,155.4c5.7-3.4,11-7.2,16.1-11.2l-36.2,165.9c-8.7-5.5-14.7-7.9-16.3-6.7
			c0,0,150.6,131.4,173.2,267.1c-0.3,6.5,1.4,60.3-72.4,152.5l0.1,0.3c-5.2-3.6-10.7-7-16.7-9.8c8.5,8.3,16.1,17.2,23,26.5l0.3,0.8
			c0.1,0,0.1-0.1,0.2-0.2c15.7,21.4,27.4,44.9,34.4,68l8.6-5.5c15.4-9.9,37.2-14.8,55.6-12.7c8.5,1,16.7,5.9,20,11.9
			c0.9,1.6,1.4,3.3,1.5,5.1c-2-0.5-4-1.1-6.1-1.3c-27.7-2.8-76.9,29.7-76.9,29.7c20.2-9.6,56.6-15.4,75.2-13.5
			c9.8,1,18.2,6,22.3,13.4c2.6,4.7,3.2,10,2,15.6c-32.9-3.6-90,23.2-90,23.2l3-0.8c17.5-4.4,70.8-17.8,91.8-4.5
			c4,2.5,6.3,5.9,7.2,10.4c0.4,1.8,0,3.1-1.3,4.6c-13,14.7-78.5,16.2-118.5,13.7c-58.2-43.1-83.6-82.4-94.8-107.1
			c-2.8-10.9-5.4-21.9-7.8-33.1c9.7-84.3,93.2-198.7,93.2-198.7C1585.7,1110.3,1582.3,1112.5,1578.6,1115.5z M1487.4,1265.9
			c-15.6-95.4-18.9-191.4-9.2-292.5c28.1,33.7,68.9,90.6,87.5,154.4C1539.8,1155.4,1504.3,1209.4,1487.4,1265.9z"/>
		<path class="st8" d="M996.2,1461.5c29.4-30.2,58.1-63.9,70.4-105c0.5,2.5,0.9,5,1.4,7.5c15.1,75.9,34.3,152.2,52.8,225.9
			c11.5,45.8,23.1,92.1,33.9,138.9l16.5-1.2c-11-47.7-22.8-94.9-34.6-141.6c-18.5-73.6-37.6-149.6-52.6-225.1
			c-27.4-137.9-39.9-270.8-37-395c1-41.2,3.3-79.4,8.3-130.2c3.1,1.2,6.1,2.6,9.5,3.4c-62-53-34.6-179.5,35.6-131.9
			c-7.4-5.3-18.3-13.1-29-17.5l1.6,0.1c4-99.7,17.6-197.7,31.6-288.8c5.2-33.7,11.1-67.7,17-101.4l4.7-27.1c0.1-0.5,0.4-2.2,0.9-4.3
			l-12.3-5.3c-17,51-22.5,109.9-26.5,135.6c-14,90.7-27.5,188.2-31.6,287.8c-2,0-4,0.2-5.8,0.8c-27.3,8.6-36.3,40.2-37.8,65.7
			c-1.6,27.9,5.7,57.3,26.5,74.2c-2,20-3.6,38.9-5,56.9c-22.7,20.2-121,112.7-174,240.4c-6.1,10.3-11.2,49.9,111.8,174.8
			c-23.5,22.3-31.1,44-33.3,57.1c-29.1-10.3-59.1-4-61.4-3.5c-14.1,5.1-23,12.9-26.5,23c-2.2,6.4-1.7,12.4-0.5,17
			c-6.4,4.3-10.9,10.1-13.6,17.4c-3.4,9.3-2.5,20,1.9,29.9c-1.8,1.6-3.5,3.3-5,5.4c-6.7,9.4-9,28.1,0.3,36.8
			c8,7.6,22.2,5.1,32.2,5.4c13.4,0.4,26.8,1.3,40.2,1.3c17.2,0,34.8-0.4,51.8-2.8c3.5-0.5,7.9-0.3,11.2-1.5
			C979.9,1480.9,989.1,1468.9,996.2,1461.5z M1049.5,1256.2c-24.5-48.8-61.7-94.6-88.8-119.1c18-36.6,51.5-87,69.8-113.6
			C1031.7,1098.5,1037.9,1176.3,1049.5,1256.2z M845.8,1468.9c-1-3.6-1.6-9.3,1.8-14.1c4.5-6.3,21.1-21.9,97.8-8
			c0,0-57-23.2-91.5-14c-2.5-5.9-3-12.1-1.2-17.3c1.9-5.2,5.5-9,11-11.6c20.9-9.7,61.5,1,80.1,7.9c0,0-45.3-30.6-77.3-25.4
			c-0.2-1.8-0.2-3.7,0.5-5.7c2.3-6.4,10.3-10.5,15.5-12.5c0.3-0.1,33.7-7,60.4,7.1l13.1,6.8l-1.2-14.8c-0.1-1.3-2.2-33.6,40.7-66.6
			l-10-13c-0.2,0.1-0.3,0.3-0.4,0.4c-120.4-122.1-110.2-155.5-110.4-155.5l1-1.7c44.8-108.5,123.2-190.9,157.5-223.6
			c-1.2,20.1-2,39.3-2.5,58.1c-0.2,9.9-0.2,20-0.2,30.1c-17.8,24.4-60.3,84.6-83,130.6l0.1,0.1c-5.8-4.2-10.8-6.9-14.3-7.6
			c0,0,110.5,124.2,123.4,207.1c0,0.6-0.8,62.9-91.7,142.9C954.6,1470.2,908.2,1476.1,845.8,1468.9z"/>
	</g>
</g>
<path class="st5" d="M2248.1,668.8l-317.4,211.7c15,11.4,29.7,23.2,44,35.4c-86.4,44.5-169.8,90.5-250.1,137.4L1742,1523
	c157.9-107.6,307-196.4,475.3-278.3c47.4,109.3,74,229.8,74.8,356.5c2.9,502.4-402,912-904.3,914.9c-224.6,1.3-430.7-79-590.2-213
	c143.6-140.3,524.5-471.1,820.9-696.4c0,0-20.3-137.8-54.3-164.7c-65.9-52.1-104.8-127.9-67.1-203.4c4.3-8.6-12.1-36.7-12.1-36.7
	c-447.1,292.5-771,593.9-938.5,763.7c-18.2-42.4-33.3-86.4-45-131.8L184,2045.5c179.9,491,652.8,840.1,1205.9,836.9
	c704.7-4.1,1272.7-578.7,1268.6-1283.5C2656.4,1231,2498.7,900.3,2248.1,668.8z"/>
<g>
	<path class="st13" d="M750.9,2195.4l-22.9-25.3l14.3-13l-80.9-89.2l-13.9,12.6l-22.9-25.3l109.1-99l38.5,42.5l-30,27.3l-15.6-17.2
		l-34.6,31.4l24.2,26.7l19.1-17.3c8.2-7.4,16.4-12.7,24.6-15.8c8.2-3.1,16.1-4.4,23.6-4c7.5,0.4,14.5,2.3,21.1,5.7
		c6.6,3.4,12.4,8,17.6,13.7c5.7,6.3,9.8,13.2,12.3,20.9c2.5,7.7,3.5,15.4,2.9,23.4c-0.6,7.9-2.9,15.7-6.7,23.3
		c-3.9,7.6-9.3,14.7-16.4,21.1L750.9,2195.4z M772.8,2129.4l12.8-11.6c7.6-6.9,11.8-13.7,12.6-20.4c0.9-6.8-1.4-13.2-6.9-19.2
		c-2.8-3.1-5.9-5.4-9.1-6.7c-3.2-1.4-6.5-1.9-9.8-1.6c-3.4,0.3-6.7,1.4-10.2,3.2c-3.4,1.8-6.9,4.3-10.5,7.6l-12.8,11.6L772.8,2129.4
		z"/>
	<path class="st13" d="M878.4,2079.7l-22.8-25.4l14.7-13.2l-80.4-89.7l-14.7,13.2l-22.8-25.4l111.8-100.2l42.9,47.9L877,1914
		l-20.2-22.5l-36,32.3l28.5,31.8l27.9-25l22.8,25.4l-27.9,25l29.2,32.5l36.1-32.3l-22.3-24.9l30.2-27.1l45.1,50.3L878.4,2079.7z"/>
	<path class="st13" d="M981.7,1947.6l-26.8-30.5l31.8-27.9l13.9,15.9c5.3,3.3,10.4,4.6,15.3,3.9c4.9-0.7,9.7-3.1,14.4-7.3
		c2.7-2.4,4.8-5,6.3-8c1.5-3,2.4-6.1,2.8-9.3c0.3-3.2,0-6.3-1-9.5c-1-3.2-2.6-6-4.8-8.4c-2.4-2.7-5-4.9-7.9-6.3
		c-2.8-1.5-5.9-2.3-9.1-2.4c-3.2-0.1-6.4,0.4-9.6,1.5c-3.2,1.1-6.4,3.1-9.5,5.9l-13.2,11.5l-22.5-25.6l13.4-11.8
		c2.8-2.5,5-5.1,6.5-7.8c1.5-2.7,2.3-5.4,2.5-8.2c0.2-2.7-0.1-5.4-1-8.1c-0.9-2.6-2.4-5.1-4.4-7.4c-1.8-2.1-4-3.7-6.6-5
		c-2.6-1.3-5.4-2-8.4-2.2c-3-0.2-6,0.2-9.2,1.2c-3.1,1-6,2.6-8.7,5c-2.3,2-4.1,4.3-5.5,7c-1.4,2.7-2.3,5.4-2.5,8.2
		c-0.3,2.8-0.1,5.5,0.6,8.3c0.7,2.7,1.9,5.1,3.7,7.1l8.5,9.7l-31.7,27.8l-25.9-29.6l9.8-8.6c-1.9-9.5-1.2-19.1,2.1-28.9
		c3.3-9.8,9.5-18.7,18.6-26.7c6.6-5.8,13.8-10.1,21.4-12.9c7.6-2.8,15.2-4.2,22.6-4.1c7.4,0.1,14.5,1.5,21.3,4.3
		c6.8,2.8,12.5,6.9,17.1,12.2c5.6,6.4,9.5,13.3,11.6,20.6c2.1,7.4,2.4,14.4,0.8,21.2c6.6-1.1,14-0.1,22.1,2.9
		c8.1,3,15.3,8.2,21.8,15.6c5.2,5.9,8.9,12.7,11.1,20.2c2.2,7.5,2.9,15.2,2.2,23.1c-0.8,7.9-3.1,15.6-7,23.1
		c-3.9,7.5-9.3,14.3-16.1,20.3c-4.7,4.2-9.9,7.6-15.3,10.3c-5.5,2.7-11,4.7-16.6,5.9c-5.6,1.2-11.1,1.6-16.4,1.2
		c-5.4-0.4-10.5-1.7-15.2-3.9L981.7,1947.6z"/>
	<path class="st13" d="M1153.1,1837.3l-21.8-26.2l14.8-12.3l-77.1-92.6l-14.4,12l-21.8-26.2l113.2-94.3l36.7,44.1l-31.2,26
		l-14.9-17.9l-35.9,29.9l23.1,27.7l19.8-16.5c8.5-7.1,16.9-12,25.3-14.7c8.4-2.8,16.3-3.8,23.8-3c7.5,0.7,14.4,2.9,20.8,6.6
		c6.4,3.7,12.1,8.5,17,14.4c5.4,6.5,9.2,13.6,11.4,21.4c2.2,7.8,2.8,15.6,1.9,23.5c-1,7.9-3.5,15.6-7.7,23
		c-4.2,7.5-9.9,14.3-17.3,20.4L1153.1,1837.3z M1177.9,1772.3l13.3-11.1c7.8-6.5,12.3-13.2,13.5-19.9c1.1-6.7-0.9-13.2-6.1-19.5
		c-2.7-3.3-5.6-5.6-8.8-7.1c-3.1-1.5-6.4-2.2-9.8-2c-3.4,0.2-6.8,1.1-10.3,2.7c-3.5,1.7-7.1,4-10.8,7.1l-13.3,11.1L1177.9,1772.3z"
		/>
	<path class="st13" d="M1284.1,1727.6l-20.8-27l15.3-11.8l-73.5-95.5L1190,1605l-20.8-27l66.7-51.3l20.8,27l-18.8,14.5l22,28.6
		l20.4-15.7c8.8-6.7,17.4-11.3,25.8-13.7c8.5-2.4,16.4-3.1,23.9-2.1c7.4,1,14.3,3.5,20.6,7.4c6.3,3.9,11.8,8.9,16.5,15
		c5.2,6.7,8.7,14,10.6,21.8c1.9,7.8,2.2,15.7,1,23.5c-1.3,7.8-4.1,15.4-8.6,22.7c-4.5,7.3-10.5,13.9-18,19.7L1284.1,1727.6z
		 M1311.3,1663.6l13.7-10.6c8.1-6.2,12.8-12.7,14.2-19.4c1.4-6.7-0.4-13.2-5.3-19.7c-2.6-3.4-5.4-5.8-8.5-7.4
		c-3.1-1.6-6.3-2.4-9.7-2.4c-3.4,0-6.8,0.8-10.4,2.3c-3.5,1.5-7.2,3.8-11,6.7l-13.7,10.6L1311.3,1663.6z M1404.7,1634.8l-20.8-27
		l15.5-11.9l-73.5-95.5l-15.5,11.9l-20.8-27l64-49.3l20.8,27l-15.8,12.1l73.5,95.5l15.8-12.1l20.8,27L1404.7,1634.8z"/>
	<path class="st13" d="M1397.2,1446.8l-19.6-27.9l65.8-46.4l19.6,27.9l-14.8,10.4l15,21.3c3.7,5.3,7.4,9.1,11,11.5
		c3.6,2.3,7.3,3.5,11,3.6c3.7,0.1,7.6-0.9,11.6-2.9c4-2,8.3-4.6,12.8-7.7c4.9-3.4,9.4-7,13.7-10.7c4.3-3.7,8.4-7.5,12.4-11.6
		l-30.7-43.6l-16.1,11.3l-19.6-27.9l66-46.5l19.6,27.9l-16.2,11.4l69.4,98.5l16.2-11.4l19.6,27.9l-66,46.5l-19.6-27.9l16.1-11.3
		l-19.1-27.1c-4.7,4.6-9.6,9.1-14.9,13.4c-5.2,4.4-10.4,8.3-15.6,12c-8.4,5.9-16.7,10.7-24.9,14.4c-8.2,3.6-16.2,5.4-24,5.3
		c-7.8-0.1-15.5-2.4-23-6.9s-14.9-11.9-22.2-22.2l-16.5-23.4L1397.2,1446.8z"/>
	<path class="st13" d="M1666.6,1446.8l-18.9-28.4l16.3-10.8l-66.7-100.3l-16.3,10.8l-18.9-28.4l67.2-44.7l18.9,28.4l-16.6,11
		l30.4,45.7l21-77.3l-20.1-30.3l53.6-35.6l20.3,30.5l-11.7,7.8l-22.4,79.8l84,17.4l12.7-8.5l20.5,30.8l-52.1,34.7l-20.5-30.8
		l-84.2-17l35.3,53l16.6-11l18.9,28.4L1666.6,1446.8z"/>
	<path class="st13" d="M1779.3,1258.8c-4.9-7.6-8.7-15.5-11.4-23.7c-2.7-8.2-4.4-16.4-5-24.6c-0.6-8.2-0.3-16.3,1.2-24.3
		c1.4-8,3.8-15.6,7.2-22.8c3.4-7.2,7.7-13.9,13-20.1c5.3-6.2,11.5-11.6,18.7-16.2c7.2-4.6,14.7-8.1,22.5-10.3
		c7.8-2.3,15.7-3.5,23.7-3.5s15.9,0.9,23.7,2.9c7.8,2,15.4,5,22.6,9c7.2,4,14,8.9,20.3,14.7c6.3,5.8,11.9,12.6,16.8,20.2
		c4.8,7.5,8.6,15.4,11.3,23.6c2.7,8.2,4.4,16.4,5,24.6c0.6,8.2,0.2,16.3-1.2,24.3c-1.4,8-3.8,15.6-7.2,22.8
		c-3.4,7.2-7.7,13.9-13.1,20.1c-5.3,6.2-11.6,11.6-18.7,16.2c-7.2,4.6-14.7,8.1-22.5,10.3c-7.8,2.3-15.7,3.4-23.7,3.5
		c-8,0.1-15.9-0.9-23.7-2.9c-7.8-2-15.4-5-22.6-9c-7.2-4-14-8.9-20.3-14.7C1789.8,1273.1,1784.2,1266.4,1779.3,1258.8z
		 M1814.9,1235.9c4.3,6.7,9.4,12.4,15.3,17c5.9,4.6,12.1,8,18.6,10.2c6.5,2.2,13.1,2.9,19.8,2.3c6.7-0.6,13.1-2.9,19.1-6.7
		c6.1-3.9,10.8-8.8,14.2-14.7c3.4-5.9,5.4-12.2,6.2-19.1c0.7-6.8,0.2-13.9-1.7-21.1s-4.9-14.2-9.2-20.9c-4.4-6.8-9.5-12.5-15.4-17.2
		c-5.9-4.7-12.1-8.1-18.7-10.3c-6.6-2.1-13.2-2.9-19.9-2.3c-6.7,0.6-13.1,2.9-19.1,6.7c-6,3.9-10.7,8.7-14,14.6
		c-3.3,5.8-5.4,12.2-6.1,19c-0.7,6.8-0.2,13.9,1.6,21.2C1807.4,1222.1,1810.5,1229.2,1814.9,1235.9z"/>
	<path class="st13" d="M2001.8,1228.1l-18.2-28.8l16.3-10.3l-64.3-101.9l-16.3,10.3l-18.3-29l77.8-48.8c7.2-4.6,14.6-7.4,22.2-8.7
		c7.6-1.2,15-1,22.1,0.6c7.1,1.6,13.7,4.6,19.8,9c6.1,4.3,11.2,9.8,15.4,16.4c4.9,7.7,7.6,15,8.1,21.7c0.5,6.8-0.7,13.2-3.7,19.5
		c7.4,0.1,14.1,1.6,20.3,4.6c6.2,3,11.5,8.1,15.9,15.2c4.6,7.2,7.5,14.6,8.8,22.2c1.3,7.6,1.2,15-0.3,22.1
		c-1.5,7.1-4.5,13.7-8.8,19.9c-4.4,6.1-9.9,11.3-16.7,15.6L2001.8,1228.1z M1993.2,1101l26.1-16.5c2-1.3,3.7-3,4.9-5.1
		c1.2-2.1,2-4.5,2.3-7c0.3-2.5,0.2-5.1-0.3-7.6c-0.5-2.6-1.5-5-2.9-7.3c-1.4-2.2-3.2-4.1-5.3-5.8c-2.2-1.7-4.5-3-7-3.9
		c-2.5-0.9-5-1.3-7.5-1.3c-2.5,0.1-4.8,0.7-6.8,2l-26.1,16.5L1993.2,1101z M2034.8,1167l26.5-16.7c2-1.3,3.6-3,4.7-5.2
		c1.1-2.2,1.8-4.5,2-7.1c0.2-2.5,0-5.2-0.7-8c-0.7-2.8-1.8-5.4-3.3-7.8c-1.6-2.6-3.5-4.8-5.7-6.5c-2.2-1.7-4.4-3-6.8-3.8
		c-2.4-0.8-4.8-1.1-7.1-0.9c-2.4,0.2-4.6,0.9-6.5,2.1l-26.5,16.7L2034.8,1167z"/>
</g>
<g>
	<defs>
		<path id="SVGID_4_" d="M1762.6,1472.4l-170.9,1l-45.8-45c0,0-36.5-28.9-56.9-87.2c-13.3-38.1-1.6-71,17-154.3
			c70.2-314.7,140.6-87,218.6-133.6C1815,999.5,1762.6,1472.4,1762.6,1472.4z"/>
	</defs>
	<clipPath id="SVGID_5_">
		<use xlink:href="#SVGID_4_"  style="overflow:visible;"/>
	</clipPath>
	<path class="st19" d="M1488.2,1316l0.2,1.1c2.4,11.3,5,22.4,8.3,34.5c11.8,26.1,38.2,66.4,97.1,109.9l1.7,1.3l2.1,0.1
		c10.4,0.7,21.8,1,33.1,1c34.7,0,78.7-3,91.2-17.1c2.8-3.2,3.7-6.7,3-10.7c-1.3-6.5-4.7-11.4-10.5-15c-3.6-2.3-7.9-4-13-5.1
		c1.3,0,2.5,0.1,3.7,0.3l6.4,0.7l1.3-6.3c1.5-7.3,0.6-14.4-2.8-20.5c-5.2-9.5-15.6-15.8-27.8-17.1c-2.6-0.3-5.4-0.4-8.6-0.4
		c-2.4,0-5,0.1-7.9,0.2c4.9-1.3,9.6-2,13.9-2c0.9,0,1.9,0,2.8,0.1c1.1,0.1,2.2,0.4,3.3,0.7l11.3,2.6l-0.6-9.5c-0.2-2.9-1-5.6-2.4-8
		c-4.4-8-14.6-14.2-25.4-15.5c-3.1-0.4-6.3-0.5-9.6-0.5c-17.7,0-36.6,5.4-50.6,14.3l-0.9,0.5c-7.5-21.3-18.6-42.3-32.4-61.1
		l-4.6-12.3c60.9-77.1,70.9-128.6,71.4-153.4l0-0.7l-0.1-0.7c-18.3-109.8-116.5-214.9-157.6-254.7l41-188.1
		c21.2-39.6,41.8-97.9,29-126.2c-1.9-4.2-4.9-8.8-9.9-12.3l10.1-2.3l-27.6-8.6c19.3-63.1,36-129.3,49.6-196.9L1637.2,62l-50.7,29.8
		c-39.2,60.5-82.5-9.4-105.6,91.8c-0.5,2-62.4-18.8-87.2-9.9c-10.2,3.7-22.3,30.2-34.5,34.3c-13.5,4.6-17.2-20.6-31.6-15.9
		c-15,4.9,12.4,62.2-1.9,66.6c-15.8,4.9-47-22.4-59.6-18.8c-22.3,6.4-28.7,24.6-30.4,23.6c-45.8-27.2-70.9-39-91-54.3l-27,80.6
		l-2.8,16.1c-5.4,30.7-11.6,66.4-17,101.6c-14.1,91.3-27.7,189.5-31.7,289.6l3.4,0.1c-17.8,0.9-32.4,13.3-40.2,34.5
		c-11.4,30.8-6.4,76.8,19.4,108.4l-0.3,2.5c-4.9,49.2-7.4,88.3-8.3,130.8c-2.9,124.7,9.6,258.2,37.1,396.5
		c15.1,75.7,34.2,151.8,52.7,225.6c33.4,132.7,67.9,269.9,79.6,409.4c3.9,46.2,6.5,95.7-1.1,145.7c1.1,50.1,108.9,90.8,240.2,90.8
		c151.1,0,205.5-44.8,205.5-89.2c0-212.3-16.8-423.3-111.3-658.9c-15.3-38.1-34.6-88.6-48.9-142.7c-3.1-7.2-5.2-13.2-6.8-18.8
		c-0.8-2.9-1.6-6.4-1.9-8.9c0.1-0.9,0.7-6.5,0.7-6.5l-1.2-5.5c-0.7-3.1-1.4-6.3-2-9.5c-19.8-106.2-24.1-217.4-12.8-330.6
		c0.6,0.5,4.8,4,4.8,4c27.3,22.8,66.4,67.5,97.3,151l0.6,1.5c-22.8,33.7-76.6,119.3-84.5,187.7L1488.2,1316z"/>
	<path class="st20" d="M1618.9,1426.5c0,0,46.2-42.2,96.4-28.8l-2.6,12.8C1712.7,1410.5,1663.7,1408.2,1618.9,1426.5z"/>
	<path class="st20" d="M1606.4,1388.5c0,0,35.9-54.4,91.6-34l-1.3,14.7C1696.7,1369.2,1652.9,1360.5,1606.4,1388.5z"/>
	<path class="st21" d="M1638.3,2191.9c0,0,0.4-4.5,0.9-12.3c0.6-7.8,1-19,1.6-32.5c0.3-6.7,0.3-14,0.5-21.8
		c0.1-7.7,0.4-15.8,0.3-24.3c-0.1-8.4-0.1-17.1-0.2-26c0-8.9-0.5-17.8-0.8-26.8c-0.3-9-0.7-18-1-26.8c-0.4-8.9-1.2-17.5-1.8-26
		c-0.6-8.4-1.2-16.5-1.8-24.3c-0.4-7.7-1.4-15-2.1-21.7c-3-26.8-5-44.7-5-44.7s2.4,17.9,6,44.6c0.9,6.7,2,13.9,2.6,21.6
		c0.8,7.7,1.5,15.8,2.3,24.2c0.8,8.4,1.8,17.1,2.4,25.9c0.6,8.9,1.1,17.9,1.6,26.9c0.5,9,1.3,18,1.4,26.9c0.3,8.9,0.6,17.6,0.8,26
		c0.4,8.4,0.2,16.6,0.3,24.4c0,7.7,0.1,15.1,0,21.8c-0.3,13.5-0.5,24.8-0.9,32.7c-0.3,7.9-0.6,12.4-0.6,12.4L1638.3,2191.9z"/>
	<path class="st22" d="M1602.2,1459c136.6,9.8,119.3-33,119.3-33c-7.9,26.7-108.3,14.1-108.3,14.1
		c-76.9-40.8-103.6-128.7-103.6-128.7c-1.6-58.1,79.1-199.5,79.1-199.5c-44.9-119.5-139-167.8-139-167.8
		c75.1,42.4,123.1,183.1,123.1,183.1c-63.3,76.7-86.2,176-87.7,182.9c-0.7-3.4-1.4-6.8-2.1-10.2c-19.5-104.6-24-214.1-13.3-325.6
		c2.4-25.4-20-30.2-55.4-39c-0.9-0.2-21.7,109.6-22.5,119.1c-17.5,191.4,35.4,341,86.3,506.4c44.7,145.2,94.3,292,107.9,444.2
		c20.1,225.6-87.7,222.1-87.7,222.1c1.5,3.8,3.3,7.2,5,10.7c116.1-9.8,148.9-20,150.5-58.7c9.3-218.1-16.3-451.6-110.8-687.2
		c-23.2-57.8-44.6-117.8-57.3-179C1521,1425,1602.2,1459,1602.2,1459z"/>
	<path class="st22" d="M1545.9,1266.2l24.6,15.8c0,0,79.2-114.6,74.2-160.6c0,0-65.7-190.2-197.6-284.1c0,0,132,153.8,171.9,287.2
		C1618.9,1124.6,1597.6,1181.9,1545.9,1266.2z"/>
	<path class="st21" d="M1721.3,1409.7c2.8-10.1,1.8-20.2-3.2-29.1c-3.1-5.6-7.6-10.2-13-13.9c1.4-6.7,0.5-13.4-2.9-19.6
		c-5.8-10.6-18.6-18.6-32.4-20.2c-19-2.3-40.4,1.7-57.9,10.4c-5.5-11.9-17.4-33.6-36.9-51.4c75.2-97.1,76.2-160.6,76.1-163.3
		l-0.1-1.3c-20-118-109.3-210.8-158-247.9l23.2-108.1c-6.1,2.2-12.2,4.2-18.4,6.2l-19.9,91.3c-8.7-5.5-14.7-7.9-16.3-6.7
		c0,0,150.6,131.4,173.2,267.1c-0.3,6.5,1.4,60.3-72.4,152.5l0.1,0.3c-5.2-3.6-10.7-7-16.7-9.8c8.5,8.3,16.1,17.2,23,26.5l0.3,0.8
		c0.1,0,0.1-0.1,0.2-0.2c15.7,21.4,27.4,44.9,34.4,68l8.6-5.5c15.4-9.9,37.2-14.8,55.6-12.7c8.5,1,16.7,5.9,20,11.9
		c0.9,1.6,1.4,3.3,1.5,5.1c-2-0.5-4-1.1-6.1-1.3c-27.7-2.8-76.9,29.7-76.9,29.7c20.2-9.6,56.6-15.4,75.2-13.5
		c9.8,1,18.2,6,22.3,13.4c2.6,4.7,3.2,10,2,15.6c-32.9-3.6-90,23.2-90,23.2l3-0.8c17.5-4.4,70.8-17.8,91.8-4.5
		c4,2.5,6.3,5.9,7.2,10.4c0.4,1.8,0,3.1-1.3,4.6c-13,14.7-78.5,16.2-118.5,13.7c-58.2-43.1-83.6-82.4-94.8-107.1
		c-2.8-10.9-5.4-21.9-7.8-33.1c9.7-84.3,93.2-198.7,93.2-198.7c-2.7,1-6,3.3-9.7,6.2c-31.7-85.6-72.2-131.3-99.4-154
		c0-0.3-2.5-2.1-2.5-2.1c-16.4-13.3-27.4-17.9-27.4-17.9c0.2,0.3,5.6,5.6,14,14.9c-12.1,115.9-8,229.8,12.3,338.6
		c0.9,4.7,8.8,44.3,11.5,50.7c13.6,51.7,31.9,100.2,48.8,142.5c28.5,71,52.3,139.6,71.7,206.5l16.7-1.3
		c-19.8-68.5-44.1-138.7-73.3-211.4c-10.4-26-21.3-54.3-31.3-84.2c8,9.8,16.4,19.3,25.6,27.9c7.6,7.1,15.6,13.8,23.8,20.1
		c18.7,14.3,35.9,20.1,59.7,20.1c20.3,0,41-1,61-4.6c13-2.4,29.2-5.7,38.4-16.1c4.7-5.3,6.5-11.7,5.1-18.6
		C1732.3,1421,1728,1414.5,1721.3,1409.7z M1478.6,976c28.1,33.7,68.9,90.6,87.5,154.4c-25.9,27.6-61.3,81.6-78.2,138.1
		C1472.2,1173.1,1468.9,1077.1,1478.6,976z"/>
</g>
<g>
	<path class="st13" d="M708.1,780.5c2.8,3.2,5.1,6.6,6.9,10.3c1.8,3.6,3.1,7.3,4,11.1c0.9,3.8,1.2,7.6,1.1,11.4
		c-0.1,3.8-0.7,7.5-1.8,11.1c-1.1,3.6-2.7,7-4.7,10.2c-2.1,3.2-4.6,6.2-7.6,8.8c-3,2.6-6.3,4.7-9.8,6.3c-3.5,1.6-7.1,2.7-10.8,3.3
		c-3.7,0.6-7.4,0.7-11.2,0.3c-3.8-0.4-7.5-1.3-11.1-2.7c-3.6-1.4-7.1-3.2-10.5-5.5c-3.3-2.3-6.4-5.1-9.2-8.3
		c-2.8-3.2-5.1-6.6-6.9-10.2c-1.8-3.6-3.1-7.3-4-11.1c-0.8-3.8-1.2-7.6-1.1-11.4c0.1-3.8,0.7-7.5,1.8-11.1c1.1-3.6,2.7-7,4.7-10.2
		c2.1-3.2,4.6-6.2,7.6-8.8c3-2.6,6.3-4.8,9.8-6.3c3.5-1.6,7.1-2.7,10.8-3.3c3.7-0.6,7.5-0.7,11.3-0.3c3.8,0.4,7.5,1.3,11.1,2.7
		c3.6,1.4,7.1,3.2,10.4,5.5C702.3,774.5,705.3,777.3,708.1,780.5z M693.1,793.6c-2.5-2.8-5.2-5.1-8.3-6.9c-3.1-1.8-6.2-2.9-9.4-3.5
		c-3.2-0.6-6.3-0.5-9.4,0.3c-3.1,0.7-5.9,2.2-8.4,4.4c-2.6,2.2-4.4,4.8-5.6,7.8c-1.2,3-1.7,6.1-1.6,9.3c0.1,3.2,0.9,6.5,2.2,9.7
		c1.4,3.3,3.3,6.3,5.7,9.1c2.5,2.9,5.3,5.2,8.3,7c3.1,1.8,6.2,3,9.4,3.5c3.2,0.6,6.3,0.5,9.4-0.3s5.9-2.2,8.4-4.4
		c2.5-2.2,4.4-4.8,5.5-7.7c1.2-3,1.7-6,1.6-9.3c-0.1-3.2-0.9-6.5-2.2-9.8C697.5,799.5,695.6,796.4,693.1,793.6z"/>
	<path class="st13" d="M505.8,969c2.9,2.1,5.9,4.1,8.8,6.2c2.9,2.1,5.8,4.1,8.8,6.2c5,3.5,8.8,7.3,11.3,11.4
		c2.6,4.1,4.1,8.4,4.6,12.9c0.5,4.5,0.1,9.1-1.2,13.8c-1.3,4.7-3.4,9.4-6.3,14.2l-3.4,5.6l2.3,1.7l-9.5,13.5l-15.6-11l11.2-16.7
		c2.3-3.4,3.9-6.5,4.9-9.4c1-2.8,1.4-5.4,1.4-7.6c0-2.2-0.5-4.1-1.4-5.7c-0.9-1.6-2-2.9-3.5-3.9l-0.5-0.3c0.2,2.3-0.1,5-0.9,8
		c-0.8,3-2.3,6-4.3,8.9c-2.5,3.6-5.5,6.5-8.8,8.7c-3.4,2.2-6.9,3.6-10.7,4.2c-3.8,0.6-7.7,0.4-11.8-0.7c-4.1-1.1-8.2-3-12.2-5.8
		c-3.6-2.5-6.5-5.5-8.7-9c-2.3-3.5-3.8-7.2-4.5-11.2c-0.7-4-0.6-8.1,0.3-12.3c0.9-4.3,2.8-8.4,5.6-12.3c2.8-4,6.1-7.2,9.7-9.6
		c3.6-2.4,7.4-3.9,11.2-4.6c3.9-0.7,7.8-0.7,11.7,0.2C498.5,964.8,502.2,966.5,505.8,969z M496.5,984.4c-1.8-1.2-3.7-2.1-5.7-2.5
		c-2-0.4-4-0.6-5.9-0.3c-1.9,0.2-3.8,0.8-5.5,1.8c-1.7,1-3.1,2.3-4.3,3.9c-1.1,1.6-1.9,3.4-2.3,5.3c-0.4,1.9-0.4,3.8-0.1,5.6
		c0.4,1.8,1.1,3.6,2.3,5.4c1.2,1.8,2.7,3.3,4.6,4.6c2,1.4,4.1,2.4,6.1,3c2,0.6,3.9,0.7,5.8,0.5c1.8-0.2,3.6-0.9,5.2-1.9
		c1.6-1,3-2.4,4.2-4.1c1.1-1.6,1.8-3.3,2.2-5.3c0.4-2,0.4-3.9,0.1-5.8c-0.3-1.9-0.9-3.6-1.8-5.2c-0.9-1.6-2-2.9-3.4-3.9L496.5,984.4
		z"/>
	<path class="st13" d="M349.1,1180.5l15,5.6l-3.1,8.4l26.8,10l3.1-8.4l15,5.6l-9.4,25.3l-41.8-15.6l-6.1,16.4l26.8,10l2.9-7.9
		l15,5.6l-9.2,24.8l-41.8-15.6l-6,16l26.8,10l2.8-7.6l15,5.6l-12.2,32.7l-15-5.6l3.1-8.2l-26.8-10l-4,10.8l-31.9-11.9l6.3-16.9
		l16.9,6.3L349.1,1180.5z"/>
	<path class="st13" d="M299.5,1481.8c4.4,0.4,8.5,1.6,12.2,3.6c3.7,1.9,6.9,4.4,9.5,7.5c2.6,3.1,4.6,6.7,5.8,10.7
		c1.3,4.1,1.7,8.5,1.2,13.2c-0.5,4.7-1.7,8.9-3.6,12.4c-1.9,3.5-4.4,6.4-7.5,8.6c-3,2.2-6.5,3.9-10.4,4.8c-3.9,1-8,1.3-12.3,1
		c-1,0-2,0-2.9-0.1c-1-0.1-1.9-0.2-2.9-0.4l4.5-44.5l-1.8,0c-1.7,0.3-3.3,0.8-4.7,1.7c-1.4,0.9-2.6,2-3.6,3.3
		c-1,1.3-1.8,2.8-2.4,4.5c-0.6,1.7-1,3.4-1.2,5.1c-0.2,1.7-0.2,3.4-0.2,5c0,1.6,0.2,3.1,0.4,4.7c0.2,1.5,0.5,3,0.8,4.4
		c0.3,1.4,0.7,2.9,1.1,4.4l-12.7,5.2c-1.2-2.4-2.2-4.5-2.9-6.5c-0.8-1.9-1.4-3.9-1.9-5.8c-0.4-1.9-0.7-4-0.8-6.1
		c-0.1-2.1,0-4.6,0.3-7.4c0.5-5.2,1.9-9.8,4-13.7c2.1-3.9,4.8-7.1,8.1-9.6c3.2-2.5,6.9-4.2,11-5.3
		C290.8,1481.6,295.1,1481.3,299.5,1481.8z M305.4,1500.5l-2.6,25.2c1.2-0.2,2.3-0.4,3.3-0.8c1.1-0.4,2-1,2.9-1.8
		c0.9-0.8,1.6-1.9,2.2-3.2c0.6-1.3,1-3,1.2-5.1c0.2-2.2,0.2-4.1-0.1-5.6c-0.3-1.6-0.8-2.9-1.5-4.1c-0.7-1.1-1.5-2.1-2.4-2.8
		C307.4,1501.5,306.4,1500.9,305.4,1500.5z"/>
	<path class="st13" d="M297.2,1734.9c4.3-0.6,8.4-0.3,12.2,0.9c3.9,1.2,7.4,3,10.5,5.5c3.1,2.5,5.7,5.6,7.7,9.3
		c2,3.7,3.3,7.9,3.7,12.5c0.6,3.2,0.6,6.4,0.1,9.6c-0.5,3.2-1.5,6.3-2.9,9.2l1.5,11.6l-15.9,2.1l-2.1-16c1.5-1.9,2.6-3.9,3.3-6.1
		c0.6-2.2,0.7-4.6,0.2-7.4c-0.1-2.3-0.7-4.3-1.7-6c-1-1.7-2.2-3.2-3.8-4.4c-1.5-1.2-3.2-2-5.2-2.5c-1.9-0.5-4.1-0.6-6.4-0.3
		c-2.2,0.3-4.3,0.9-6.1,2c-1.9,1-3.4,2.3-4.7,3.8c-1.3,1.5-2.2,3.3-2.7,5.2c-0.6,1.9-0.8,4-0.7,6.2c0.4,1.8,1,3.4,1.8,4.8
		c0.8,1.4,1.8,2.6,2.9,3.7c1.1,1,2.4,1.9,3.7,2.6c1.3,0.7,2.6,1.2,3.7,1.5l-2.5,16.6c-2.5-0.3-5.2-1.2-8-2.4c-2.8-1.3-5.5-3-8-5.3
		c-2.5-2.3-4.7-5.1-6.5-8.5c-1.9-3.4-3.1-7.3-3.7-11.8c-0.6-4.6-0.3-9,1-13.1c1.2-4.1,3.2-7.8,5.8-11c2.6-3.2,5.9-5.9,9.8-8
		C288.2,1736.9,292.5,1735.5,297.2,1734.9z"/>
	<path class="st13" d="M351.7,1978.4l25.2-9.6l26,68.4l-25.2,9.6l-6.4-16.8l10.2-3.9l-3.5-9.3l-26.7,10.2l3.7,9.9l-15,5.7
		l-13.6-35.7l15-5.7l3.4,9l26.7-10.2l-3.3-8.7l-10.2,3.9L351.7,1978.4z"/>
	<path class="st13" d="M439.9,2235.9l13.2-9.1l4.2,6l23.5-16.3l-4.2-6l13.2-9.1l23.7,34.2c4.6,6.7,6.9,12.9,6.9,18.6
		c0,5.7-2.4,10.2-7,13.4c-2.4,1.7-4.7,2.5-7,2.5c-2.3,0-4.6-0.6-7-1.9c0.6,2.7,0.5,5.2-0.2,7.5c-0.7,2.3-2.2,4.2-4.4,5.7
		c-2.4,1.6-4.9,2.6-7.6,3c-2.7,0.3-5.3,0-8-0.9c-2.7-0.9-5.3-2.4-7.9-4.5c-2.6-2.1-4.9-4.7-7-7.8L439.9,2235.9z M467.5,2247.6
		l9.2,13.3c1.3,1.9,2.7,3.3,4.2,4.2c1.5,0.9,2.8,0.9,4.1,0c1.4-0.9,1.8-2.2,1.4-3.9c-0.4-1.7-1.3-3.4-2.6-5.3l-9.2-13.3
		L467.5,2247.6z M483.9,2236.2l9.1,13.1c1.5,2.2,3,3.8,4.2,4.6c1.3,0.9,2.5,0.9,3.7,0c1.2-0.8,1.7-2,1.7-3.6c0-1.6-0.9-3.6-2.5-6
		l-9.1-13.1L483.9,2236.2z"/>
	<path class="st13" d="M631.7,2417.7c3-3.3,6.3-5.9,10.1-7.8c3.8-1.9,7.6-3,11.7-3.3c4-0.3,8.1,0.2,12.1,1.6c4,1.4,7.8,3.6,11.4,6.8
		c3.6,3.2,6.2,6.6,7.9,10.2c1.7,3.6,2.6,7.3,2.6,11.1c0,3.8-0.7,7.5-2.2,11.2c-1.5,3.7-3.6,7.2-6.4,10.6c-0.6,0.8-1.2,1.6-1.8,2.3
		c-0.6,0.7-1.3,1.4-2,2.1l-33.3-29.8l-1,1.4c-0.8,1.6-1.3,3.2-1.3,4.8c-0.1,1.6,0.1,3.3,0.6,4.8c0.5,1.6,1.2,3.1,2.2,4.6
		c1,1.5,2.1,2.8,3.5,4c1.3,1.2,2.6,2.2,3.9,3.1c1.3,0.9,2.7,1.7,4,2.4c1.3,0.7,2.7,1.4,4.1,2c1.4,0.6,2.8,1.2,4.2,1.7l-3.2,13.3
		c-2.6-0.4-4.9-0.9-7-1.4c-2-0.5-4-1.1-5.8-1.9s-3.6-1.7-5.4-2.9c-1.8-1.2-3.7-2.7-5.8-4.6c-3.9-3.5-6.9-7.3-8.8-11.3
		c-1.9-4-2.9-8.1-3-12.2c-0.1-4.1,0.6-8.1,2.2-12C626.5,2424.7,628.8,2421,631.7,2417.7z M650.3,2423.9l18.9,16.9
		c0.6-1,1-2.1,1.3-3.2c0.3-1.1,0.4-2.2,0.2-3.4c-0.2-1.2-0.6-2.4-1.3-3.6c-0.7-1.3-1.9-2.6-3.4-4c-1.6-1.5-3.2-2.5-4.6-3.2
		c-1.5-0.7-2.8-1.1-4.1-1.2c-1.3-0.1-2.5,0-3.7,0.3C652.4,2422.9,651.3,2423.3,650.3,2423.9z"/>
	<path class="st13" d="M820.9,2597.9l7.5-14.2l9.6,5.1l13.4-25.2l-9.6-5.1l7.6-14.2l33.2,17.7l-7.6,14.2l-7.8-4.2l-3.3,6.3
		l23.7,12.6l3.3-6.3l-8-4.3l7.6-14.2l33.2,17.7l-7.5,14.2l-9.4-5l-13.4,25.2l9.4,5l-7.6,14.2l-33.2-17.7l7.6-14.2l8,4.3l4.3-8.1
		l-23.7-12.6l-4.3,8.1l7.8,4.2l-7.5,14.2L820.9,2597.9z"/>
	<path class="st13" d="M1079.8,2707.1l3.8-15.6l10.5,2.5l6.7-27.8l-10.5-2.5l3.8-15.6l36.6,8.9l-3.8,15.6l-8.6-2.1l-1.7,6.9
		l26.1,6.3l1.7-6.9l-8.8-2.1l3.8-15.6l36.6,8.9l-3.8,15.6l-10.3-2.5l-6.7,27.8l10.3,2.5l-3.8,15.6l-36.6-8.9l3.8-15.6l8.8,2.1
		l2.2-8.9l-26.1-6.3l-2.1,8.9l8.6,2.1l-3.8,15.6L1079.8,2707.1z"/>
	<path class="st13" d="M1356,2717.5c0-4.4,0.8-8.6,2.4-12.4c1.6-3.9,3.8-7.3,6.7-10.2c2.9-2.9,6.3-5.2,10.3-6.9
		c4-1.7,8.4-2.6,13.2-2.6c4.8,0,9.2,0.8,13.2,2.5c4,1.7,7.5,3.9,10.3,6.8c2.9,2.9,5.1,6.2,6.8,10.1c1.6,3.9,2.4,8,2.5,12.4
		c0,4.4-0.7,8.6-2.3,12.5c-1.5,3.9-3.7,7.3-6.6,10.2c-2.8,2.9-6.3,5.2-10.2,6.9c-4,1.7-8.4,2.6-13.3,2.6c-4.9,0-9.4-0.8-13.5-2.5
		c-4-1.7-7.5-3.9-10.3-6.8c-2.9-2.9-5.1-6.3-6.7-10.1C1356.8,2726.1,1356,2721.9,1356,2717.5z M1373.9,2717.4c0,2.3,0.4,4.5,1.2,6.4
		c0.8,2,1.9,3.6,3.2,5.1c1.4,1.4,2.9,2.5,4.7,3.3c1.8,0.8,3.7,1.2,5.7,1.2c2.1,0,4-0.4,5.8-1.2c1.8-0.8,3.3-1.9,4.6-3.3
		c1.3-1.4,2.3-3.1,3-5.1c0.7-2,1.1-4.1,1.1-6.5c0-2.4-0.4-4.7-1.1-6.6c-0.8-2-1.8-3.6-3.1-5c-1.3-1.4-2.9-2.4-4.6-3.1
		c-1.8-0.7-3.7-1.1-5.8-1c-2,0-3.9,0.3-5.7,1.1c-1.8,0.7-3.3,1.8-4.7,3.2c-1.3,1.4-2.4,3.1-3.2,5.1
		C1374.3,2712.7,1373.9,2714.9,1373.9,2717.4z"/>
	<path class="st13" d="M1610.3,2693.4c-1-4.3-1.3-8.6-0.7-12.7s1.9-8,4-11.5c2.1-3.5,4.8-6.5,8.2-9.1c3.4-2.6,7.4-4.4,12.1-5.5
		c4.6-1.1,8.9-1.3,12.9-0.7s7.5,2.1,10.6,4.2c3.1,2.1,5.8,4.9,8,8.2c2.2,3.3,3.9,7.1,5,11.3c0.3,0.9,0.6,1.8,0.9,2.8
		c0.2,0.9,0.4,1.9,0.6,2.9l-43.5,10.5l0.6,1.7c0.8,1.6,1.9,2.8,3.2,3.8c1.3,1,2.7,1.8,4.3,2.3c1.6,0.5,3.2,0.8,5,0.8
		c1.8,0,3.5-0.2,5.2-0.6c1.7-0.4,3.3-0.9,4.8-1.5c1.5-0.6,2.9-1.2,4.3-1.9c1.4-0.7,2.7-1.4,3.9-2.2c1.3-0.8,2.5-1.6,3.8-2.5
		l9.1,10.2c-1.8,1.9-3.5,3.5-5.1,4.9c-1.6,1.4-3.2,2.6-4.9,3.7c-1.7,1.1-3.5,2-5.5,2.8s-4.3,1.5-7.1,2.2c-5.1,1.2-9.9,1.5-14.3,0.8
		c-4.4-0.7-8.3-2.2-11.7-4.4c-3.4-2.2-6.3-5.1-8.7-8.6C1613.1,2701.6,1611.4,2697.7,1610.3,2693.4z M1626,2681.7l24.7-6
		c-0.5-1-1.2-2-1.9-2.8c-0.7-0.9-1.6-1.6-2.7-2.1c-1.1-0.5-2.3-0.9-3.8-1c-1.5-0.1-3.2,0.1-5.2,0.6c-2.1,0.5-3.9,1.2-5.3,2
		c-1.4,0.8-2.5,1.7-3.4,2.7c-0.8,1-1.4,2.1-1.8,3.2C1626.3,2679.4,1626.1,2680.5,1626,2681.7z"/>
	<path class="st13" d="M2220.5,2401.7l-24.6-21.4l2.7-4c1.4-2.6,2.2-5,2.2-7.2c0.1-2.2-0.4-4.3-1.4-6.4c-1-2.1-2.4-4.2-4.3-6.4
		c-1.9-2.2-4.1-4.5-6.7-7l-2.8-2.8l-5.7,6.7l-12.2-10.5l45.9-53.2l12.2,10.5l-5.9,6.9l21.7,18.7l8-9.2l25.7,22.1l-12.7,14.7
		l-13.5-11.7l-30.1,34.9l13.5,11.7L2220.5,2401.7z M2214.7,2356.5l14.9-17.3l-21.7-18.7l-11.3,13.1l5.9,5.5c1.9,1.9,4.1,4.3,6.4,7.3
		C2211.3,2349.4,2213.2,2352.7,2214.7,2356.5z"/>
	<path class="st13" d="M2373.8,2156.8l-14.3-7.2l3.3-6.5l-25.6-12.8l-3.3,6.5l-14.3-7.2l18.7-37.2c3.6-7.2,8-12.2,13-15
		c5.1-2.7,10.1-2.8,15.1-0.3c2.6,1.3,4.5,3,5.6,4.9c1.1,2,1.7,4.3,1.7,7c2.1-1.8,4.4-3,6.7-3.4c2.3-0.5,4.7-0.1,7.2,1.1
		c2.6,1.3,4.7,3,6.2,5.2c1.6,2.2,2.6,4.7,3.1,7.5c0.5,2.8,0.4,5.8-0.2,9.1c-0.6,3.2-1.8,6.6-3.4,9.9L2373.8,2156.8z M2353.1,2118
		l7.2-14.3c1.2-2.4,1.9-4.4,2-5.9c0.1-1.5-0.5-2.6-1.8-3.3c-1.3-0.6-2.6-0.6-4,0.2c-1.4,0.8-2.7,2.5-4,5.1l-7.2,14.3L2353.1,2118z
		 M2370.9,2127l7.2-14.4c1-2.1,1.6-4,1.7-5.7c0.1-1.7-0.6-2.9-1.9-3.6c-1.5-0.7-2.9-0.5-4.1,0.6c-1.2,1.2-2.4,2.8-3.4,4.8l-7.2,14.4
		L2370.9,2127z"/>
	<path class="st13" d="M2428.7,1897.1l-15.7-3.5l7.1-32.2l15.7,3.5l-1.6,7.2l20.9,4.6l-30.3-36.8l5.1-23.1l15.8,3.5l-1.6,7.2
		l27.8,6.2l1.6-7.2l15.7,3.5l-7.1,32.2l-15.7-3.5l1.7-7.5l-20.4-4.5l29.7,36.7l-5.2,23.4l-15.7-3.5l1.6-7.4l-27.9-6.2L2428.7,1897.1
		z"/>
	<path class="st13" d="M2508.7,1628.4l-16,0.7l-0.4-8.7l-15.3-12.4l-13.3,12.3l0.4,10.1l-16,0.7l-1.3-30.1l16-0.7l0,0.4l7.4-5.8
		l-0.4-9.2l-7.7,0.3l0.3,7.8l-16,0.7l-1.1-25.8l23.7-1l-0.3-7l-7.9-5l-16,0.7l-1.3-30.1l16-0.7l0.4,10.3l14.3,11.1l14.2-13.8
		l-0.4-8.7l16-0.7l0.7,16.5l-22.6,20.9l0.3,6l7.4-0.3l-0.3-7.8l16-0.7l1.1,25.8l-23.5,1l0.4,8.1l7.7,6l0-0.1l16-0.7L2508.7,1628.4z"
		/>
	<path class="st13" d="M2438.8,1338.3c-4.3,1.3-8.5,1.7-12.7,1.4c-4.2-0.4-8.1-1.5-11.7-3.3c-3.6-1.9-6.8-4.4-9.5-7.7
		c-2.7-3.3-4.8-7.2-6.2-11.7c-1.4-4.6-1.8-8.8-1.4-12.8c0.5-4,1.7-7.6,3.6-10.8c1.9-3.2,4.5-6.1,7.7-8.4c3.2-2.4,6.9-4.3,11-5.6
		c0.9-0.4,1.8-0.7,2.7-1c0.9-0.3,1.9-0.5,2.9-0.8l12.9,42.8l1.6-0.7c1.5-0.9,2.7-2,3.7-3.4c0.9-1.4,1.6-2.8,2-4.4
		c0.4-1.6,0.6-3.3,0.5-5.1c-0.1-1.8-0.4-3.5-0.9-5.2c-0.5-1.7-1.1-3.3-1.7-4.7c-0.7-1.5-1.4-2.8-2.1-4.2c-0.8-1.3-1.6-2.6-2.4-3.8
		c-0.9-1.2-1.7-2.4-2.7-3.7l9.7-9.7c2,1.7,3.7,3.3,5.2,4.8c1.5,1.5,2.8,3,3.9,4.7c1.2,1.6,2.2,3.4,3.1,5.3c0.9,1.9,1.7,4.2,2.6,6.9
		c1.5,5.1,2,9.8,1.6,14.2c-0.5,4.4-1.7,8.4-3.8,11.9c-2,3.5-4.8,6.6-8.1,9.1C2446.9,1335.1,2443,1337,2438.8,1338.3z M2426.2,1323.3
		l-7.3-24.3c-1,0.6-1.9,1.3-2.7,2c-0.8,0.8-1.5,1.7-1.9,2.8c-0.5,1.1-0.7,2.4-0.8,3.8c0,1.5,0.2,3.2,0.8,5.2
		c0.6,2.1,1.4,3.8,2.3,5.2c0.9,1.3,1.8,2.4,2.9,3.2c1.1,0.8,2.2,1.3,3.3,1.6C2423.9,1323.1,2425,1323.3,2426.2,1323.3z"/>
	<path class="st13" d="M2371.3,1085.9l-13.8,8.2l-5.5-9.3l-24.6,14.6l5.5,9.3l-13.8,8.2l-19.2-32.4l13.8-8.2l4.5,7.6l6.1-3.6
		l-13.7-23.2l-6.1,3.6l4.6,7.8l-13.8,8.2l-19.2-32.4l13.8-8.2l5.4,9.1l24.6-14.6l-5.4-9.1l13.8-8.2l19.2,32.4l-13.8,8.2l-4.6-7.8
		l-7.9,4.7l13.7,23.2l7.9-4.7l-4.5-7.6l13.8-8.2L2371.3,1085.9z"/>
	<path class="st13" d="M2175.6,889.6l-11.3,11.4l-23.3-23.3l11.3-11.4l5.2,5.2l15.2-15.2l-47.3,5.8l-16.8-16.7l11.4-11.4l5.2,5.2
		l20.1-20.1l-5.2-5.2l11.3-11.4l23.3,23.3l-11.3,11.4l-5.4-5.4l-14.7,14.8l46.9-5.3l16.9,16.9l-11.3,11.4l-5.3-5.3l-20.2,20.2
		L2175.6,889.6z"/>
	<path class="st13" d="M1976.2,705.4c-2.3,3.8-5.1,7-8.5,9.5c-3.3,2.5-7,4.3-10.9,5.3c-3.9,1-8,1.2-12.2,0.7
		c-4.2-0.6-8.4-2.1-12.4-4.6c-4.1-2.5-7.3-5.3-9.6-8.6c-2.3-3.3-3.9-6.8-4.6-10.5c-0.7-3.7-0.7-7.5,0.1-11.5
		c0.8-3.9,2.3-7.8,4.4-11.5c0.4-0.9,0.9-1.8,1.3-2.6c0.5-0.8,1-1.7,1.6-2.5l38.2,23.2l0.8-1.6c0.5-1.7,0.7-3.3,0.4-5
		c-0.2-1.6-0.7-3.2-1.5-4.7c-0.8-1.5-1.7-2.8-3-4.1c-1.2-1.3-2.6-2.4-4.1-3.3c-1.5-0.9-3-1.7-4.4-2.3c-1.5-0.6-2.9-1.2-4.4-1.7
		c-1.5-0.5-2.9-0.9-4.4-1.2c-1.4-0.3-2.9-0.6-4.4-0.9l0.8-13.7c2.6,0,5,0,7.1,0.1c2.1,0.1,4.1,0.4,6,0.8c1.9,0.4,3.9,1.1,5.8,1.9
		c2,0.8,4.1,2,6.5,3.4c4.5,2.7,8.1,5.9,10.7,9.5c2.6,3.6,4.3,7.4,5.2,11.4c0.8,4,0.9,8.1,0,12.2
		C1980.1,697.6,1978.5,701.6,1976.2,705.4z M1956.8,702.6l-21.7-13.2c-0.4,1.1-0.6,2.2-0.7,3.4c-0.1,1.1,0.1,2.2,0.4,3.4
		c0.4,1.1,1,2.2,2,3.3c1,1.1,2.3,2.2,4.1,3.3c1.9,1.1,3.6,1.9,5.1,2.3c1.6,0.4,3,0.6,4.3,0.4c1.3-0.1,2.5-0.5,3.5-1
		C1955,704,1956,703.4,1956.8,702.6z"/>
</g>
</svg>
