<?xml version="1.0" encoding="utf-8"?>
<!-- Generator: Adobe Illustrator 20.1.0, SVG Export Plug-In . SVG Version: 6.00 Build 0)  -->
<svg version="1.1" id="Layer_3" xmlns="http://www.w3.org/2000/svg" xmlns:xlink="http://www.w3.org/1999/xlink" x="0px" y="0px"
	 viewBox="0 0 23.5 23.6" style="enable-background:new 0 0 23.5 23.6;" xml:space="preserve">
<style type="text/css">
	.st0{fill:#4F453C;}
</style>
<g>
	<g>
		<g>
			<path class="st0" d="M9,15.6c-0.3,0-0.5-0.1-0.7-0.3c-0.4-0.4-0.4-1,0-1.4l5.6-5.6c0.4-0.4,1-0.4,1.4,0c0.4,0.4,0.4,1,0,1.4
				l-5.6,5.6C9.5,15.5,9.2,15.6,9,15.6L9,15.6z"/>
		</g>
		<g>
			<path class="st0" d="M14.6,15.6c-0.3,0-0.5-0.1-0.7-0.3L8.3,9.7c-0.4-0.4-0.4-1,0-1.4c0.4-0.4,1-0.4,1.4,0l5.6,5.6
				c0.4,0.4,0.4,1,0,1.4C15.1,15.5,14.8,15.6,14.6,15.6L14.6,15.6z"/>
		</g>
	</g>
	<g>
		<path class="st0" d="M11.8,23.6c-3.1,0-6.1-1.2-8.3-3.4C1.2,17.9,0,14.9,0,11.8c0-3.1,1.2-6.1,3.5-8.3C5.7,1.2,8.6,0,11.8,0
			c3.1,0,6.1,1.2,8.3,3.4c4.6,4.6,4.6,12.1,0,16.7C17.9,22.3,14.9,23.6,11.8,23.6L11.8,23.6z M11.8,2C9.2,2,6.7,3,4.9,4.9
			C3,6.7,2,9.2,2,11.8s1,5.1,2.9,6.9c1.8,1.8,4.3,2.9,6.9,2.9c2.6,0,5.1-1,6.9-2.9c3.8-3.8,3.8-10,0-13.8C16.8,3,14.4,2,11.8,2
			L11.8,2z"/>
	</g>
</g>
</svg>
