<svg id="Layer_3" xmlns="http://www.w3.org/2000/svg" viewBox="0 0 23.5 23.6"><style>.st0{fill:#4f453c}</style><path class="st0" d="M9 15.6c-.3 0-.5-.1-.7-.3-.4-.4-.4-1 0-1.4l5.6-5.6c.4-.4 1-.4 1.4 0 .4.4.4 1 0 1.4l-5.6 5.6c-.2.2-.5.3-.7.3z"/><path class="st0" d="M14.6 15.6c-.3 0-.5-.1-.7-.3L8.3 9.7c-.4-.4-.4-1 0-1.4.4-.4 1-.4 1.4 0l5.6 5.6c.4.4.4 1 0 1.4-.2.2-.5.3-.7.3z"/><g><path class="st0" d="M11.8 23.6c-3.1 0-6.1-1.2-8.3-3.4C1.2 17.9 0 14.9 0 11.8c0-3.1 1.2-6.1 3.5-8.3C5.7 1.2 8.6 0 11.8 0c3.1 0 6.1 1.2 8.3 3.4 4.6 4.6 4.6 12.1 0 16.7-2.2 2.2-5.2 3.5-8.3 3.5zm0-21.6C9.2 2 6.7 3 4.9 4.9 3 6.7 2 9.2 2 11.8s1 5.1 2.9 6.9c1.8 1.8 4.3 2.9 6.9 2.9 2.6 0 5.1-1 6.9-2.9 3.8-3.8 3.8-10 0-13.8C16.8 3 14.4 2 11.8 2z"/></g></svg>