<?xml version="1.0" encoding="utf-8"?>
<!-- Generator: Adobe Illustrator 20.1.0, SVG Export Plug-In . SVG Version: 6.00 Build 0)  -->
<svg version="1.1" id="Layer_1" xmlns="http://www.w3.org/2000/svg" xmlns:xlink="http://www.w3.org/1999/xlink" x="0px" y="0px"
	 viewBox="186.945 124.579 18.123 15.629" style="enable-background:new 186.945 124.579 18.123 15.629;" xml:space="preserve">
<style type="text/css">
	.st0{fill:red;}
</style>
<path marker-start="none" marker-end="none" class="st0" d="M195.011,140.206c-2.52-0.036-5.005-1.026-6.54-2.683
	c-1.563-1.687-2.108-4.038-0.761-6.649l0.276-0.495l0.559-1.244c0.561-1.32,1.123-2.83,1.693-4.293
	c0.112-0.288,0.49-0.355,0.695-0.124l2.023,2.29h6.101l2.022-2.29c0.205-0.231,0.583-0.164,0.694,0.124
	c0.571,1.463,1.134,2.973,1.693,4.293l0.558,1.244l0.278,0.495c1.347,2.611,0.802,4.962-0.762,6.649
	c-1.637,1.767-4.354,2.776-7.042,2.678h-0.985C195.347,140.207,195.179,140.209,195.011,140.206z M195.031,139.379
	c0.156,0.003,0.313,0.001,0.47-0.005h1.015c2.503,0.091,4.974-0.85,6.421-2.412c1.416-1.528,1.886-3.68,0.366-6.186
	c-0.006-0.011-0.013-0.023-0.019-0.035c-0.383-0.797-0.765-1.716-1.145-2.676l-0.888-2.29l-1.697,1.92
	c-0.079,0.089-0.191,0.14-0.31,0.14h-1.342v1.74c0,0.227-0.185,0.413-0.412,0.413c-0.229,0-0.413-0.186-0.413-0.413v-1.74h-0.824
	v1.74c0,0.227-0.187,0.413-0.413,0.413c-0.229,0-0.414-0.186-0.414-0.413v-1.74H194.6v1.74c0,0.227-0.185,0.413-0.413,0.413
	c-0.227,0-0.413-0.186-0.413-0.413v-1.74h-1.004c-0.119,0-0.23-0.051-0.309-0.14l-1.697-1.92l-0.888,2.29
	c-0.38,0.96-0.763,1.879-1.145,2.676c-0.006,0.012-0.012,0.024-0.019,0.035c-1.521,2.506-1.05,4.658,0.366,6.186
	C190.434,138.426,192.691,139.345,195.031,139.379z M189.732,136.454c-0.176-0.004-0.337-0.12-0.389-0.298
	c-0.063-0.22,0.063-0.449,0.282-0.513l1.766-0.514c0.219-0.063,0.449,0.063,0.512,0.282c0.064,0.219-0.063,0.448-0.281,0.512
	l-1.766,0.514C189.815,136.449,189.773,136.455,189.732,136.454z M202.064,136.454c-0.041,0.001-0.082-0.005-0.123-0.017
	l-1.766-0.514c-0.218-0.064-0.345-0.293-0.281-0.512c0.064-0.219,0.293-0.345,0.512-0.282l1.767,0.514
	c0.219,0.064,0.345,0.293,0.282,0.513C202.401,136.334,202.24,136.45,202.064,136.454z M194.932,136.363
	c-0.032,0.001-0.063,0.001-0.095-0.001c-0.511-0.02-1.03-0.271-1.298-0.724c-0.117-0.197-0.053-0.45,0.144-0.566
	c0.198-0.117,0.451-0.052,0.567,0.144c0.106,0.18,0.351,0.31,0.618,0.32c0.133,0.005,0.257-0.02,0.357-0.071
	c0.097-0.048,0.18-0.123,0.237-0.231c0.066-0.126,0.189-0.203,0.322-0.218l0.069-0.001h0.027c0.133,0.007,0.259,0.079,0.332,0.201
	c0.105,0.18,0.352,0.31,0.619,0.32c0.132,0.005,0.256-0.02,0.357-0.071c0.099-0.049,0.182-0.123,0.238-0.232
	c0.108-0.201,0.358-0.278,0.56-0.171c0.201,0.108,0.277,0.357,0.172,0.559c-0.144,0.269-0.357,0.463-0.601,0.584
	c-0.211,0.105-0.438,0.154-0.662,0.158c-0.033,0.001-0.064,0.001-0.096-0.001c-0.32-0.012-0.642-0.115-0.904-0.301l-0.039-0.032
	l-0.087,0.072c-0.056,0.039-0.115,0.074-0.176,0.104C195.384,136.31,195.156,136.359,194.932,136.363z M191.514,134.376
	c-0.041,0.001-0.082-0.004-0.123-0.016l-1.766-0.515c-0.221-0.063-0.346-0.294-0.282-0.512c0.064-0.22,0.294-0.345,0.513-0.282
	l1.766,0.515c0.22,0.064,0.346,0.293,0.281,0.512C191.851,134.257,191.689,134.373,191.514,134.376z M200.283,134.376
	c-0.177-0.003-0.339-0.119-0.39-0.298c-0.064-0.219,0.063-0.448,0.281-0.512l1.766-0.515c0.22-0.063,0.449,0.063,0.514,0.282
	c0.063,0.218-0.064,0.448-0.282,0.512l-1.767,0.515C200.365,134.372,200.323,134.377,200.283,134.376z M194.34,132.535
	c-0.147,0-0.288-0.08-0.362-0.219c-0.058-0.108-0.14-0.183-0.237-0.232c-0.102-0.05-0.226-0.076-0.358-0.071
	c-0.268,0.011-0.513,0.141-0.619,0.32c-0.116,0.196-0.37,0.261-0.566,0.144c-0.195-0.116-0.261-0.37-0.145-0.566
	c0.269-0.454,0.789-0.704,1.299-0.724c0.253-0.01,0.518,0.037,0.757,0.157c0.244,0.121,0.457,0.315,0.601,0.584
	c0.107,0.202,0.03,0.451-0.171,0.559C194.474,132.521,194.406,132.536,194.34,132.535z M199.535,132.535
	c-0.148,0-0.288-0.08-0.362-0.219c-0.057-0.108-0.14-0.183-0.238-0.232c-0.101-0.05-0.225-0.076-0.357-0.071
	c-0.268,0.011-0.514,0.141-0.619,0.32c-0.117,0.196-0.37,0.261-0.566,0.144c-0.196-0.116-0.262-0.37-0.145-0.566
	c0.269-0.454,0.788-0.704,1.298-0.724c0.254-0.01,0.517,0.037,0.758,0.157c0.243,0.121,0.456,0.315,0.599,0.584
	c0.107,0.202,0.031,0.451-0.17,0.559C199.669,132.521,199.601,132.536,199.535,132.535z"/>
</svg>
