<svg id="Layer_1" xmlns="http://www.w3.org/2000/svg" viewBox="186.945 124.579 18.123 15.629"><style>.st0{fill:red}</style><path class="st0" d="M195.011 140.206c-2.52-.036-5.005-1.026-6.54-2.683-1.563-1.687-2.108-4.038-.761-6.649l.276-.495.559-1.244c.561-1.32 1.123-2.83 1.693-4.293a.414.414 0 0 1 .695-.124l2.023 2.29h6.101l2.022-2.29a.413.413 0 0 1 .694.124c.571 1.463 1.134 2.973 1.693 4.293l.558 1.244.278.495c1.347 2.611.802 4.962-.762 6.649-1.637 1.767-4.354 2.776-7.042 2.678h-.985a9.316 9.316 0 0 1-.502.005zm.02-.827c.156.003.313.001.47-.005h1.015c2.503.091 4.974-.85 6.421-2.412 1.416-1.528 1.886-3.68.366-6.186l-.019-.035a42.176 42.176 0 0 1-1.145-2.676l-.888-2.29-1.697 1.92a.414.414 0 0 1-.31.14h-1.342v1.74a.413.413 0 0 1-.825 0v-1.74h-.824v1.74a.414.414 0 0 1-.827 0v-1.74h-.826v1.74a.414.414 0 0 1-.826 0v-1.74h-1.004a.411.411 0 0 1-.309-.14l-1.697-1.92-.888 2.29c-.38.96-.763 1.879-1.145 2.676l-.019.035c-1.521 2.506-1.05 4.658.366 6.186 1.356 1.464 3.613 2.383 5.953 2.417zm-5.299-2.925a.415.415 0 0 1-.107-.811l1.766-.514a.414.414 0 0 1 .231.794l-1.766.514a.408.408 0 0 1-.124.017zm12.332 0a.401.401 0 0 1-.123-.017l-1.766-.514a.414.414 0 0 1 .231-.794l1.767.514a.415.415 0 0 1 .282.513.42.42 0 0 1-.391.298zm-7.132-.091a1.004 1.004 0 0 1-.095-.001c-.511-.02-1.03-.271-1.298-.724a.413.413 0 1 1 .711-.422c.106.18.351.31.618.32a.73.73 0 0 0 .357-.071.528.528 0 0 0 .237-.231.413.413 0 0 1 .322-.218l.069-.001h.027a.412.412 0 0 1 .332.201c.105.18.352.31.619.32a.735.735 0 0 0 .357-.071.518.518 0 0 0 .238-.232.415.415 0 0 1 .56-.171.416.416 0 0 1 .172.559 1.363 1.363 0 0 1-.601.584 1.544 1.544 0 0 1-.758.157 1.684 1.684 0 0 1-.904-.301l-.039-.032-.087.072a1.533 1.533 0 0 1-.837.262zm-3.418-1.987a.4.4 0 0 1-.123-.016l-1.766-.515a.412.412 0 0 1-.282-.512.415.415 0 0 1 .513-.282l1.766.515a.413.413 0 1 1-.108.81zm8.769 0a.414.414 0 0 1-.109-.81l1.766-.515a.416.416 0 0 1 .514.282.416.416 0 0 1-.282.512l-1.767.515a.394.394 0 0 1-.122.016zm-5.943-1.841a.41.41 0 0 1-.362-.219.54.54 0 0 0-.237-.232.753.753 0 0 0-.358-.071c-.268.011-.513.141-.619.32a.413.413 0 1 1-.711-.422c.269-.454.789-.704 1.299-.724.253-.01.518.037.757.157.244.121.457.315.601.584a.414.414 0 0 1-.37.607zm5.195 0a.409.409 0 0 1-.362-.219.533.533 0 0 0-.238-.232.746.746 0 0 0-.357-.071c-.268.011-.514.141-.619.32a.413.413 0 0 1-.711-.422c.269-.454.788-.704 1.298-.724.254-.01.517.037.758.157.243.121.456.315.599.584a.414.414 0 0 1-.368.607z"/></svg>